<?xml version="1.0" standalone="no"?>
<!DOCTYPE svg PUBLIC "-//W3C//DTD SVG 1.1//EN" "http://www.w3.org/Graphics/SVG/1.1/DTD/svg11.dtd" >
<svg xmlns="http://www.w3.org/2000/svg">
<metadata></metadata>
<defs>
<font id="porter_sans_blockblock" horiz-adv-x="2652" >
<font-face units-per-em="2048" ascent="1536" descent="-512" />
<missing-glyph horiz-adv-x="1230" />
<glyph horiz-adv-x="0" />
<glyph horiz-adv-x="682" />
<glyph horiz-adv-x="0" />
<glyph horiz-adv-x="0" />
<glyph unicode="&#xd;" horiz-adv-x="1024" />
<glyph unicode=" "  horiz-adv-x="1230" />
<glyph unicode="&#x09;" horiz-adv-x="1230" />
<glyph unicode="&#xa0;" horiz-adv-x="1230" />
<glyph unicode="!" horiz-adv-x="755" d="M98 113v123h127v-123h-127zM98 387v934h123q0 -153 2 -467t2 -467h-127zM338 -2v1438h-352v-1438h352zM145 -252l-211 199v1540h455l199 -211v-1528h-443z" />
<glyph unicode="&#x22;" horiz-adv-x="1222" d="M668 1081q-2 8 -10.5 40t-16.5 60t-8 31v150h131v-145q0 -13 -41 -136h-55zM807 971q70 210 70 221v281h-357v-271q0 -3 14 -56t29 -110t17 -65h227zM229 1081q-34 113 -34 131v150h131v-145q0 -3 -9 -32t-19.5 -62t-12.5 -42h-56zM369 971q69 207 69 221v281h-356v-271 q0 -3 14 -56t28.5 -110t16.5 -65h228zM309 721l-211 199q-16 79 -35 149l-32 131v324h897l198 -211v-326q0 -7 -36.5 -124t-45.5 -142h-296l-107 106l-35 -106h-297z" />
<glyph unicode="#" horiz-adv-x="2371" d="M610 567h576l104 297h-577zM795 752h333q-1 -3 -24 -70h-332zM285 987h336q42 128 118 334h131l-114 -334h575q62 180 119 334h131l-115 -334h271v-123h-312q-12 -34 -49.5 -137t-56.5 -160h307v-121h-346l-115 -333h-135l115 333h-576l-114 -333h-136l115 333h-262v121 h305l103 297h-295v123zM172 752h246l-19 -70h-342v-350h219l-112 -334h368l115 334h340l-113 -334h369l115 334h381v350h-260l24 70h348v350h-227l113 334h-371q-10 -31 -51.5 -149.5t-61.5 -184.5h-340l113 334h-371q-6 -18 -48.5 -142.5t-63.5 -191.5h-371v-350zM6 281 v452h115v420h381q31 94 61 174l55 160h480l166 -184l10 24l55 160h479l197 -211l-61 -178l157 -156v-440h-112v-420h-394q-14 -43 -55 -161t-59 -173h-465l-185 184q-8 -21 -61 -184h-465l-213 199l66 192z" />
<glyph unicode="$" horiz-adv-x="2242" d="M373 999q0 -42 39.5 -78t92 -58t125 -40.5t118 -26.5t90.5 -14v418q-34 -2 -62.5 -5t-79 -10t-90.5 -16t-85.5 -24.5t-76 -35t-51 -48t-20.5 -62.5zM485 999q0 58 242 82v-168q-242 41 -242 86zM1446 434q0 151 -488 221v-422q488 34 488 201zM1333 434q0 -55 -260 -80 v168q260 -40 260 -88zM344 436q149 -188 494 -203v431q-54 7 -106 17t-125 27.5t-133 43.5t-114 60t-85 82.5t-31 104.5q0 59 31 108.5t83.5 82.5t114 58t132 40t126.5 22.5t107 10.5v149h120v-149q398 -22 570 -252l-115 -76q-134 171 -455 209v-426q46 -6 91.5 -13.5 t109 -22.5t118.5 -33t111.5 -45t96 -59t65 -76t25.5 -93q0 -59 -32.5 -108.5t-88.5 -83t-120 -58t-137.5 -39t-130 -22t-108.5 -10.5v-119h-120v119q-416 15 -600 247zM78 389q111 -173 277 -270.5t372 -114.5v-125h346v125q79 8 157 24.5t163.5 50.5t149 80t105.5 117.5 t42 157.5t-42.5 157.5t-105.5 118t-150 83t-162.5 55t-156.5 31.5v194q181 -50 305 -227l310 184q-220 354 -615 397v158h-346v-158q-64 -6 -128 -19.5t-133 -35.5t-127.5 -56.5t-106 -78.5t-74.5 -105t-27 -133q0 -86 40 -156.5t100 -116t143.5 -80t157.5 -52.5t155 -29 v-209q-213 33 -352 236zM8 401l305 209l-57 58q-176 128 -176 331q0 88 38 163t98 126t141 90.5t159 61.5t160 35v161h448l199 -219q196 -84 346 -272l119 -119q91 -91 168 -215l-279 -166l152 -151q110 -110 110 -265q0 -90 -40 -165.5t-102.5 -125.5t-147 -88.5 t-163.5 -59.5t-163 -32v-129h-436l-162 162q-199 62 -350 213q-162 149 -238 231t-129 166z" />
<glyph unicode="%" horiz-adv-x="2258" d="M1485 203q170 0 170 145q0 79 -48 109t-132 30q-170 0 -170 -139q0 -80 48 -112.5t132 -32.5zM1475 315q-56 0 -56 33q0 25 66 25q55 0 55 -25q0 -33 -65 -33zM1204 348q0 128 74.5 181t206.5 53q268 0 268 -234q0 -128 -73.5 -182.5t-204.5 -54.5q-271 0 -271 237z M1092 348q0 -352 393 -352q181 0 281 85.5t100 266.5q0 184 -102.5 265t-288.5 81q-383 0 -383 -346zM430 942q168 0 168 141q0 144 -178 144q-78 0 -124 -34.5t-46 -109.5q0 -81 47 -111t133 -30zM420 1057q-60 0 -60 26q0 31 70 31q55 0 55 -31q0 -5 -1.5 -8.5t-5 -6.5 t-6.5 -5t-8.5 -3t-9 -1.5t-10 -1t-9 -0.5h-8.5h-7zM150 1083q0 129 74 183.5t206 54.5q124 0 195 -57.5t71 -180.5q0 -127 -72.5 -180t-203.5 -53q-270 0 -270 233zM35 1083q0 -95 28.5 -163.5t82.5 -107.5t123.5 -57t160.5 -18q179 0 280 83.5t101 262.5q0 353 -391 353 q-181 0 -283 -86t-102 -267zM244 113l1229 1208h186l-1229 -1208h-186zM475 -2l1458 1438h-506l-1458 -1438h506zM-16 1083q0 207 115 305.5t321 98.5q112 0 185.5 -23.5t155 -90t202.5 -206.5q39 -50 49 -69l395 389h649l191 -211l-568 -559q34 0 89.5 -36.5t114.5 -99 t112 -135.5t87 -154.5t34 -148.5q0 -205 -112 -301t-314 -96q-161 0 -348 122.5t-257 260.5l-387 -381h-632l-220 199l576 569q-214 103 -326 250t-112 317z" />
<glyph unicode="&#x26;" horiz-adv-x="2582" d="M1112 1090q-1 -24 -94.5 -85.5t-188.5 -115.5q-235 159 -235 201q0 31 92 49t166 18q71 0 165.5 -16.5t94.5 -50.5zM1235 1090q1 79 -107.5 121t-275.5 42q-39 0 -96.5 -7.5t-126 -23.5t-115.5 -49t-47 -77q0 -38 40.5 -88.5t101.5 -97t112.5 -80.5t91.5 -56 q16 9 80 40.5t113.5 59t106.5 64.5t89.5 76.5t32.5 75.5zM492 354q0 32 319 178q32 -18 97.5 -57.5t118 -69t101.5 -51.5q-108 -41 -274 -41q-245 0 -336 25q-26 9 -26 16zM352 354q0 -141 502 -141q104 0 266 36t266 79q-101 62 -293.5 172.5t-277.5 161.5q-6 -3 -35 -17 t-53.5 -26.5t-64 -32.5t-71.5 -38.5t-69.5 -40t-66 -42t-53 -40.5t-37.5 -38.5t-13 -32.5zM84 354q0 -362 770 -362q271 0 641 117l191 -111h600l-416 266q86 27 147 74l-237 280q-129 -76 -264 -141l-357 223q57 32 109.5 72t103 92t81 114t30.5 124q0 73 -30.5 132 t-83.5 96.5t-115.5 64t-137 39.5t-137 18.5t-125.5 5.5q-56 0 -110 -3.5t-119 -13.5t-120.5 -26t-109.5 -44.5t-92 -65t-61 -90.5t-23 -119q0 -56 23.5 -109.5t66 -99.5t83.5 -79.5t93 -68.5q-44 -24 -73.5 -41.5t-83.5 -51.5t-91 -65t-75 -69t-58 -78.5t-20 -79.5zM197 354 q0 19 14.5 41.5t41.5 47t58.5 49t73.5 51.5t77.5 48.5t80.5 46t72.5 39t62 32.5t41.5 22q-183 114 -265 185q-122 106 -122 180q0 51 28 92t76 67t103 44.5t117 27.5t109 12.5t89 3.5q46 0 91 -3t108 -10.5t115 -25t99 -42.5t74 -66.5t27 -93.5q0 -45 -35.5 -96t-87 -93.5 t-117 -83.5t-117 -68t-96.5 -46l605 -348q31 12 67.5 28.5t58.5 27.5t68 35t60 31l88 -110q-121 -51 -236 -90l293 -176h-201l-207 118q-383 -127 -657 -127q-42 0 -74.5 1t-94 3.5t-110 10t-108.5 18.5t-104.5 30t-84 44t-60.5 61.5t-21 81.5zM33 354q0 57 33.5 116 t90.5 110t112 89t118 74l-12 15q-89 72 -148 158.5t-59 179.5q0 75 25 136.5t66 103t99.5 74t118.5 50.5t130.5 29.5t128 15.5t118.5 4q81 0 160 -9t170 -31.5t175 -68t144 -110.5q79 -79 127.5 -137.5t70 -105t27 -76.5t5.5 -74q0 -183 -217 -356q33 7 296 155l834 -948 h-768l-182 107q-357 -113 -637 -113q-58 0 -93.5 0.5t-106.5 3.5t-121 9t-118.5 18.5t-119 30t-101.5 45.5t-86 63q-91 80 -147.5 142t-85 114t-38 93t-9.5 93z" />
<glyph unicode="'" horiz-adv-x="825" d="M131 1081q-2 7 -18.5 63t-16.5 68v150h131v-145q0 -5 -9 -33.5t-19.5 -61.5t-12.5 -41h-55zM270 971q70 210 70 221v281h-356v-271q0 -3 14 -56t28.5 -110t16.5 -65h227zM211 721l-211 199q-16 79 -35 149l-33 131v324h459l199 -211v-326q0 -7 -36.5 -124t-45.5 -142 h-297z" />
<glyph unicode="(" horiz-adv-x="1124" d="M109 717q0 157 45.5 294.5t143 250t237.5 174.5l81 -115q-118 -46 -205 -142t-129 -215t-42 -247t42 -247t129 -215t205 -142l-81 -115q-140 62 -237.5 174.5t-143 250t-45.5 294.5zM-4 717q0 -134 39 -268.5t110.5 -251t182.5 -204.5t243 -124l201 307q-120 26 -217 108 t-150 196.5t-53 236.5t53 236t150 196t217 108l-201 308q-132 -36 -243 -124t-182.5 -204.5t-110.5 -251t-39 -268.5zM-55 717q0 142 44.5 285.5t125.5 267.5t206 219t275 135l201 -213l254 -389q-128 -28 -231.5 -106.5t-160.5 -185t-57 -218.5q0 -125 63.5 -206.5 t186.5 -104.5l199 -199l-254 -389q-110 29 -219 103.5t-281 246.5q-167 135 -259.5 339t-92.5 415z" />
<glyph unicode=")" horiz-adv-x="1124" d="M659 717q0 -157 -45.5 -294.5t-143 -250t-237.5 -174.5l-81 115q118 46 205 142t129 215t42 247t-42 247t-129 215t-205 142l81 115q140 -62 237.5 -174.5t143 -250t45.5 -294.5zM772 717q0 134 -39 268.5t-110.5 251t-182.5 204.5t-243 124l-201 -308q120 -26 217 -108 t150 -196t53 -236t-53 -236.5t-150 -196.5t-217 -108l201 -307q132 36 243 124t182.5 204.5t110.5 251t39 268.5zM127 1022l-217 201l262 401q245 -67 422 -276l145 -146q134 -134 208.5 -319t74.5 -371q0 -141 -44 -283t-123.5 -265t-203 -217t-270.5 -134l-209 197 l-262 401q196 44 325.5 190.5t129.5 315.5q0 98 -80 192t-158 113z" />
<glyph unicode="*" horiz-adv-x="1087" d="M514 1053l-135 104v-207h-70v209l-137 -104l-29 47l142 88l-146 98l29 49l141 -96v201h70v-207l141 102l29 -49l-148 -98l144 -90zM705 1145l-9 100l-137 258l-65 47h-297l-64 -39l-145 -270l-2 -94l151 -258l60 -47h297q30 15 78 82.5t77 118.5t56 102zM385 592 l-250 231l-41 35l-160 272l3 121l159 299l84 52h330l88 -64l199 -207l149 -280l4 -131q-18 -35 -41.5 -76t-58.5 -96.5t-72.5 -98.5t-66.5 -57h-326z" />
<glyph unicode="+" horiz-adv-x="1779" d="M135 778h447v445h123v-445h442v-123h-442v-444h-123v444h-447v123zM20 543h449v-447h348v447h445v348h-445v446h-348v-446h-449v-348zM-31 492v450h449v447h450l199 -211v-236h246l198 -211v-438h-444v-447h-438l-211 199v248h-238z" />
<glyph unicode="," horiz-adv-x="708" d="M53 -158q31 66 42 158.5t1 171.5h129v-160l-98 -170h-74zM193 -272l145 254v305h-356q17 -129 -4 -284t-72 -275h287zM43 -522l-215 198q134 321 96 662h465l199 -211v-363l-164 -286h-381z" />
<glyph unicode="-" horiz-adv-x="1804" d="M135 778h1012v-123h-1012v123zM20 543h1242v348h-1242v-348zM-31 492v450h1344l198 -211v-438h-1331z" />
<glyph unicode="." horiz-adv-x="808" d="M98 68v116h127v-116h-127zM338 -45v342h-352v-342h352zM145 -295l-211 199v444h455l199 -211v-432h-443z" />
<glyph unicode="/" horiz-adv-x="1652" d="M98 113q120 147 460.5 564t526.5 644h160q-120 -147 -460.5 -564t-526.5 -644h-160zM313 -2l1174 1438h-457l-1173 -1438h456zM-33 -252l-217 199l1258 1540h585l193 -211l-1247 -1528h-572z" />
<glyph unicode="0" horiz-adv-x="2224" d="M909 238q124 0 224 26t178 81t121 149.5t43 222.5q0 110 -31 194.5t-84.5 137.5t-131 86.5t-162.5 47t-189 13.5q-123 0 -223 -26t-178.5 -81t-121.5 -149.5t-43 -222.5q0 -111 31 -195t84 -137.5t130.5 -87t163 -46.5t189.5 -13zM877 352q-96 0 -174 19t-142 60 t-99.5 114t-35.5 172q0 86 27 151.5t70.5 105t108 64.5t131 34t146.5 9q75 0 140 -11.5t123 -38t99 -67.5t65 -104t24 -143q0 -87 -26.5 -152.5t-70 -105.5t-108 -64.5t-131 -33.5t-147.5 -9zM182 717q0 137 37 242.5t101 173t157.5 110.5t198.5 60.5t233 17.5 q122 0 225 -20.5t191 -66t149 -114.5t95.5 -171.5t34.5 -231.5q0 -137 -37 -242.5t-101 -173t-157.5 -110.5t-198.5 -60.5t-233 -17.5q-122 0 -225 20.5t-191 66t-149 114.5t-95.5 171.5t-34.5 231.5zM68 717q0 -160 41.5 -284t114.5 -205.5t180.5 -133.5t231 -74t273.5 -22 q145 0 266 24.5t222.5 79.5t172 138t109.5 204t39 273q0 160 -41.5 284t-114.5 205.5t-180.5 133.5t-231 74t-273.5 22q-145 0 -266 -24.5t-222.5 -79.5t-172 -138t-109.5 -204t-39 -273zM16 717q0 203 63 353.5t179.5 240.5t270.5 133t348 43q255 0 440.5 -57t327.5 -191 q97 -96 162 -187.5t99.5 -182t48 -173.5t13.5 -184q0 -202 -62.5 -351t-178 -238.5t-268 -132t-345.5 -42.5q-98 0 -170.5 5.5t-160.5 25.5t-164 56.5t-164.5 99.5t-178.5 153q-123 91 -191.5 252.5t-68.5 376.5zM877 403q73 0 132 7.5t116.5 29t96.5 55.5t63 90.5t24 131.5 q0 46 -13 90q-82 24 -182 24q-93 0 -165.5 -14t-137 -47.5t-100 -98.5t-35.5 -159q0 -57 6 -82q88 -27 195 -27z" />
<glyph unicode="1" horiz-adv-x="1003" d="M72 1229l207 92h94v-1208h-123v1052l-178 -78v142zM-39 915l176 76v-993h348v1438h-225l-299 -136v-385zM-90 838v495l338 154h289l198 -211v-1528h-438l-211 199v731z" />
<glyph unicode="2" horiz-adv-x="2019" d="M219 1083q211 256 643 256q70 0 141 -12.5t142 -41t125.5 -70.5t88.5 -106t34 -142q0 -82 -27 -159t-68 -136.5t-107.5 -118t-126.5 -99.5t-145.5 -85t-144.5 -70.5t-141 -60.5h813v-125h-1286v112q81 13 172.5 35t201 58.5t211.5 80.5t199 104t169 127t115.5 152 t43.5 176q0 65 -32.5 114t-80.5 75.5t-114 43t-120.5 21.5t-113.5 5q-136 0 -262 -55.5t-211 -157.5zM362 848q173 254 469 254q44 0 90 -5t104 -18t95 -44.5t37 -76.5q0 -108 -86.5 -208t-216.5 -171t-285 -127t-289.5 -86t-232.5 -38v-330h1512v354h-459q181 99 294 260 t113 355q0 109 -43.5 195t-112.5 139.5t-162.5 89t-186.5 49.5t-191 14q-225 0 -426.5 -106t-325.5 -291zM207 -252l-211 199v428q86 6 203 29t254.5 65.5t260.5 96t223.5 128.5t141.5 156q-16 2 -43 2q-270 0 -456 -270l-377 258l-213 202q145 215 365 339t456 124 q195 0 377 -59.5t291 -179.5q163 -163 220.5 -275t57.5 -229q0 -209 -129 -391l180 -178v-445h-1601z" />
<glyph unicode="3" horiz-adv-x="2105" d="M334 430q44 -56 96 -95t101.5 -61.5t113.5 -35t119 -16t131 -3.5q62 0 129.5 12t137.5 38t115.5 77t45.5 119q0 32 -13 59t-31.5 46t-50.5 34.5t-60 25t-70.5 16t-69.5 9.5t-70.5 5t-61.5 2h-52v120q61 -1 122.5 5t137 23.5t123 60t47.5 104.5q0 59 -34.5 104t-85 70 t-118 40.5t-121 20t-106.5 4.5q-138 0 -263.5 -54.5t-211.5 -158.5q-72 49 -115 74q59 80 134.5 134t163 81.5t172.5 38t190 10.5q67 0 137 -12.5t140 -41t124.5 -69.5t88.5 -103.5t34 -137.5q0 -68 -48 -123.5t-114 -84t-133 -32.5q57 -6 115 -25t111 -51t86.5 -82.5 t33.5 -111.5q0 -68 -23.5 -124t-61.5 -94t-93 -66.5t-111 -44.5t-123 -26t-120.5 -13t-112.5 -3q-176 0 -332.5 66.5t-255.5 197.5zM63 387q78 -121 172 -202t206 -124.5t227 -61t262 -17.5q88 0 176.5 17.5t172 56.5t147 94t102.5 136.5t39 178.5q0 79 -57.5 156.5 t-131.5 115.5q56 24 98 98t42 140q0 109 -45.5 194.5t-116.5 137.5t-167.5 86t-189 46.5t-190.5 12.5q-229 0 -426.5 -106.5t-321.5 -298.5l301 -201q168 256 486 256q36 0 81.5 -5t102 -17t94 -39.5t37.5 -65.5q0 -15 -12 -27t-35.5 -20t-50 -14.5t-62.5 -10t-65.5 -5.5 t-67 -2.5t-59 -1t-49.5 0t-31 0.5v-346q4 0 47 1t79 0.5t90.5 -2t96.5 -7t82 -14.5t62 -25t22 -37q0 -133 -394 -133h-7q-134 0 -250.5 67.5t-193.5 182.5zM-8 401l385 250l168 -178q126 -90 262 -90l-127 115v204q-47 -42 -100 -122l-375 249l-215 203q144 224 359.5 347.5 t459.5 123.5q201 0 386.5 -58.5t295.5 -182.5q162 -161 219 -270t57 -222q0 -114 -94 -219l8 -6q61 -61 98.5 -136t37.5 -149q0 -106 -41.5 -195t-110 -149t-158 -102.5t-183.5 -62t-189 -19.5q-249 0 -436 59t-339 211q-160 146 -236 229t-132 170z" />
<glyph unicode="4" horiz-adv-x="2060" d="M1079 557v608q-417 -348 -741 -608h741zM657 668q58 47 163.5 136.5t146.5 123.5v-260h-310zM154 537q391 319 954 784h100v-764h174v-127h-174v-317h-129v317h-925v107zM39 315h928v-317h352v317h178v353h-178v768h-254l-1026 -848v-273zM-12 264v346l1059 877h323 l199 -211v-590l178 -178v-442h-178v-318h-443l-211 199v119h-716z" />
<glyph unicode="5" horiz-adv-x="2125" d="M778 217q43 0 86 2.5t96 11t100 21t93 35t79 51.5t53 71t20 93q0 58 -14 104.5t-37.5 78.5t-60 56t-74.5 38t-87.5 22t-94.5 11t-99 3q-389 0 -521 -113l-110 17l131 602h1010v-104h-914q-66 -242 -86 -390q153 93 490 93q71 0 130 -4t122 -15.5t112 -30.5t94 -51 t74 -74.5t46.5 -103t17.5 -135.5t-34.5 -142.5t-91 -115.5t-127.5 -83.5t-145.5 -53t-142.5 -17.5h-121q-405 0 -588 242l113 74q85 -107 206 -150t275 -43zM344 547l-303 -195q62 -98 137 -167t149.5 -108.5t172.5 -61.5t185 -28.5t208 -6.5q86 0 177 23.5t176 69.5 t152 108t107.5 147t40.5 178t-19 168.5t-52.5 129.5t-84.5 95t-109 66.5t-132 41t-148 21.5t-163 6q-194 0 -342 -53q5 20 13 60t13 61h940v334h-1216l-176 -815l288 -37q100 116 480 116q44 0 76.5 -2t77.5 -7.5t76.5 -19t61 -34.5t45 -55.5t15.5 -79.5q0 -33 -17.5 -60 t-44.5 -44.5t-66.5 -30.5t-75 -19.5t-79.5 -10t-71.5 -4.5t-57.5 -1q-295 0 -434 215zM317 -25q-151 139 -221 219t-129 175l158 100l-119 106l197 912h1310l199 -211v-424h-203q170 -170 228.5 -287.5t58.5 -263.5q0 -101 -43 -192.5t-115 -159t-162.5 -118t-188 -76 t-189.5 -25.5q-128 0 -222.5 8.5t-198 33t-193 75t-167.5 128.5zM1042 451q-242 0 -374 -60q47 -8 110 -8q260 0 334 66q-25 2 -70 2z" />
<glyph unicode="6" horiz-adv-x="2121" d="M934 1038q-263 0 -397 -106q162 186 385 186q146 0 257 -23t203 -91l250 213q-145 132 -318.5 184.5t-393.5 52.5q-250 0 -439.5 -94t-296 -276t-106.5 -431q0 -671 913 -671q86 0 177.5 23t176 69t152 108t108 146.5t40.5 177.5q0 131 -38.5 227.5t-101.5 154t-158.5 92 t-192 46.5t-220.5 12zM936 700q38 0 65.5 -1t67 -5t67.5 -11.5t59 -22.5t50.5 -35t32 -51t12.5 -70q0 -46 -38 -81.5t-94 -54t-108.5 -27.5t-93.5 -9h-86q-42 0 -93 6.5t-110.5 22.5t-108.5 39.5t-82.5 61.5t-35.5 85q113 153 496 153zM330 553q0 -58 24 -107t63.5 -83 t94 -60t111 -41.5t119.5 -25.5t114 -13.5t100 -3.5q51 0 109 10t119 32.5t109.5 54.5t80 81t31.5 107q0 67 -18 118.5t-53 85t-76.5 55.5t-98.5 33t-108 15t-115 4q-52 0 -147 -17t-200.5 -48t-182 -83.5t-76.5 -113.5zM1370 1139q-65 52 -193 72t-255 20 q-150 0 -279.5 -60.5t-213 -177.5t-93.5 -268q109 92 277.5 146.5t320.5 54.5q71 0 130.5 -4.5t122.5 -16t112 -31t93.5 -52t74 -75.5t46.5 -104.5t17 -136.5t-34.5 -142.5t-90.5 -115.5t-127 -83.5t-145 -53t-142 -17.5h-121q-135 0 -254.5 33.5t-216 99.5t-153 175.5 t-56.5 250.5q0 161 53.5 291.5t150 217t231 133t295.5 46.5q175 0 304.5 -24.5t237.5 -102.5zM1708 1214l197 -204l-246 -209l96 -96q139 -139 139 -404q0 -101 -43 -192.5t-115 -158.5t-162.5 -117t-188 -75.5t-189.5 -25.5q-576 0 -807 231q-145 127 -224.5 237 t-108.5 212.5t-29 240.5q0 265 113 459t314 293.5t466 99.5q228 0 419.5 -65t368.5 -226zM1141 451q-230 0 -363 -62q52 -6 92 -6h86q59 0 136.5 16.5t117.5 49.5q-25 2 -69 2z" />
<glyph unicode="7" horiz-adv-x="2052" d="M193 1321h1265v-104q-149 -137 -280 -314.5t-226 -390t-110 -399.5h-125q8 146 53.5 296t120 288t160.5 260t190 239h-1048v125zM82 1081h907q-182 -238 -284.5 -517.5t-102.5 -565.5h348q5 206 92 429.5t224.5 412t302.5 325.5v271h-1487v-355zM31 1030v457h1589 l199 -211v-336q-125 -104 -234 -237t-194 -285.5t-134 -326.5t-49 -343h-446l-211 199q0 483 213 884h-522z" />
<glyph unicode="8" horiz-adv-x="2072" d="M862 782q44 0 90 3.5t106 16.5t105.5 33t77 57t31.5 85q0 237 -506 237q-48 0 -99.5 -6t-111 -22.5t-105.5 -41.5t-77 -68.5t-31 -98.5q0 -48 31.5 -85t77 -57t105.5 -33t106 -16.5t90 -3.5h110zM752 895q-30 0 -69 2.5t-96 9.5t-94.5 25.5t-37.5 44.5q0 38 36.5 65 t92.5 39t100.5 16.5t81.5 4.5h82q37 0 81.5 -4.5t100.5 -16.5t92.5 -39t36.5 -65q0 -26 -37.5 -44.5t-94.5 -25.5t-96 -9.5t-69 -2.5h-110zM895 219q63 0 129.5 11t137.5 36t116 75t45 118q0 52 -33 91t-79.5 59.5t-110 33t-110.5 16t-95 3.5h-176q-48 0 -95 -3.5 t-110.5 -16t-110 -33t-79.5 -59.5t-33 -91q0 -68 45 -118t116 -75t137.5 -36t129.5 -11h176zM895 332h-176q-29 0 -62.5 2.5t-80 10.5t-82.5 21t-62 37.5t-26 55.5q0 21 18.5 37t51 25.5t65.5 15.5t73.5 8.5t61.5 3t43 0.5h176q22 0 43 -0.5t61.5 -3t73.5 -8.5t65.5 -15.5 t51 -25.5t18.5 -37q0 -31 -26 -55.5t-62 -37.5t-82.5 -21t-80 -10.5t-62.5 -2.5zM686 94q-68 0 -137.5 11.5t-140 38.5t-124.5 67t-88 102t-34 138q0 57 52.5 127t126 118t130.5 49q-88 2 -174 74t-86 158q0 76 34.5 138.5t89 103t125 68.5t140 40t137.5 12h140 q68 0 137.5 -12t140 -40t125 -68.5t89 -103t34.5 -138.5q0 -90 -84 -161t-176 -71q63 -1 136 -46t123 -114.5t50 -133.5q0 -76 -34 -138t-88 -102t-124.5 -67t-140 -38.5t-137.5 -11.5h-242zM686 -18h242q88 0 175 16.5t171 53t148.5 89.5t103.5 133.5t39 176.5 q0 87 -48 162t-126 128q59 38 93 101.5t34 134.5q0 87 -27.5 158t-72 119.5t-109.5 85t-132 57.5t-148 34t-149 17t-143 4q-89 0 -177 -16.5t-172.5 -54t-148.5 -91.5t-103.5 -135t-39.5 -178q0 -71 34 -134.5t93 -101.5q-77 -53 -125.5 -128.5t-48.5 -161.5 q0 -96 39 -176.5t103.5 -133.5t148.5 -89.5t171 -53t175 -16.5zM322 -80q-189 168 -256.5 283.5t-67.5 247.5q0 164 143 290q-96 103 -96 236q0 108 42.5 197.5t112 149t160.5 101t186 60t191 18.5h10q104 0 162.5 -2.5t167 -21.5t187.5 -55t178.5 -109t185.5 -178 q59 -59 99 -160t40 -205q0 -137 -98 -235l31 -29q115 -115 115 -262q0 -106 -42 -194t-110.5 -146t-158.5 -98.5t-183.5 -58t-187.5 -17.5h-242q-161 0 -317 46t-252 142zM416 199v-4q2 0 4 -2z" />
<glyph unicode="9" horiz-adv-x="2154" d="M788 397q111 0 218.5 25t179.5 82q-163 -187 -385 -187q-146 0 -257.5 23.5t-203.5 91.5l-250 -213q145 -132 319 -184.5t394 -52.5q250 0 439.5 93.5t296 275.5t106.5 431q0 672 -914 672q-86 0 -177 -23t-176 -69t-152 -108t-107.5 -146.5t-40.5 -177.5 q0 -94 20 -170.5t54 -131.5t86.5 -96t110.5 -66.5t132.5 -41t147 -21.5t159.5 -6zM786 735q-37 0 -65 1t-67 5.5t-67.5 12t-59.5 22t-50.5 35t-32 51.5t-12.5 70q0 46 38 81.5t94 54t108.5 27.5t93.5 9h86q42 0 93 -6.5t110.5 -22.5t108.5 -39.5t82.5 -61.5t35.5 -85 q-45 -62 -140.5 -98.5t-178.5 -46t-177 -9.5zM1393 883q0 81 -46 143t-114 97t-157.5 57.5t-163.5 29.5t-146 7q-51 0 -109 -10t-119 -32.5t-109.5 -54.5t-80 -81t-31.5 -107q0 -67 18 -118.5t53 -85t76.5 -55.5t98.5 -33t108 -15t115 -4q52 0 147 17t201 48t182.5 83.5 t76.5 113.5zM352 297q65 -52 193.5 -72t255.5 -20q150 0 279 60.5t212.5 177.5t93.5 268q-109 -92 -277.5 -146.5t-320.5 -54.5q-71 0 -130.5 4.5t-122 16t-111.5 31t-93.5 52t-74 75.5t-46.5 104.5t-17 136.5q0 93 52 173t133 130.5t174 79t179 28.5h121q135 0 254.5 -33.5 t216 -99.5t153 -175.5t56.5 -250.5q0 -215 -93 -372t-256.5 -236.5t-379.5 -79.5q-175 0 -305 24.5t-238 102.5zM227 16q-77 75 -126.5 122.5t-65.5 62.5t-21 20l248 213l-33 35q-202 139 -202 461q0 103 40 195t108.5 160t158 118.5t191.5 76t206 25.5q90 0 151 -2t141 -11 t139.5 -25.5t132.5 -46t135.5 -72t132 -104.5t137.5 -142q85 -85 139.5 -225.5t54.5 -298.5q0 -263 -112 -455.5t-311.5 -291.5t-462.5 -99q-227 0 -417 63t-364 221zM786 786q243 0 365 60q-47 8 -94 8h-86q-61 0 -137 -17t-117 -51h69z" />
<glyph unicode=":" horiz-adv-x="708" d="M98 913v117h127v-117h-127zM338 801v344h-352v-344h352zM98 102v117h127v-117h-127zM338 -12v344h-352v-344h352zM145 -262l-211 199v446h455l199 -211v-434h-443zM145 551l-211 199v446h455l199 -211v-434h-443z" />
<glyph unicode=";" horiz-adv-x="708" d="M53 -125q31 66 42 159t1 173h129v-160l-98 -172h-74zM193 -238l145 254v306h-356q17 -129 -4 -284.5t-72 -275.5h287zM94 901v121h129v-121h-129zM336 793v342h-356v-342h356zM43 -487l-215 198q134 321 96 662h465l199 -211v-363l-164 -286h-381zM139 543l-211 198v445 h459l199 -211v-432h-447z" />
<glyph unicode="&#x3c;" horiz-adv-x="1355" d="M637 1321h160l-492 -604q183 -216 492 -604h-160l-494 606zM-2 719l586 -721h456q-54 66 -184 222.5t-224 271.5t-179 225l585 719h-454zM-68 719l629 768h584l192 -211l-622 -764q96 -122 385 -471l241 -293h-575l-207 199z" />
<glyph unicode="=" horiz-adv-x="1894" d="M135 500h1012v-123h-1012v123zM20 264h1242v348h-1242v-348zM135 1057h1012v-123h-1012v123zM20 821h1242v348h-1242v-348zM-31 770v451h1344l198 -211v-439h-118l118 -118v-439h-1331l-211 199v451h119z" />
<glyph unicode="&#x3e;" horiz-adv-x="1355" d="M842 719q-73 -91 -156 -192.5t-183 -222.5t-157 -191h-158q96 115 268 329t222 275q-237 287 -490 604h158zM401 1436h-454q116 -140 330 -405.5t253 -313.5l-585 -719h456l586 721zM424 1487l203 -211l622 -762l-620 -766h-574l-217 199l627 770q-490 606 -627 770h586z " />
<glyph unicode="?" horiz-adv-x="2084" d="M686 113v120h129v-120h-129zM211 1087q72 99 186.5 162.5t231.5 88t248 24.5q69 0 137 -12t135 -39.5t118.5 -68t83 -103t31.5 -138.5q0 -61 -27.5 -114.5t-72.5 -94.5t-100 -79.5t-112.5 -76t-107 -76.5t-86 -89t-47.5 -106h-137q7 68 41.5 127t84 101.5t107.5 82 t114.5 76t103.5 74t75.5 86.5t28.5 104q0 56 -33 98.5t-80.5 66t-111 38.5t-114.5 19.5t-101 4.5q-134 0 -257 -64t-212 -173zM930 0l-1 156q-1 155 1 155q1 47 32.5 89.5t81.5 78t110.5 72.5t120.5 80.5t110 93t81 119.5t31 151q0 91 -30 164t-83.5 122t-119.5 84 t-146.5 53.5t-155.5 27t-155 8.5q-147 0 -291 -47t-267.5 -140t-195.5 -218l305 -183q192 264 486 264q36 0 77 -5.5t89.5 -18t80 -40.5t31.5 -67q0 -49 -30.5 -88.5t-79 -69t-107 -59.5t-117.5 -70t-107.5 -90t-79 -130t-30.5 -181v-311h359zM197 827l-213 201 q117 229 339.5 353t483.5 124q63 0 103 -1.5t105 -8.5t113 -20.5t112.5 -39.5t120 -63t119 -94t124.5 -129q60 -60 101.5 -159.5t41.5 -198.5q0 -70 -23 -134t-55.5 -110.5t-85.5 -94t-95 -77t-102 -66.5q-55 -36 -79 -52t-60.5 -45.5t-51 -54.5t-15.5 -51v-356h-449 l-211 199v362q0 67 13 126t31 102.5t51 84.5t60 67t72.5 56.5t72.5 46t75 40.5q15 8 41.5 21.5t32.5 16.5q-220 -35 -394 -270z" />
<glyph unicode="@" horiz-adv-x="2580" d="M1116 539h-158q-58 0 -112.5 18.5t-94.5 62t-40 103.5t39.5 105.5t94.5 66t113 20.5h158q84 0 135.5 -54t51.5 -138q0 -76 -55 -130t-132 -54zM1116 424q132 0 214.5 83.5t82.5 215.5q0 133 -82.5 219t-214.5 86h-158q-73 0 -136.5 -18.5t-113.5 -55t-79 -96t-29 -135.5 q0 -84 26 -143.5t75.5 -93t112 -48t144.5 -14.5h158zM1595 217q-77 -62 -153 -83t-187 -21h-358q-122 0 -224.5 20.5t-190 66t-148.5 114.5t-95 171.5t-34 231.5t34 231.5t95 171.5t148.5 114.5t190 66t224.5 20.5h262q114 0 219.5 -24t196.5 -75t158.5 -123t106 -174 t38.5 -223q0 -292 -154 -292q-100 0 -139 21t-65 104q-18 -36 -42 -65.5t-48 -50.5t-58.5 -37.5t-61.5 -27.5t-69 -18.5t-68.5 -11t-73.5 -5.5t-70 -2h-71q-104 0 -189.5 21.5t-154 68t-107 127t-38.5 189.5q0 64 13 117t34 92t56 70t69.5 51t84.5 34.5t91.5 22.5t99.5 12 t99 5t100 1q106 0 190.5 -27.5t151 -93t94.5 -165.5q3 -10 15 -93.5t32.5 -141.5t53.5 -58q46 0 66 35t20 84q0 17 -4 45v-4q-40 516 -576 516h-262q-121 0 -224 -32t-181 -93.5t-122 -159.5t-44 -223t44 -223t122 -159.5t181 -93.5t224 -32h262q200 0 324 67zM1663 305 q27 -8 61 -8q58 0 102.5 16.5t73 48t48 68.5t29 86.5t13 92.5t3.5 96q0 146 -43 267t-119 206t-181 143.5t-228.5 86.5t-262.5 28h-262q-182 0 -326.5 -40.5t-253.5 -124t-168 -224t-59 -330.5t59 -330.5t168 -224t253.5 -124t326.5 -40.5h262q211 0 356.5 45t272.5 178z M401 -25q-92 78 -156 150.5t-104 139t-63 141t-31 146t-8 165.5q0 203 62.5 353.5t178.5 240.5t269.5 133t347.5 43h262q99 0 183.5 -10t179.5 -38t181 -74t178.5 -122t180.5 -178q181 -181 181 -565q0 -61 -4.5 -111.5t-18 -107t-36.5 -98.5t-62.5 -75.5t-93.5 -48.5 l34 -34q-82 -86 -165 -142.5t-172 -85t-171.5 -39t-189.5 -10.5h-262q-215 0 -402.5 58t-298.5 169zM1116 590q40 0 73 21t48 55h-74q-52 0 -101.5 -20.5t-76.5 -55.5h131z" />
<glyph unicode="A" horiz-adv-x="2590" d="M713 557h874l-432 612zM1151 975l215 -307h-434zM2046 113h-154l-221 317h-1046q-38 -52 -112 -158.5t-112 -158.5h-163q92 129 396.5 552t467.5 656h98zM1262 1436h-215l-1024 -1438h434l225 317h926l223 -317h434zM1288 1487l203 -211l1065 -1528h-545l-207 199 l-84 119h-809q-218 -307 -225 -318h-547l-217 199l1098 1540h268z" />
<glyph unicode="B" horiz-adv-x="2281" d="M303 778h875q51 0 96.5 11.5t84 35.5t61 65t22.5 95q0 108 -74.5 159.5t-187.5 51.5h-877v-418zM418 1081h762q58 0 103.5 -22t45.5 -74q0 -34 -27 -56.5t-59 -30t-65 -7.5h-760v190zM303 238h985q71 0 130 20t100 69.5t41 121.5q0 97 -72.5 151.5t-173.5 54.5h-1010 v-417zM418 543h895q49 0 90 -24t41 -70q0 -53 -48 -75t-108 -22h-870v191zM180 1321h1000q179 0 284.5 -82t108.5 -254q1 -90 -69.5 -165.5t-129.5 -78.5q117 -10 214.5 -93.5t97.5 -198.5q0 -90 -30.5 -156t-86 -104.5t-125.5 -57t-156 -18.5h-1108v1208zM66 -2h1222 q113 0 205 26t161.5 79.5t107.5 141t38 204.5q0 103 -57 182.5t-168 126.5q48 39 79.5 105t31.5 122q0 226 -135.5 338.5t-370.5 112.5h-1114v-1438zM14 -53v1540h1166q191 0 339 -64t273 -213q44 -52 77 -126t49.5 -154t1 -160t-66.5 -133q50 -19 90 -67.5t62 -107.5 t33.5 -115.5t11.5 -102.5q0 -129 -41.5 -225.5t-117 -155t-175 -87t-223.5 -28.5h-1268z" />
<glyph unicode="C" horiz-adv-x="2414" d="M883 1196q-124 0 -224 -26t-179 -81t-122 -149.5t-43 -222.5q0 -104 28.5 -185.5t79 -136t123 -90.5t155.5 -51.5t182 -15.5h223q340 0 514 198l131 -82q-44 -62 -103 -107t-119 -70t-136 -40t-140.5 -19.5t-146.5 -4.5h-223q-155 0 -278 33t-219 102.5t-148 188.5 t-52 280t52 280t148 188.5t219 102.5t278 33h223q104 0 184 -8.5t169.5 -32t163 -74.5t128.5 -127l-131 -82q-175 199 -514 199h-223zM1106 1081q320 0 479 -231l326 192q-55 94 -123 163.5t-141 113t-163 70.5t-179.5 37t-198.5 10h-223q-145 0 -266.5 -24.5t-223 -79.5 t-172.5 -138t-110 -204t-39 -273t39 -273t110 -204t172.5 -138t223 -79.5t266.5 -24.5h223q138 0 246.5 17t213.5 59.5t191 121t154 195.5l-326 193q-160 -232 -479 -232h-223q-76 0 -141 11t-123.5 38t-99.5 68t-65 104t-24 144q0 80 24 143t65.5 104t100 67.5t123.5 38 t140 11.5h223zM379 -29q-114 100 -186 189t-109.5 180.5t-50.5 176t-13 200.5q0 163 41.5 292.5t116.5 218.5t183.5 147.5t238 85t283.5 26.5h223q67 0 115 -2t108.5 -7.5t108.5 -18t105 -32.5t109 -50.5t109 -72t116.5 -99t121.5 -128.5q69 -69 178 -256l-399 -235 l-156 155q-139 90 -311 90h-224q-85 0 -155.5 -16.5t-128.5 -52.5t-90.5 -99.5t-32.5 -150.5q0 -49 8 -82q86 -27 195 -27h223q294 0 467 248l409 -241l195 -207q-64 -108 -139.5 -188.5t-155 -131t-175 -81.5t-189 -42.5t-207.5 -11.5h-224q-217 0 -407 56.5t-301 166.5z " />
<glyph unicode="D" horiz-adv-x="2377" d="M307 238h729q124 0 224.5 25.5t179.5 80.5t122.5 149.5t43.5 223.5t-43.5 223.5t-122.5 149.5t-179.5 80.5t-224.5 25.5h-729v-958zM418 1081h618q97 0 175.5 -18.5t144.5 -58.5t102.5 -113t36.5 -174q0 -82 -24.5 -145.5t-66 -104.5t-101 -67.5t-125 -37t-142.5 -10.5 h-618v729zM182 1321h854q122 0 225.5 -20t192 -65.5t150 -114.5t96.5 -171.5t35 -232.5t-35 -232.5t-96.5 -171.5t-150 -114.5t-192 -65.5t-225.5 -20h-854v1208zM70 -2h966q145 0 266 24.5t223.5 79t173 137.5t109.5 204t39 274t-39 274t-109.5 204t-173 137.5t-223.5 79 t-266 24.5h-966v-1438zM18 -53v1540h1018q87 0 153 -4.5t143.5 -17.5t144 -39.5t138.5 -67.5t143.5 -104.5t144.5 -147.5q92 -92 143 -250t51 -344q0 -163 -41.5 -291.5t-115.5 -216.5t-182 -146t-236 -84t-281 -26h-1012zM668 831v-428h368q68 0 126 9t111 32t90 58 t59 89.5t22 125.5q0 45 -10 90q-88 24 -193 24h-573z" />
<glyph unicode="E" horiz-adv-x="2189" d="M295 778h1042v-123h-1042v-417h1255v-125h-1382v1208h1380v-125h-1253v-418zM408 1081h1255v355h-1610v-1438h1612v354h-1257v191h1042v348h-1042v190zM213 -252l-211 199v1540h1712l199 -211v-445h-314l101 -100v-328l215 -210v-445h-1702z" />
<glyph unicode="F" horiz-adv-x="2164" d="M295 778h1042v-123h-1042v-542h-127v1208h1380v-125h-1253v-418zM408 1081h1255v355h-1610v-1438h355v545h1042v348h-1042v190zM213 -252l-211 199v1540h1712l199 -211v-445h-314l101 -100v-438h-1043v-545h-444z" />
<glyph unicode="G" horiz-adv-x="2557" d="M1542 1073q-164 123 -434 123h-223q-123 0 -223 -26t-178.5 -81t-121.5 -149.5t-43 -222.5t43 -222.5t121 -149.5t178 -81t224 -26h223q111 0 205 23.5t173 72.5t134.5 130.5t79.5 190.5h-565v123h708v-61q0 -111 -26.5 -202t-76 -156.5t-116 -113.5t-150 -76.5t-174 -42 t-192.5 -13.5h-223q-154 0 -277.5 33t-219 103t-148 188.5t-52.5 279.5t52.5 279.5t148 188.5t219 103t277.5 33h223q181 0 319.5 -31t247.5 -123zM1849 1139q-70 91 -153.5 151.5t-180.5 91.5t-191.5 42.5t-215.5 11.5h-223q-182 0 -326.5 -40.5t-253.5 -124t-168 -224 t-59 -330.5t59 -330.5t168 -224t253.5 -124t326.5 -40.5h223q145 0 269 23.5t232.5 77.5t184 136t119 204.5t43.5 277.5v174h-936v-348h532q-41 -71 -119.5 -115.5t-157 -60t-167.5 -15.5h-223q-76 0 -141 11t-123.5 38t-99.5 68t-65 104t-24 144q0 80 24 143t65.5 104 t100 67.5t123.5 38t140 11.5h223q270 0 428 -166zM406 -33q-114 98 -188.5 185.5t-116.5 179t-58 180.5t-16 205q0 203 62.5 353.5t178.5 240.5t269.5 133t347.5 43h223q100 0 175.5 -5.5t163.5 -24.5t159 -52t146 -91.5t142 -139.5q46 -46 82 -83.5t60 -65t36.5 -43 t27.5 -35.5t18 -23l-62 -43l150 -150v-219q0 -164 -45.5 -294.5t-125.5 -217.5t-194 -144.5t-244.5 -82.5t-283.5 -25h-223q-216 0 -395 54.5t-289 164.5zM969 492v327q-132 -20 -209.5 -95t-77.5 -212q0 -49 8 -82q85 -27 195 -27h184z" />
<glyph unicode="H" horiz-adv-x="2183" d="M1438 113v542h-1143v-542h-125v1208h125v-543h1143v543h127v-1208h-127zM1679 -2v1438h-356v-545h-913v545h-355v-1438h355v545h913v-545h356zM659 1276v-334h613v545h459l198 -211v-1528h-446l-211 199v346h-613v-545h-444l-211 199v1540h457z" />
<glyph unicode="I" horiz-adv-x="964" d="M152 113v1208h122v-1208h-122zM387 -2v1438h-348v-1438h348zM199 -252l-211 199v1540h450l199 -211v-1528h-438z" />
<glyph unicode="J" horiz-adv-x="2215" d="M879 238q124 0 223.5 26t178 81t121 149.5t42.5 222.5v604h131v-604q0 -105 -21 -190.5t-58 -147.5t-92.5 -109t-118.5 -76.5t-143 -48t-160 -25.5t-175 -7q-82 0 -146.5 4.5t-140.5 19.5t-136 40t-119.5 70t-104.5 107l135 82q54 -64 121.5 -105.5t148 -60.5 t150.5 -25.5t164 -6.5zM807 352q-321 0 -481 232l-322 -193q43 -75 94 -134.5t103.5 -100.5t117 -70t124 -46t137 -26.5t144 -12.5t155.5 -3q182 0 326.5 40.5t253.5 124t168 224t59 330.5v719h-355v-719q0 -68 -16 -122.5t-42 -92.5t-67 -65.5t-83.5 -43.5t-98.5 -25.5 t-105.5 -12.5t-111.5 -3zM807 403q80 0 141 5.5t126.5 25t108 52.5t70 91.5t27.5 139.5v770h457l198 -211v-764q0 -202 -62 -351t-177.5 -238.5t-267.5 -132t-345 -42.5q-102 0 -179 4t-167.5 18.5t-162 39.5t-145.5 69t-136 105q-155 143 -225 230t-134 198l404 239 q49 -74 121 -137q143 -111 348 -111z" />
<glyph unicode="K" horiz-adv-x="2402" d="M172 113v1208h125v-520l1018 520h209l-1196 -604q197 -103 591 -302t590 -302h-194l-1018 518v-518h-125zM412 -2v446l870 -446l637 2q-260 134 -732.5 384t-631.5 333l1382 719h-655q-169 -89 -483.5 -249.5t-386.5 -197.5v447h-353v-1438h353zM2220 1219l-1264 -658 l181 -94q407 -214 829 -432l479 -285l-970 -2l-813 418v-418h-443l-211 199v1540h455l199 -211v-100q82 41 606 311h694z" />
<glyph unicode="L" horiz-adv-x="2091" d="M162 1321h123v-1083h1157v-125h-1280v1208zM49 -2h1505v354h-1155v1084h-350v-1438zM-2 -53v1540h453l198 -211v-873h957l198 -210v-445h-1595z" />
<glyph unicode="M" horiz-adv-x="2496" d="M188 113v1208h107l706 -1049q327 498 709 1049h107v-1208h-127v950l-637 -950h-101l-637 948v-948h-127zM428 -2v690l461 -690h225l463 692v-692h352v1438h-282l-648 -959l-643 959h-280v-1438h352zM381 1487l203 -211l444 -666l594 877h358l199 -211v-1528h-442 l-211 199v76l-185 -275h-270l-207 199l-186 278v-477h-442l-211 199v1540h356z" />
<glyph unicode="N" horiz-adv-x="2162" d="M1389 113l-1104 1013v-1013h-121v1208h104l1100 -1014v1014h123v-1208h-102zM1606 -2v1438h-351v-871l-948 871h-258v-1438h350v872l951 -872h256zM209 -252l-211 199v1540h328l878 -805v805h453l198 -211v-1528h-319l-887 813v-813h-440z" />
<glyph unicode="O" horiz-adv-x="2392" d="M1120 238q124 0 224 26t178 81t121 149.5t43 222.5t-43 222.5t-121.5 149.5t-178.5 81t-223 26h-225q-124 0 -224 -26t-178.5 -81t-121.5 -149.5t-43 -222.5q0 -129 43 -223.5t121.5 -149.5t178.5 -80.5t224 -25.5h225zM1120 352h-225q-76 0 -141 11t-123.5 38t-99.5 68 t-65 104t-24 144q0 80 24 143t65.5 104t100 67.5t123.5 38t140 11.5h225q75 0 140 -11.5t123 -38t99 -67.5t65 -104t24 -143q0 -99 -35.5 -172t-99.5 -114t-142 -60t-174 -19zM199 717q0 161 52 280t147.5 188.5t218.5 102.5t278 33h225q122 0 225 -20.5t191 -66t149 -114.5 t95.5 -171.5t34.5 -231.5t-34.5 -231.5t-95.5 -171.5t-149 -114.5t-191 -66t-225 -20.5h-225q-155 0 -278 33t-218.5 102.5t-147.5 188.5t-52 280zM84 717q0 -152 39 -273t110 -204t172.5 -138t223 -79.5t266.5 -24.5h225q182 0 326.5 40.5t253.5 124t168 224t59 330.5 t-59 330.5t-168 224t-253.5 124t-326.5 40.5h-225q-145 0 -266.5 -24.5t-223 -79.5t-172.5 -138t-110 -204t-39 -273zM33 717q0 163 41.5 292.5t116.5 218.5t183 147.5t237.5 85t283.5 26.5h225q103 0 182 -8t167.5 -32t165 -67t161 -114t170.5 -172q95 -95 153 -249 t58 -333q0 -202 -62 -351t-177.5 -238.5t-267.5 -132t-345 -42.5h-225q-474 0 -686 209q-152 133 -236.5 256.5t-114.5 238t-30 265.5zM1120 403q67 0 124.5 10t109 33t88 58.5t57.5 89.5t21 123q0 46 -13 90q-82 24 -182 24h-225q-85 0 -156 -16.5t-129 -52.5t-90.5 -99.5 t-32.5 -150.5q0 -49 8 -82q86 -27 195 -27h225z" />
<glyph unicode="P" horiz-adv-x="2146" d="M410 1081h759q27 0 50.5 -4t47 -13.5t37 -30t13.5 -48.5q0 -27 -15 -46.5t-39 -29t-48 -14t-48 -4.5h-757v190zM295 778h872q71 0 128.5 19.5t97 68t39.5 119.5q0 108 -74 159.5t-189 51.5h-874v-418zM295 655v-542h-125v1208h999q116 0 202 -33.5t138 -110.5t52 -192 q0 -215 -207 -299v-2q-64 -23 -224.5 -32t-306 -7.5t-321.5 6t-207 4.5zM1675 985q0 226 -135.5 338.5t-370.5 112.5h-1114v-1438h355v545q39 0 204.5 -4.5t292 -6t274.5 10t220 37.5v2q274 116 274 403zM215 -252l-211 199v1540h1165q89 0 159 -12t152 -45.5t166.5 -102 t174.5 -174.5q104 -104 104 -373q0 -317 -303 -448q-137 -49 -514 -49q-289 0 -449 2v-537h-444z" />
<glyph unicode="Q" horiz-adv-x="2600" d="M715 606l430 -254h-248q-96 0 -174.5 19t-143.5 59.5t-101 113.5t-36 173t36 172.5t101 113.5t143.5 59.5t174.5 18.5h223q75 0 140 -11.5t123.5 -38t100 -67.5t65.5 -104t24 -143q0 -111 -60 -221l-204 110h-594zM1284 494l258 -140q68 72 106 168t38 195 q0 128 -43 222.5t-121 149.5t-178 81t-224 26h-223q-123 0 -223 -26.5t-178.5 -81.5t-122 -149.5t-43.5 -221.5q0 -128 43.5 -222.5t122 -149.5t178.5 -81t223 -26h223q56 0 165 22t167 43l-358 193zM201 717q0 161 52 280t147.5 188.5t218.5 102.5t278 33h223 q154 0 277.5 -33t219 -103t148 -188.5t52.5 -279.5q0 -185 -154 -412l356 -192h-172l-243 133q-105 -60 -236 -96.5t-248 -36.5h-223q-155 0 -278 33t-218.5 102.5t-147.5 188.5t-52 280zM86 717q0 -142 31.5 -253.5t80 -186.5t131.5 -128t162 -82t196 -45t208.5 -20 t224.5 -4q118 0 248.5 32.5t237.5 86.5l219 -117h590l-588 346q100 189 100 371q0 143 -31 254.5t-79.5 186.5t-131 128t-160.5 82t-195 44.5t-208.5 19.5t-224.5 4q-145 0 -266.5 -24.5t-223 -79.5t-172.5 -138t-110 -204t-39 -273zM35 717q0 163 41.5 292.5t116.5 218.5 t183 147.5t237.5 85t283.5 26.5q270 0 385 -12q294 -33 501 -182q113 -83 212 -203q86 -86 134 -235t48 -343q0 -124 -57 -279l485 -284l209 -199h-795l-207 111q-109 -52 -239.5 -82.5t-247.5 -30.5q-131 0 -215 2.5t-202.5 13.5t-200.5 32.5t-166.5 62.5t-143.5 100 q-147 124 -226.5 241.5t-107.5 234t-28 282.5zM1102 831q-136 0 -237 -42t-144 -132h600l172 -92q29 79 29 152q0 43 -13 90q-85 24 -184 24h-223z" />
<glyph unicode="R" horiz-adv-x="2365" d="M426 1081h760q37 0 68.5 -6.5t58 -29.5t26.5 -60q0 -27 -15.5 -46.5t-41 -29t-50 -14t-48.5 -4.5h-758v190zM313 778h871q51 0 97.5 11.5t86 35t63 65t23.5 95.5q0 56 -22 98.5t-61 66t-85 35t-100 11.5h-873v-418zM1370 686q-32 -17 -129 -41q88 -104 252.5 -291.5 t210.5 -240.5h-166l-473 542h-752v-542h-127v1208h1000q87 0 157 -19t123.5 -58.5t83 -105t29.5 -153.5q0 -216 -207 -299h-2zM1694 985q0 225 -136.5 338t-371.5 113h-1110v-1438h350v545h586l471 -545h471l-516 592q256 113 256 395zM236 -252l-211 199v1540h1161 q89 0 155.5 -11.5t145 -45t159 -101.5t171.5 -174q60 -60 93.5 -159.5t33.5 -215.5q0 -134 -59 -239t-169 -170q55 -63 250.5 -289t290.5 -334h-590l-207 199l-299 346h-485v-545h-440z" />
<glyph unicode="S" horiz-adv-x="2342" d="M375 393q40 -38 86 -66.5t102.5 -45t100.5 -26.5t114.5 -14t106.5 -4.5t112 -0.5h39q39 0 84 2.5t110.5 9t123.5 21t110.5 35t83.5 54.5t31 76q0 51 -48.5 92t-118 64.5t-154.5 39.5t-151 21.5t-114 5.5h2q-56 2 -121.5 10t-148 24t-157 43t-138 62.5t-101.5 88 t-38 114.5q0 59 28.5 107.5t74 81t108.5 57.5t125.5 39t133 23t123 11.5t101.5 2.5q411 0 621 -164l-109 -78q-105 73 -236.5 96t-304.5 23q-48 0 -99 -3t-123.5 -15.5t-126.5 -32.5t-93 -58.5t-39 -89.5q0 -56 44 -96t118.5 -62t171 -37t203 -26.5t213 -24.5t203 -36 t171 -57t118.5 -91.5t44 -134.5q0 -73 -54.5 -132t-134.5 -93t-179 -57t-179 -31t-143 -8h-153q-99 0 -179 7t-174.5 26t-174.5 61.5t-138 105.5zM82 356q36 -58 80.5 -106t89 -83t103.5 -62t107 -45t118 -30t118 -18.5t125.5 -9.5t122.5 -3.5t125 -0.5q67 0 147 9.5 t172.5 29t177 54.5t154.5 81t112 114t42 148q0 78 -30.5 142.5t-74 107.5t-118.5 77t-135.5 52.5t-155 34t-148 21t-141.5 13.5q-39 3 -57 5q-426 39 -426 112q0 84 395 84q160 0 284 -31.5t212 -121.5l299 200q-51 69 -112.5 121t-132.5 84.5t-139.5 53.5t-154.5 31 t-155 13t-162 3q-69 0 -145.5 -9.5t-162.5 -29t-162.5 -54.5t-139 -81t-99.5 -114t-37 -149q0 -301 519 -409q116 -24 379 -53q8 -1 14 -2q3 0 36.5 -3.5t61.5 -7t71 -9t75.5 -13.5t64 -17.5t48.5 -22.5t17 -28q0 -84 -518 -84q-86 0 -155.5 7.5t-144.5 28t-138.5 62 t-112.5 103.5zM8 373l371 229l-98 100q-154 118 -154 297q0 78 30 145t79.5 116t117 88.5t140.5 65t151.5 42.5t147.5 24t131 7q83 0 140 -1.5t137 -8.5t139.5 -19t132.5 -35.5t131 -57t119.5 -83t113.5 -113.5q59 -59 100.5 -106.5t57.5 -69.5t31.5 -46.5t21.5 -31.5 l-262 -176q2 -1 29 -20t76 -63.5t128 -127.5q50 -51 78.5 -131t28.5 -168q0 -76 -33.5 -142.5t-89 -114.5t-129.5 -87t-152.5 -64t-161.5 -42t-153.5 -24t-130.5 -7q-261 0 -327 4q-293 16 -472 125q-71 43 -131 103q-145 133 -214.5 217.5t-123.5 175.5z" />
<glyph unicode="T" horiz-adv-x="2228" d="M864 113v1083h-686v125h1497v-125h-688v-1083h-123zM1100 -2v1083h688v355h-1722v-355h686v-1083h348zM225 831l-211 199v457h1825l199 -211v-445h-688v-1083h-439l-211 199v884h-475z" />
<glyph unicode="U" horiz-adv-x="2488" d="M190 1321h132v-604q0 -128 42.5 -222.5t121 -149.5t178 -81t223.5 -26h225q123 0 223 26t178.5 81t122 149.5t43.5 222.5v604h129v-604q0 -130 -34.5 -232.5t-96 -171.5t-149.5 -114.5t-191 -65.5t-225 -20h-225q-155 0 -278 33t-219 102.5t-148 188.5t-52 280v604z M78 717q0 -152 39 -273t109.5 -204t172 -138t222.5 -79.5t266 -24.5h225q145 0 266 24.5t222.5 79.5t172 138t109.5 204t39 273v719h-356v-719q0 -81 -24 -144t-65 -104t-99.5 -68t-123.5 -38t-141 -11h-225q-96 0 -174 19t-142 60t-99.5 114t-35.5 172v719h-358v-719z M27 717v770h460l199 -211v-764q0 -57 6 -82q88 -27 195 -27h225q67 0 124.5 9.5t109.5 32.5t88 58.5t57.5 90t21.5 123.5v770h459l199 -211v-764q0 -202 -62.5 -351t-178 -238.5t-268 -132t-345.5 -42.5h-225q-475 0 -678 203q-152 131 -238 255t-117.5 241.5t-31.5 269.5z " />
<glyph unicode="V" horiz-adv-x="2568" d="M1159 113h-98q-144 201 -432.5 604t-431.5 604h163l754 -1057q198 280 737 1057h154zM2224 1436h-434q-438 -634 -680 -977l-694 977h-434l1024 -1438h215zM2320 1487l195 -211l-1065 -1528h-264l-207 199l-1098 1540h602l162 -211l490 -694q280 397 628 905h557z" />
<glyph unicode="W" horiz-adv-x="2899" d="M354 1321l414 -999q76 188 223 529t201 470h100l424 -997q39 93 130.5 309.5t158 377t127.5 310.5h143q-83 -201 -249.5 -603.5t-249.5 -604.5h-105l-428 999l-432 -999h-100q-207 508 -500 1208h143zM43 1436l594 -1438h254q176 421 350 823l352 -823h256l594 1438h-387 q-10 -25 -340 -813l-348 813h-250l-350 -818l-340 818h-385zM-33 1487h494l201 -211l161 -393q189 432 262 604h318l201 -211l165 -393l25 57q5 12 25 57t28 68q87 202 176 422h496l195 -211l-631 -1528h-316l-208 199l-177 409q-151 -348 -258 -608h-311l-209 199z" />
<glyph unicode="X" horiz-adv-x="2701" d="M1284 721l717 -608h-184l-615 540l-604 -540h-180l704 608q-515 439 -708 600h184l606 -535q98 90 596 535h182zM2292 1436h-533q-97 -90 -284.5 -256t-270.5 -242l-563 498h-535l842 -713l-842 -725h535l561 504l572 -504h538l-852 721zM2429 1487l188 -211l-860 -744 l694 -585l189 -199h-680l-553 488q-102 -93 -295 -265t-250 -223h-672l-221 199l887 764l-899 776h702l543 -479l539 479h688z" />
<glyph unicode="Y" horiz-adv-x="2400" d="M915 621l-708 700h180l594 -584l584 584h178l-701 -698v-510h-127v508zM803 -2h354v577l858 861h-495l-541 -545l-549 545h-500l873 -865v-573zM752 -53v604q-117 117 -451 445.5t-496 490.5h646l526 -524l520 524h643l191 -211l-924 -924v-604h-444z" />
<glyph unicode="Z" horiz-adv-x="2119" d="M229 1321h1209v-102l-1055 -981h1120v-125h-1337v102l1059 981h-996v125zM115 1081h825l-887 -817v-266h1563v354h-946l882 815v269h-1437v-355zM63 1030v457h1541l198 -211v-334l-585 -539h450l199 -210v-445h-1653l-211 199v340l590 544h-318z" />
<glyph unicode="[" horiz-adv-x="976" d="M78 1450h368v-119h-241v-1229h241v-118h-368v1466zM-37 -129h598v346h-246v1000h246v346h-598v-1692zM-88 -180v1794h700l199 -211v-436h-246v-699h47l199 -211v-436h-688z" />
<glyph unicode="\" horiz-adv-x="1808" d="M1085 113q-225 272 -987 1208h160q225 -272 987 -1208h-160zM1487 -2l-1174 1438h-456l1173 -1438h457zM1151 -252l-1401 1739h619l1417 -1739h-635z" />
<glyph unicode="]" horiz-adv-x="1054" d="M78 -16v118h244v1229h-244v119h368v-1466h-368zM561 -129v1692h-598v-346h248v-1000h-248v-346h598zM123 967l-211 198v449h700l199 -211v-1782h-688l-211 199v448h248v699h-37z" />
<glyph unicode="^" horiz-adv-x="1380" d="M530 1827l320 -221h-115l-250 180l-252 -180h-112q53 37 159.5 110.5t159.5 110.5h90zM410 1939l-666 -446h528q39 32 112.5 87.5t100.5 76.5l211 -164h529l-664 446h-151zM395 1991h180l816 -549l186 -199h-690l-195 152q-31 -27 -97.5 -75.5t-100.5 -76.5h-693 l-223 199z" />
<glyph unicode="_" horiz-adv-x="2324" d="M170 -76h1434v-125h-1434v125zM57 -313h1659v350h-1659v-350zM6 -365v453h1761l199 -211v-440h-1749z" />
<glyph unicode="`" horiz-adv-x="995" d="M254 1800l258 -192h-141q-50 36 -140.5 103.5t-119.5 88.5h143zM-117 1874l453 -340h416l-443 340h-426zM-270 1925h594l575 -442l188 -199h-563l-571 430z" />
<glyph unicode="a" horiz-adv-x="2590" d="M713 557h874l-432 612zM1151 975l215 -307h-434zM2046 113h-154l-221 317h-1046q-38 -52 -112 -158.5t-112 -158.5h-163q92 129 396.5 552t467.5 656h98zM1262 1436h-215l-1024 -1438h434l225 317h926l223 -317h434zM1288 1487l203 -211l1065 -1528h-545l-207 199 l-84 119h-809q-218 -307 -225 -318h-547l-217 199l1098 1540h268z" />
<glyph unicode="b" horiz-adv-x="2281" d="M303 778h875q51 0 96.5 11.5t84 35.5t61 65t22.5 95q0 108 -74.5 159.5t-187.5 51.5h-877v-418zM418 1081h762q58 0 103.5 -22t45.5 -74q0 -34 -27 -56.5t-59 -30t-65 -7.5h-760v190zM303 238h985q71 0 130 20t100 69.5t41 121.5q0 97 -72.5 151.5t-173.5 54.5h-1010 v-417zM418 543h895q49 0 90 -24t41 -70q0 -53 -48 -75t-108 -22h-870v191zM180 1321h1000q179 0 284.5 -82t108.5 -254q1 -90 -69.5 -165.5t-129.5 -78.5q117 -10 214.5 -93.5t97.5 -198.5q0 -90 -30.5 -156t-86 -104.5t-125.5 -57t-156 -18.5h-1108v1208zM66 -2h1222 q113 0 205 26t161.5 79.5t107.5 141t38 204.5q0 103 -57 182.5t-168 126.5q48 39 79.5 105t31.5 122q0 226 -135.5 338.5t-370.5 112.5h-1114v-1438zM14 -53v1540h1166q191 0 339 -64t273 -213q44 -52 77 -126t49.5 -154t1 -160t-66.5 -133q50 -19 90 -67.5t62 -107.5 t33.5 -115.5t11.5 -102.5q0 -129 -41.5 -225.5t-117 -155t-175 -87t-223.5 -28.5h-1268z" />
<glyph unicode="c" horiz-adv-x="2422" d="M883 1196q-124 0 -224 -26t-179 -81t-122 -149.5t-43 -222.5q0 -104 28.5 -185.5t79 -136t123 -90.5t155.5 -51.5t182 -15.5h223q340 0 514 198l131 -82q-44 -62 -103 -107t-119 -70t-136 -40t-140.5 -19.5t-146.5 -4.5h-223q-155 0 -278 33t-219 102.5t-148 188.5 t-52 280t52 280t148 188.5t219 102.5t278 33h223q104 0 184 -8.5t169.5 -32t163 -74.5t128.5 -127l-131 -82q-175 199 -514 199h-223zM1106 1081q320 0 479 -231l326 192q-55 94 -123 163.5t-141 113t-163 70.5t-179.5 37t-198.5 10h-223q-145 0 -266.5 -24.5t-223 -79.5 t-172.5 -138t-110 -204t-39 -273t39 -273t110 -204t172.5 -138t223 -79.5t266.5 -24.5h223q138 0 246.5 17t213.5 59.5t191 121t154 195.5l-326 193q-160 -232 -479 -232h-223q-76 0 -141 11t-123.5 38t-99.5 68t-65 104t-24 144q0 80 24 143t65.5 104t100 67.5t123.5 38 t140 11.5h223zM379 -29q-114 100 -186 189t-109.5 180.5t-50.5 176t-13 200.5q0 163 41.5 292.5t116.5 218.5t183.5 147.5t238 85t283.5 26.5h223q67 0 115 -2t108.5 -7.5t108.5 -18t105 -32.5t109 -50.5t109 -72t116.5 -99t121.5 -128.5q69 -69 178 -256l-399 -235 l-156 155q-139 90 -311 90h-224q-85 0 -155.5 -16.5t-128.5 -52.5t-90.5 -99.5t-32.5 -150.5q0 -49 8 -82q86 -27 195 -27h223q294 0 467 248l409 -241l195 -207q-64 -108 -139.5 -188.5t-155 -131t-175 -81.5t-189 -42.5t-207.5 -11.5h-224q-217 0 -407 56.5t-301 166.5z " />
<glyph unicode="d" horiz-adv-x="2377" d="M307 238h729q124 0 224.5 25.5t179.5 80.5t122.5 149.5t43.5 223.5t-43.5 223.5t-122.5 149.5t-179.5 80.5t-224.5 25.5h-729v-958zM418 1081h618q97 0 175.5 -18.5t144.5 -58.5t102.5 -113t36.5 -174q0 -82 -24.5 -145.5t-66 -104.5t-101 -67.5t-125 -37t-142.5 -10.5 h-618v729zM182 1321h854q122 0 225.5 -20t192 -65.5t150 -114.5t96.5 -171.5t35 -232.5t-35 -232.5t-96.5 -171.5t-150 -114.5t-192 -65.5t-225.5 -20h-854v1208zM70 -2h966q145 0 266 24.5t223.5 79t173 137.5t109.5 204t39 274t-39 274t-109.5 204t-173 137.5t-223.5 79 t-266 24.5h-966v-1438zM18 -53v1540h1018q87 0 153 -4.5t143.5 -17.5t144 -39.5t138.5 -67.5t143.5 -104.5t144.5 -147.5q92 -92 143 -250t51 -344q0 -163 -41.5 -291.5t-115.5 -216.5t-182 -146t-236 -84t-281 -26h-1012zM668 831v-428h368q68 0 126 9t111 32t90 58 t59 89.5t22 125.5q0 45 -10 90q-88 24 -193 24h-573z" />
<glyph unicode="e" horiz-adv-x="2189" d="M295 778h1042v-123h-1042v-417h1255v-125h-1382v1208h1380v-125h-1253v-418zM408 1081h1255v355h-1610v-1438h1612v354h-1257v191h1042v348h-1042v190zM213 -252l-211 199v1540h1712l199 -211v-445h-314l101 -100v-328l215 -210v-445h-1702z" />
<glyph unicode="f" horiz-adv-x="2164" d="M295 778h1042v-123h-1042v-542h-127v1208h1380v-125h-1253v-418zM408 1081h1255v355h-1610v-1438h355v545h1042v348h-1042v190zM213 -252l-211 199v1540h1712l199 -211v-445h-314l101 -100v-438h-1043v-545h-444z" />
<glyph unicode="g" horiz-adv-x="2516" d="M1542 1073q-164 123 -434 123h-223q-123 0 -223 -26t-178.5 -81t-121.5 -149.5t-43 -222.5t43 -222.5t121 -149.5t178 -81t224 -26h223q111 0 205 23.5t173 72.5t134.5 130.5t79.5 190.5h-565v123h708v-61q0 -111 -26.5 -202t-76 -156.5t-116 -113.5t-150 -76.5t-174 -42 t-192.5 -13.5h-223q-154 0 -277.5 33t-219 103t-148 188.5t-52.5 279.5t52.5 279.5t148 188.5t219 103t277.5 33h223q181 0 319.5 -31t247.5 -123zM1849 1139q-70 91 -153.5 151.5t-180.5 91.5t-191.5 42.5t-215.5 11.5h-223q-182 0 -326.5 -40.5t-253.5 -124t-168 -224 t-59 -330.5t59 -330.5t168 -224t253.5 -124t326.5 -40.5h223q145 0 269 23.5t232.5 77.5t184 136t119 204.5t43.5 277.5v174h-936v-348h532q-41 -71 -119.5 -115.5t-157 -60t-167.5 -15.5h-223q-76 0 -141 11t-123.5 38t-99.5 68t-65 104t-24 144q0 80 24 143t65.5 104 t100 67.5t123.5 38t140 11.5h223q270 0 428 -166zM406 -33q-114 98 -188.5 185.5t-116.5 179t-58 180.5t-16 205q0 203 62.5 353.5t178.5 240.5t269.5 133t347.5 43h223q100 0 175.5 -5.5t163.5 -24.5t159 -52t146 -91.5t142 -139.5q46 -46 82 -83.5t60 -65t36.5 -43 t27.5 -35.5t18 -23l-62 -43l150 -150v-219q0 -164 -45.5 -294.5t-125.5 -217.5t-194 -144.5t-244.5 -82.5t-283.5 -25h-223q-216 0 -395 54.5t-289 164.5zM969 492v327q-132 -20 -209.5 -95t-77.5 -212q0 -49 8 -82q85 -27 195 -27h184z" />
<glyph unicode="h" horiz-adv-x="2187" d="M1438 113v542h-1143v-542h-125v1208h125v-543h1143v543h127v-1208h-127zM1679 -2v1438h-356v-545h-913v545h-355v-1438h355v545h913v-545h356zM659 1276v-334h613v545h459l198 -211v-1528h-446l-211 199v346h-613v-545h-444l-211 199v1540h457z" />
<glyph unicode="i" horiz-adv-x="964" d="M152 113v1208h122v-1208h-122zM387 -2v1438h-348v-1438h348zM199 -252l-211 199v1540h450l199 -211v-1528h-438z" />
<glyph unicode="j" horiz-adv-x="2215" d="M879 238q124 0 223.5 26t178 81t121 149.5t42.5 222.5v604h131v-604q0 -105 -21 -190.5t-58 -147.5t-92.5 -109t-118.5 -76.5t-143 -48t-160 -25.5t-175 -7q-82 0 -146.5 4.5t-140.5 19.5t-136 40t-119.5 70t-104.5 107l135 82q54 -64 121.5 -105.5t148 -60.5 t150.5 -25.5t164 -6.5zM807 352q-321 0 -481 232l-322 -193q43 -75 94 -134.5t103.5 -100.5t117 -70t124 -46t137 -26.5t144 -12.5t155.5 -3q182 0 326.5 40.5t253.5 124t168 224t59 330.5v719h-355v-719q0 -68 -16 -122.5t-42 -92.5t-67 -65.5t-83.5 -43.5t-98.5 -25.5 t-105.5 -12.5t-111.5 -3zM807 403q80 0 141 5.5t126.5 25t108 52.5t70 91.5t27.5 139.5v770h457l198 -211v-764q0 -202 -62 -351t-177.5 -238.5t-267.5 -132t-345 -42.5q-102 0 -179 4t-167.5 18.5t-162 39.5t-145.5 69t-136 105q-155 143 -225 230t-134 198l404 239 q49 -74 121 -137q143 -111 348 -111z" />
<glyph unicode="k" horiz-adv-x="2402" d="M172 113v1208h125v-520l1018 520h209l-1196 -604q197 -103 591 -302t590 -302h-194l-1018 518v-518h-125zM412 -2v446l870 -446l637 2q-260 134 -732.5 384t-631.5 333l1382 719h-655q-169 -89 -483.5 -249.5t-386.5 -197.5v447h-353v-1438h353zM2220 1219l-1264 -658 l181 -94q407 -214 829 -432l479 -285l-970 -2l-813 418v-418h-443l-211 199v1540h455l199 -211v-100q82 41 606 311h694z" />
<glyph unicode="l" horiz-adv-x="2091" d="M162 1321h123v-1083h1157v-125h-1280v1208zM49 -2h1505v354h-1155v1084h-350v-1438zM-2 -53v1540h453l198 -211v-873h957l198 -210v-445h-1595z" />
<glyph unicode="m" horiz-adv-x="2496" d="M188 113v1208h107l706 -1049q327 498 709 1049h107v-1208h-127v950l-637 -950h-101l-637 948v-948h-127zM428 -2v690l461 -690h225l463 692v-692h352v1438h-282l-648 -959l-643 959h-280v-1438h352zM381 1487l203 -211l444 -666l594 877h358l199 -211v-1528h-442 l-211 199v76l-185 -275h-270l-207 199l-186 278v-477h-442l-211 199v1540h356z" />
<glyph unicode="n" horiz-adv-x="2162" d="M1389 113l-1104 1013v-1013h-121v1208h104l1100 -1014v1014h123v-1208h-102zM1606 -2v1438h-351v-871l-948 871h-258v-1438h350v872l951 -872h256zM209 -252l-211 199v1540h328l878 -805v805h453l198 -211v-1528h-319l-887 813v-813h-440z" />
<glyph unicode="o" horiz-adv-x="2392" d="M1120 238q124 0 224 26t178 81t121 149.5t43 222.5t-43 222.5t-121.5 149.5t-178.5 81t-223 26h-225q-124 0 -224 -26t-178.5 -81t-121.5 -149.5t-43 -222.5q0 -129 43 -223.5t121.5 -149.5t178.5 -80.5t224 -25.5h225zM1120 352h-225q-76 0 -141 11t-123.5 38t-99.5 68 t-65 104t-24 144q0 80 24 143t65.5 104t100 67.5t123.5 38t140 11.5h225q75 0 140 -11.5t123 -38t99 -67.5t65 -104t24 -143q0 -99 -35.5 -172t-99.5 -114t-142 -60t-174 -19zM199 717q0 161 52 280t147.5 188.5t218.5 102.5t278 33h225q122 0 225 -20.5t191 -66t149 -114.5 t95.5 -171.5t34.5 -231.5t-34.5 -231.5t-95.5 -171.5t-149 -114.5t-191 -66t-225 -20.5h-225q-155 0 -278 33t-218.5 102.5t-147.5 188.5t-52 280zM84 717q0 -152 39 -273t110 -204t172.5 -138t223 -79.5t266.5 -24.5h225q182 0 326.5 40.5t253.5 124t168 224t59 330.5 t-59 330.5t-168 224t-253.5 124t-326.5 40.5h-225q-145 0 -266.5 -24.5t-223 -79.5t-172.5 -138t-110 -204t-39 -273zM33 717q0 163 41.5 292.5t116.5 218.5t183 147.5t237.5 85t283.5 26.5h225q103 0 182 -8t167.5 -32t165 -67t161 -114t170.5 -172q95 -95 153 -249 t58 -333q0 -202 -62 -351t-177.5 -238.5t-267.5 -132t-345 -42.5h-225q-474 0 -686 209q-152 133 -236.5 256.5t-114.5 238t-30 265.5zM1120 403q67 0 124.5 10t109 33t88 58.5t57.5 89.5t21 123q0 46 -13 90q-82 24 -182 24h-225q-85 0 -156 -16.5t-129 -52.5t-90.5 -99.5 t-32.5 -150.5q0 -49 8 -82q86 -27 195 -27h225z" />
<glyph unicode="p" horiz-adv-x="2152" d="M410 1081h759q27 0 50.5 -4t47 -13.5t37 -30t13.5 -48.5q0 -27 -15 -46.5t-39 -29t-48 -14t-48 -4.5h-757v190zM295 778h872q71 0 128.5 19.5t97 68t39.5 119.5q0 108 -74 159.5t-189 51.5h-874v-418zM295 655v-542h-125v1208h999q116 0 202 -33.5t138 -110.5t52 -192 q0 -215 -207 -299v-2q-64 -23 -224.5 -32t-306 -7.5t-321.5 6t-207 4.5zM1675 985q0 226 -135.5 338.5t-370.5 112.5h-1114v-1438h355v545q39 0 204.5 -4.5t292 -6t274.5 10t220 37.5v2q274 116 274 403zM215 -252l-211 199v1540h1165q89 0 159 -12t152 -45.5t166.5 -102 t174.5 -174.5q104 -104 104 -373q0 -317 -303 -448q-137 -49 -514 -49q-289 0 -449 2v-537h-444z" />
<glyph unicode="q" horiz-adv-x="2600" d="M715 606l430 -254h-248q-96 0 -174.5 19t-143.5 59.5t-101 113.5t-36 173t36 172.5t101 113.5t143.5 59.5t174.5 18.5h223q75 0 140 -11.5t123.5 -38t100 -67.5t65.5 -104t24 -143q0 -111 -60 -221l-204 110h-594zM1284 494l258 -140q68 72 106 168t38 195 q0 128 -43 222.5t-121 149.5t-178 81t-224 26h-223q-123 0 -223 -26.5t-178.5 -81.5t-122 -149.5t-43.5 -221.5q0 -128 43.5 -222.5t122 -149.5t178.5 -81t223 -26h223q56 0 165 22t167 43l-358 193zM201 717q0 161 52 280t147.5 188.5t218.5 102.5t278 33h223 q154 0 277.5 -33t219 -103t148 -188.5t52.5 -279.5q0 -185 -154 -412l356 -192h-172l-243 133q-105 -60 -236 -96.5t-248 -36.5h-223q-155 0 -278 33t-218.5 102.5t-147.5 188.5t-52 280zM86 717q0 -142 31.5 -253.5t80 -186.5t131.5 -128t162 -82t196 -45t208.5 -20 t224.5 -4q118 0 248.5 32.5t237.5 86.5l219 -117h590l-588 346q100 189 100 371q0 143 -31 254.5t-79.5 186.5t-131 128t-160.5 82t-195 44.5t-208.5 19.5t-224.5 4q-145 0 -266.5 -24.5t-223 -79.5t-172.5 -138t-110 -204t-39 -273zM35 717q0 163 41.5 292.5t116.5 218.5 t183 147.5t237.5 85t283.5 26.5q270 0 385 -12q294 -33 501 -182q113 -83 212 -203q86 -86 134 -235t48 -343q0 -124 -57 -279l485 -284l209 -199h-795l-207 111q-109 -52 -239.5 -82.5t-247.5 -30.5q-131 0 -215 2.5t-202.5 13.5t-200.5 32.5t-166.5 62.5t-143.5 100 q-147 124 -226.5 241.5t-107.5 234t-28 282.5zM1102 831q-136 0 -237 -42t-144 -132h600l172 -92q29 79 29 152q0 43 -13 90q-85 24 -184 24h-223z" />
<glyph unicode="r" horiz-adv-x="2365" d="M426 1081h760q37 0 68.5 -6.5t58 -29.5t26.5 -60q0 -27 -15.5 -46.5t-41 -29t-50 -14t-48.5 -4.5h-758v190zM313 778h871q51 0 97.5 11.5t86 35t63 65t23.5 95.5q0 56 -22 98.5t-61 66t-85 35t-100 11.5h-873v-418zM1370 686q-32 -17 -129 -41q88 -104 252.5 -291.5 t210.5 -240.5h-166l-473 542h-752v-542h-127v1208h1000q87 0 157 -19t123.5 -58.5t83 -105t29.5 -153.5q0 -216 -207 -299h-2zM1694 985q0 225 -136.5 338t-371.5 113h-1110v-1438h350v545h586l471 -545h471l-516 592q256 113 256 395zM236 -252l-211 199v1540h1161 q89 0 155.5 -11.5t145 -45t159 -101.5t171.5 -174q60 -60 93.5 -159.5t33.5 -215.5q0 -134 -59 -239t-169 -170q55 -63 250.5 -289t290.5 -334h-590l-207 199l-299 346h-485v-545h-440z" />
<glyph unicode="s" horiz-adv-x="2342" d="M375 393q40 -38 86 -66.5t102.5 -45t100.5 -26.5t114.5 -14t106.5 -4.5t112 -0.5h39q39 0 84 2.5t110.5 9t123.5 21t110.5 35t83.5 54.5t31 76q0 51 -48.5 92t-118 64.5t-154.5 39.5t-151 21.5t-114 5.5h2q-56 2 -121.5 10t-148 24t-157 43t-138 62.5t-101.5 88 t-38 114.5q0 59 28.5 107.5t74 81t108.5 57.5t125.5 39t133 23t123 11.5t101.5 2.5q411 0 621 -164l-109 -78q-105 73 -236.5 96t-304.5 23q-48 0 -99 -3t-123.5 -15.5t-126.5 -32.5t-93 -58.5t-39 -89.5q0 -56 44 -96t118.5 -62t171 -37t203 -26.5t213 -24.5t203 -36 t171 -57t118.5 -91.5t44 -134.5q0 -73 -54.5 -132t-134.5 -93t-179 -57t-179 -31t-143 -8h-153q-99 0 -179 7t-174.5 26t-174.5 61.5t-138 105.5zM82 356q36 -58 80.5 -106t89 -83t103.5 -62t107 -45t118 -30t118 -18.5t125.5 -9.5t122.5 -3.5t125 -0.5q67 0 147 9.5 t172.5 29t177 54.5t154.5 81t112 114t42 148q0 78 -30.5 142.5t-74 107.5t-118.5 77t-135.5 52.5t-155 34t-148 21t-141.5 13.5q-39 3 -57 5q-426 39 -426 112q0 84 395 84q160 0 284 -31.5t212 -121.5l299 200q-51 69 -112.5 121t-132.5 84.5t-139.5 53.5t-154.5 31 t-155 13t-162 3q-69 0 -145.5 -9.5t-162.5 -29t-162.5 -54.5t-139 -81t-99.5 -114t-37 -149q0 -301 519 -409q116 -24 379 -53q8 -1 14 -2q3 0 36.5 -3.5t61.5 -7t71 -9t75.5 -13.5t64 -17.5t48.5 -22.5t17 -28q0 -84 -518 -84q-86 0 -155.5 7.5t-144.5 28t-138.5 62 t-112.5 103.5zM8 373l371 229l-98 100q-154 118 -154 297q0 78 30 145t79.5 116t117 88.5t140.5 65t151.5 42.5t147.5 24t131 7q83 0 140 -1.5t137 -8.5t139.5 -19t132.5 -35.5t131 -57t119.5 -83t113.5 -113.5q59 -59 100.5 -106.5t57.5 -69.5t31.5 -46.5t21.5 -31.5 l-262 -176q2 -1 29 -20t76 -63.5t128 -127.5q50 -51 78.5 -131t28.5 -168q0 -76 -33.5 -142.5t-89 -114.5t-129.5 -87t-152.5 -64t-161.5 -42t-153.5 -24t-130.5 -7q-261 0 -327 4q-293 16 -472 125q-71 43 -131 103q-145 133 -214.5 217.5t-123.5 175.5z" />
<glyph unicode="t" horiz-adv-x="2228" d="M864 113v1083h-686v125h1497v-125h-688v-1083h-123zM1100 -2v1083h688v355h-1722v-355h686v-1083h348zM225 831l-211 199v457h1825l199 -211v-445h-688v-1083h-439l-211 199v884h-475z" />
<glyph unicode="u" horiz-adv-x="2488" d="M190 1321h132v-604q0 -128 42.5 -222.5t121 -149.5t178 -81t223.5 -26h225q123 0 223 26t178.5 81t122 149.5t43.5 222.5v604h129v-604q0 -130 -34.5 -232.5t-96 -171.5t-149.5 -114.5t-191 -65.5t-225 -20h-225q-155 0 -278 33t-219 102.5t-148 188.5t-52 280v604z M78 717q0 -152 39 -273t109.5 -204t172 -138t222.5 -79.5t266 -24.5h225q145 0 266 24.5t222.5 79.5t172 138t109.5 204t39 273v719h-356v-719q0 -81 -24 -144t-65 -104t-99.5 -68t-123.5 -38t-141 -11h-225q-96 0 -174 19t-142 60t-99.5 114t-35.5 172v719h-358v-719z M27 717v770h460l199 -211v-764q0 -57 6 -82q88 -27 195 -27h225q67 0 124.5 9.5t109.5 32.5t88 58.5t57.5 90t21.5 123.5v770h459l199 -211v-764q0 -202 -62.5 -351t-178 -238.5t-268 -132t-345.5 -42.5h-225q-475 0 -678 203q-152 131 -238 255t-117.5 241.5t-31.5 269.5z " />
<glyph unicode="v" horiz-adv-x="2568" d="M1159 113h-98q-144 201 -432.5 604t-431.5 604h163l754 -1057q198 280 737 1057h154zM2224 1436h-434q-438 -634 -680 -977l-694 977h-434l1024 -1438h215zM2320 1487l195 -211l-1065 -1528h-264l-207 199l-1098 1540h602l162 -211l490 -694q280 397 628 905h557z" />
<glyph unicode="w" horiz-adv-x="2899" d="M354 1321l414 -999q76 188 223 529t201 470h100l424 -997q39 93 130.5 309.5t158 377t127.5 310.5h143q-83 -201 -249.5 -603.5t-249.5 -604.5h-105l-428 999l-432 -999h-100q-207 508 -500 1208h143zM43 1436l594 -1438h254q176 421 350 823l352 -823h256l594 1438h-387 q-10 -25 -340 -813l-348 813h-250l-350 -818l-340 818h-385zM-33 1487h494l201 -211l161 -393q189 432 262 604h318l201 -211l165 -393l25 57q5 12 25 57t28 68q87 202 176 422h496l195 -211l-631 -1528h-316l-208 199l-177 409q-151 -348 -258 -608h-311l-209 199z" />
<glyph unicode="x" horiz-adv-x="2701" d="M1284 721l717 -608h-184l-615 540l-604 -540h-180l704 608q-515 439 -708 600h184l606 -535q98 90 596 535h182zM2292 1436h-533q-97 -90 -284.5 -256t-270.5 -242l-563 498h-535l842 -713l-842 -725h535l561 504l572 -504h538l-852 721zM2429 1487l188 -211l-860 -744 l694 -585l189 -199h-680l-553 488q-102 -93 -295 -265t-250 -223h-672l-221 199l887 764l-899 776h702l543 -479l539 479h688z" />
<glyph unicode="y" horiz-adv-x="2400" d="M915 621l-708 700h180l594 -584l584 584h178l-701 -698v-510h-127v508zM803 -2h354v577l858 861h-495l-541 -545l-549 545h-500l873 -865v-573zM752 -53v604q-117 117 -451 445.5t-496 490.5h646l526 -524l520 524h643l191 -211l-924 -924v-604h-444z" />
<glyph unicode="z" horiz-adv-x="2119" d="M229 1321h1209v-102l-1055 -981h1120v-125h-1337v102l1059 981h-996v125zM115 1081h825l-887 -817v-266h1563v354h-946l882 815v269h-1437v-355zM63 1030v457h1541l198 -211v-334l-585 -539h450l199 -210v-445h-1653l-211 199v340l590 544h-318z" />
<glyph unicode="{" horiz-adv-x="1019" d="M92 772q58 64 58 158q0 42 -13.5 124t-13.5 124q0 274 278 274h117v-121q-10 0 -39 0.5t-39.5 0t-36 -1.5t-36 -4t-31 -8t-29.5 -13t-22 -20t-18.5 -27t-10 -36t-4.5 -46q0 -52 22.5 -153.5t22.5 -152.5q0 -65 -55 -147q55 -92 55 -152q0 -52 -22.5 -153.5t-22.5 -153.5 q0 -25 4.5 -45.5t10 -35.5t19 -27t22.5 -19.5t29 -12.5t31 -8t36 -4t36 -1.5t39.5 0t38.5 0.5v-123h-117q-278 0 -278 274q0 43 14.5 127t14.5 127q0 92 -60 152v104zM-20 600q69 -38 69 -59q0 -37 -20.5 -133.5t-20.5 -145.5q0 -191 99.5 -288t293.5 -97h232v346 q-8 0 -45.5 -2.5t-71.5 -3t-71.5 2t-60 13.5t-22.5 31q0 52 25 153.5t25 153.5q0 61 -37 148q37 64 37 151q0 52 -25 153t-25 153q0 20 22.5 31t60 13.5t71.5 2t71.5 -3t45.5 -2.5v346h-232q-393 0 -393 -385q0 -40 17.5 -119t17.5 -119q0 -84 -63 -102v-238zM-72 569v305 q64 18 64 66q0 22 -15 88l-4 19q-16 74 -16 131q0 436 444 436h283l199 -211v-436q-72 0 -88 2q-54 4 -90 4q-93 0 -93 -2q0 -58 23 -144q1 -7 8.5 -39t10 -44.5t5.5 -35.5t3 -42q0 -70 -33 -152q33 -90 33 -147q0 -36 -11 -93h33l199 -211v-436h-277q-247 0 -354 107 q-97 84 -157 153t-89.5 133t-39 116.5t-9.5 125.5q0 42 18 139q5 15 5 23q11 43 18 86l-45 45z" />
<glyph unicode="|" horiz-adv-x="747" d="M57 1434h117v-1403h-117v1403zM-55 -84h342v1632h-342v-1632zM-106 -135v1734h444l199 -210v-1723h-433z" />
<glyph unicode="}" horiz-adv-x="1019" d="M520 668q-59 -54 -59 -152q0 -43 14 -127t14 -127q0 -274 -278 -274h-117v123q10 0 38.5 -0.5t39.5 0t36 1.5t36 4t31 8t29 12.5t22.5 19.5t19 27t10 35.5t4.5 45.5q0 52 -22.5 153.5t-22.5 153.5q0 59 56 152q-56 83 -56 147q0 51 22.5 152.5t22.5 153.5q0 25 -4.5 46 t-10 36t-18.5 27t-22 20t-29.5 13t-31 8t-36 4t-36 1.5t-39.5 0t-39 -0.5v121h117q278 0 278 -274q0 -42 -13 -124t-13 -124q0 -98 57 -158v-104zM633 838q-64 18 -64 102q0 40 17.5 119t17.5 119q0 385 -393 385h-231v-346q8 0 45.5 2.5t71 3t71 -2t60 -13.5t22.5 -31 q0 -52 -24.5 -153t-24.5 -153q0 -87 37 -151q-37 -87 -37 -148q0 -52 24.5 -153.5t24.5 -153.5q0 -20 -22.5 -31t-60 -13.5t-71 -2t-71 3t-45.5 2.5v-346h231q194 0 293.5 97t99.5 288q0 48 -20.5 144t-20.5 137q0 12 24.5 29.5t45.5 27.5v238zM139 967l-211 198v449h283 q60 0 101 -4.5t94 -20.5t100.5 -46.5t108 -84.5t130.5 -133q53 -53 81 -147t28 -205q0 -41 -18 -129q-17 -83 -17 -109v-6l64 -63v-299q-18 -9 -44 -20.5t-26 -8.5q0 -51 18 -125q23 -126 23 -156q0 -214 -111 -322t-327 -108h-277l-211 199v448q78 0 92 -2q54 -4 93 -4 q82 0 86 -4q0 24 -19 121l-4 21q-26 102 -26 165q0 70 30 148q-30 75 -30 151q0 42 10 97h-21z" />
<glyph unicode="~" horiz-adv-x="1462" d="M989 772q-154 -184 -258 -184q-47 0 -94 24t-79 52.5t-73.5 52.5t-78.5 24q-41 0 -88.5 -30t-73.5 -66h-142q32 35 54 57.5t61 55.5t79.5 50t80.5 17q51 0 94 -15t72 -36.5t55.5 -43.5t57.5 -37t65 -15q27 0 52.5 16t41 33.5t35.5 44.5h139zM801 885q-1 -3 -8 -19 t-12.5 -25.5t-14.5 -23t-20.5 -20t-24.5 -6.5q-27 0 -67 23t-77.5 50.5t-92.5 50.5t-107 23q-67 0 -138.5 -40.5t-131 -105t-106 -130.5t-79.5 -130h391q11 29 34 55.5t48 26.5q13 0 42 -19.5t61.5 -43t92 -43t126.5 -19.5t139 39t132 101.5t107 127t81 128.5h-375zM762 936 h498l194 -211q-41 -78 -97 -157t-126 -155.5t-152 -124.5t-157 -48q-69 0 -131 19t-92 37t-68 46l-31 23q-21 0 -53 -82h-498l-215 198q32 63 74 128t98 134.5t114.5 123t126.5 88t130 34.5q46 0 97.5 -18t79 -34t77.5 -48q64 -43 76 -43q16 0 29.5 22.5t19.5 45.5z" />
<glyph unicode="&#xa1;" horiz-adv-x="755" d="M98 1092v118h127v-118h-127zM98 2v913h127q0 -152 -2 -456.5t-2 -456.5h-123zM338 -113v1438h-352v-1438h352zM389 1376l199 -211v-1527h-443l-211 198v1540h455z" />
<glyph unicode="&#xa2;" horiz-adv-x="2420" d="M313 717q0 -432 535 -481v962q-116 -8 -209.5 -38t-168.5 -85.5t-116 -146.5t-41 -211zM428 717q0 143 81.5 234.5t223.5 123.5v-710q-305 40 -305 352zM1532 365q-93 -119 -241.5 -179.5t-321.5 -72.5v-119h-121v121q-117 6 -215 30t-182 70.5t-142.5 114.5t-91.5 166 t-33 221t33 221.5t91.5 166.5t142.5 115t182 71t215 30v149h121v-149q163 -8 313 -69.5t248 -174.5l-117 -71q-142 162 -444 192v-962q293 36 446 200zM1389 584q-129 -178 -306 -213v698q174 -45 297 -207l314 174q-106 168 -261.5 269t-349.5 122v158h-350v-158 q-322 -28 -492.5 -206.5t-170.5 -503.5q0 -326 170 -503.5t493 -207.5v-127h350v127q194 23 349 122.5t260 266.5zM1376 653l389 -241l195 -207q-118 -186 -277 -299t-350 -144v-133h-440l-164 164q-228 64 -328 164q-152 129 -237.5 252.5t-115.5 239t-30 268.5 q0 336 170 526t494 230v163h453l198 -211v-14q198 -89 350 -276l127 -127q84 -84 152 -193l-389 -215l-160 158q-39 28 -80 45v-205z" />
<glyph unicode="&#xa3;" horiz-adv-x="2246" d="M1419 952q-159 265 -491 265q-204 0 -315.5 -115t-129.5 -324h707v-123h-705q-13 -348 -110 -417h1196v-125h-1344v116q33 5 58.5 44.5t38.5 91t21.5 115t10.5 104.5t2 71h-180v123h180q24 561 592 561q177 0 333 -86t251 -235zM1686 975q-116 229 -305.5 354t-438.5 125 q-302 0 -482 -137.5t-210 -425.5h-187v-348h179q0 -31 -5.5 -70.5t-18.5 -85t-40 -75.5t-63 -29v-285h1571v354h-1123q26 117 33 191h709v348h-693q13 65 44.5 108.5t79.5 65t98 29.5t116 8q144 0 250 -84t174 -225zM274 -252l-211 199v389q48 -3 80 33l-131 123v450h193 q43 288 234.5 425.5t502.5 137.5q105 0 195 -19.5t187 -67t198 -131.5t215 -210q105 -105 213 -323l-396 -226v-125h183l198 -210v-445h-1661z" />
<glyph unicode="&#xa5;" horiz-adv-x="2299" d="M389 715h348l-614 606h182l594 -584l584 584h178l-606 -606h346v-86h-440v-250h440v-86h-440v-180h-127v180h-445v86h445v250h-445v86zM274 178h447v-180h354v180h441v651h-187l604 607h-495l-541 -545l-549 545h-498l613 -607h-189v-651zM223 127v754h115l-610 606h641 l526 -524l520 524h643l191 -211l-545 -547l61 -59v-742h-440v-180h-444l-181 180h-266z" />
<glyph unicode="&#xa8;" horiz-adv-x="1159" d="M676 1651v116h129v-116h-129zM920 1538v342h-359v-342h359zM180 1651v116h129v-116h-129zM422 1538v342h-356v-342h356zM225 1288l-211 199v444h459l37 -49v49h461l198 -211v-432h-448l-49 49v-49h-447z" />
<glyph unicode="&#xa9;" horiz-adv-x="2535" d="M1348 465q-121 -55 -273 -55h-121q-403 0 -403 313q0 74 21.5 130t58 90.5t89.5 56.5t109 30t125 8h121q175 0 271 -49l-74 -86q-96 49 -197 49h-121q-64 0 -113 -10.5t-90 -35t-63 -70.5t-22 -113q0 -66 22 -111.5t63.5 -69.5t90 -34t112.5 -10h121q114 0 201 47z M1120 209q123 0 225.5 31.5t179 93t119 159.5t42.5 224t-42.5 224t-119 159.5t-179 93t-225.5 31.5h-225q-123 0 -225.5 -31t-179.5 -92.5t-119.5 -159.5t-42.5 -225t42.5 -225t119.5 -159.5t179.5 -92.5t225.5 -31h225zM199 717q0 161 52 280t147.5 188.5t218.5 102.5 t278 33h225q122 0 225 -20.5t191 -66t149 -114.5t95.5 -171.5t34.5 -231.5t-34.5 -231.5t-95.5 -171.5t-149 -114.5t-191 -66t-225 -20.5h-225q-155 0 -278 33t-218.5 102.5t-147.5 188.5t-52 280zM84 717q0 -152 39 -273t110 -204t172.5 -138t223 -79.5t266.5 -24.5h225 q182 0 326.5 40.5t253.5 124t168 224t59 330.5t-59 330.5t-168 224t-253.5 124t-326.5 40.5h-225q-145 0 -266.5 -24.5t-223 -79.5t-172.5 -138t-110 -204t-39 -273zM33 717q0 163 41.5 292.5t116.5 218.5t183 147.5t237.5 85t283.5 26.5h225q87 0 154 -4.5t144 -18t143 -40 t137 -67.5t142 -104t142 -147q195 -213 195 -594q0 -202 -62 -351t-177.5 -238.5t-267.5 -132t-345 -42.5h-225q-480 0 -690 207q-114 101 -189 192.5t-116 185t-56.5 182.5t-15.5 202z" />
<glyph unicode="&#xab;" horiz-adv-x="1753" d="M1063 1161h158l-363 -442l361 -447h-156l-369 445zM551 717l455 -555h452l-457 559l457 551h-452zM489 1161h162l-366 -442l364 -447h-160q-121 155 -364 445zM-20 717l456 -555h451l-455 559l455 551h-451zM-88 717l502 606h1153l192 -211l-495 -598l493 -602h-1136 l-207 199z" />
<glyph unicode="&#xad;" horiz-adv-x="1804" d="M135 778h1012v-123h-1012v123zM20 543h1242v348h-1242v-348zM-31 492v450h1344l198 -211v-438h-1331z" />
<glyph unicode="&#xae;" horiz-adv-x="2529" d="M817 733h373q40 0 70 26t30 66t-29.5 67.5t-70.5 27.5h-373v-187zM1380 825q0 -73 -54 -126.5t-128 -53.5l188 -172h-126l-170 166h-273v-166h-104v539h477q89 0 139.5 -49.5t50.5 -137.5zM1120 209q167 0 292.5 54.5t199.5 171t74 282.5q0 126 -42.5 224t-119 159.5 t-179 93t-225.5 31.5h-225q-123 0 -225.5 -31t-179.5 -92.5t-119.5 -159.5t-42.5 -225t42.5 -225t119.5 -159.5t179.5 -92.5t225.5 -31h225zM199 717q0 161 52 280t147.5 188.5t218.5 102.5t278 33h225q122 0 225 -20.5t191 -66t149 -114.5t95.5 -171.5t34.5 -231.5 t-34.5 -231.5t-95.5 -171.5t-149 -114.5t-191 -66t-225 -20.5h-225q-155 0 -278 33t-218.5 102.5t-147.5 188.5t-52 280zM84 717q0 -152 39 -273t110 -204t172.5 -138t223 -79.5t266.5 -24.5h225q182 0 326.5 40.5t253.5 124t168 224t59 330.5t-59 330.5t-168 224 t-253.5 124t-326.5 40.5h-225q-145 0 -266.5 -24.5t-223 -79.5t-172.5 -138t-110 -204t-39 -273zM33 717q0 163 41.5 292.5t116.5 218.5t183 147.5t237.5 85t283.5 26.5h225q102 0 184 -9t173 -34.5t171 -69.5t167 -116.5t172 -172.5q92 -92 141 -240t49 -333 q0 -202 -62 -351t-177.5 -238.5t-267.5 -132t-345 -42.5h-225q-464 0 -674 207q-153 134 -239.5 257t-120 239.5t-33.5 265.5z" />
<glyph unicode="&#xb0;" horiz-adv-x="931" d="M145 1255q0 -92 95 -92q49 0 73.5 21.5t24.5 70.5t-24.5 71t-73.5 22q-95 0 -95 -93zM78 1257q0 76 43 114t119 38q79 0 124.5 -37t45.5 -115q0 -149 -164 -149q-168 0 -168 149zM-37 1257q0 -260 277 -260q139 0 211.5 60.5t72.5 199.5q0 133 -73 198t-205 65 q-134 0 -208.5 -64t-74.5 -199zM-88 1257q0 161 87.5 237.5t246.5 76.5q55 0 94 -8t92 -35t115 -84t143 -150q38 -38 61 -102.5t23 -138.5q0 -162 -84.5 -233.5t-245.5 -71.5q-189 0 -260 71q-90 78 -145 137.5t-82.5 111.5t-36 92.5t-8.5 96.5z" />
<glyph unicode="&#xb4;" horiz-adv-x="989" d="M524 1800q-29 -21 -119.5 -88.5t-140.5 -103.5h-141l258 192h143zM326 1874l-443 -340h416l453 340h-426zM311 1925h594l187 -211l-572 -430h-563l-223 199z" />
<glyph unicode="&#xb7;" horiz-adv-x="657" d="M57 618v189h127v-189h-127zM297 504v418h-352v-418h352zM104 254l-210 199v520h454l199 -211v-508h-443z" />
<glyph unicode="&#xb8;" horiz-adv-x="866" d="M117 -408q140 0 198 14q83 23 84 72q0 25 -21 41t-59.5 20.5t-69 5.5t-72 -1t-46.5 -2v182h105v-98l57 2q211 0 211 -139q0 -42 -17.5 -73.5t-48.5 -49.5t-66.5 -30t-79.5 -16.5t-79.5 -6.5t-73.5 -2h-22v81zM29 -588h34q32 -1 67 0t70.5 1.5t72 5t71.5 10t67.5 16.5 t61 25t52 35.5t40 47.5t26 60.5t9.5 75.5q0 123 -71 187.5t-195 64.5v96h-305v-625zM-23 -639v727h408q21 -20 61 -57t53.5 -50t44 -42t48 -47t47.5 -49t61 -64.5t72 -77.5q78 -78 78 -217q0 -67 -22 -119t-52.5 -85.5t-89 -57t-103.5 -35t-126.5 -17.5t-128 -7t-134.5 -1 h-6z" />
<glyph unicode="&#xba;" horiz-adv-x="931" d="M188 1370q0 -92 95 -92q49 0 73.5 21.5t24.5 70.5t-24.5 70.5t-73.5 21.5q-95 0 -95 -92zM121 1372q0 76 43 114t119 38q79 0 124.5 -37t45.5 -115q0 -149 -164 -149q-168 0 -168 149zM6 1372q0 -260 277 -260q139 0 211.5 60.5t72.5 199.5q0 133 -73 197.5t-205 64.5 q-135 0 -209 -63.5t-74 -198.5zM-45 1372q0 161 87.5 237.5t246.5 76.5q55 0 94 -8t92 -35t115 -84t143 -150q38 -38 61 -103t23 -139q0 -162 -84.5 -233.5t-245.5 -71.5q-188 0 -260 72q-90 78 -145 137.5t-82.5 111.5t-36 92.5t-8.5 96.5z" />
<glyph unicode="&#xbb;" horiz-adv-x="1753" d="M735 717l-368 -445h-158l362 447l-362 442h158zM424 1272h-453l455 -551l-455 -559h453l455 555zM1305 717l-365 -445h-162l367 447l-367 442h162zM993 1272h-450l452 -551l-452 -559h450l457 555zM1036 1323l678 -811l-495 -600h-1137l-217 199l495 610l-497 602h1173z " />
<glyph unicode="&#xbf;" horiz-adv-x="2084" d="M741 1210v-120h-129v120h129zM1217 236q-72 -99 -186.5 -162.5t-231.5 -88t-248 -24.5q-69 0 -137 12t-135.5 39.5t-118.5 68t-83 103t-32 138.5q0 61 27.5 114.5t72.5 94.5t100 79.5t112.5 76t107 76.5t86 89t47.5 106h137q-7 -68 -41.5 -127t-84 -101.5t-107.5 -82 t-114.5 -76t-103.5 -74t-75.5 -86.5t-28.5 -104q0 -56 33 -98.5t81 -66t111.5 -38.5t114.5 -19.5t101 -4.5q134 0 257 64t212 173zM498 1323l1 -155q1 -156 -1 -156q-1 -47 -32.5 -89.5t-82 -78t-111 -72.5t-120.5 -80.5t-110 -93t-81 -119.5t-31 -151q0 -91 30 -164 t83.5 -122t120 -84t147 -53.5t155.5 -27t155 -8.5q147 0 291 47t267 140t195 218l-305 183q-192 -264 -485 -264q-36 0 -77 5.5t-90 18t-80.5 40.5t-31.5 67q0 49 30.5 88.5t79 69t107 59.5t117.5 70t107.5 90t79 130t30.5 181v311h-358zM446 1374h461l199 -211v-356 q0 -52 -8 -98.5t-19 -83.5t-32.5 -72.5t-39.5 -61t-49 -53t-52 -44t-57.5 -39t-56 -33.5t-57.5 -31l-76 -41q221 35 398 274l387 -229l196 -209q-124 -215 -351.5 -341t-463.5 -126q-118 0 -227.5 14t-227 57.5t-186.5 112.5q-96 85 -157 153.5t-93 131.5t-43.5 116.5 t-11.5 123.5q0 66 23.5 129.5t58 112t86 97t96 81t99.5 67.5q122 80 157 114q45 44 47 83v362z" />
<glyph unicode="&#xc0;" d="M1081 1800l258 -192h-141q-50 36 -140.5 103.5t-119.5 88.5h143zM711 1874l452 -340h416l-442 340h-426zM713 557h874l-432 612zM1151 975l215 -307h-434zM2046 113h-154l-221 317h-1046q-38 -52 -112 -158.5t-112 -158.5h-163q92 129 396.5 552t467.5 656h98zM1262 1436 h-215l-1024 -1438h434l225 317h926l223 -317h434zM530 1925h621l575 -442l189 -199h-432l1073 -1536h-545l-207 199l-84 119h-809q-218 -307 -225 -318h-547l-217 199l1098 1540h61z" />
<glyph unicode="&#xc1;" d="M1352 1800q-29 -21 -119.5 -88.5t-140.5 -103.5h-142l258 192h144zM1153 1874l-442 -340h415l453 340h-426zM713 557h874l-432 612zM1151 975l215 -307h-434zM2046 113h-154l-221 317h-1046q-38 -52 -112 -158.5t-112 -158.5h-163q92 129 396.5 552t467.5 656h98z M1262 1436h-215l-1024 -1438h434l225 317h926l223 -317h434zM1139 1925h594l186 -211l-496 -373l68 -65l1065 -1528h-545l-207 199l-84 119h-809q-218 -307 -225 -318h-547l-217 199l952 1337h-90l-223 199z" />
<glyph unicode="&#xc2;" d="M1210 1845q57 -39 169.5 -117.5t170.5 -117.5h-114l-271 172l-272 -172h-113l340 235h90zM1090 1944l-605 -406h467l213 143l211 -143h467l-602 406h-151zM713 557h874l-432 612zM1151 975l215 -307h-434zM2046 113h-154l-221 317h-1046q-38 -52 -112 -158.5t-112 -158.5 h-163q92 129 396.5 552t467.5 656h98zM1262 1436h-215l-1024 -1438h434l225 317h926l223 -317h434zM1075 1995h180l752 -508l186 -199h-624h-86l1073 -1540h-545l-207 199l-84 119h-809q-218 -307 -225 -318h-547l-217 199l957 1341h-334l-226 199z" />
<glyph unicode="&#xc3;" d="M1612 1794q-55 -66 -133 -125t-140 -59q-58 0 -110 24t-84 52.5t-72.5 52.5t-77.5 24q-27 0 -53.5 -17t-40.5 -33.5t-35 -45.5h-141q59 66 136 123t138 57q51 0 94 -15t72 -36.5t55.5 -43.5t57.5 -37t65 -15q62 0 130 94h139zM1438 1907h-4q-46 -95 -91 -95q-27 0 -67 23 t-77.5 51t-92.5 51t-107 23q-67 0 -139 -40.5t-132 -105t-107 -130.5t-80 -130h395q11 29 34 55.5t48 26.5q13 0 42 -19.5t61 -43t91.5 -43t126.5 -19.5t139 39t132 101.5t107 127t81 128.5h-360zM713 557h874l-432 612zM1151 975l215 -307h-434zM2046 113h-154l-221 317 h-1046q-38 -52 -112 -158.5t-112 -158.5h-163q92 129 396.5 552t467.5 656h98zM1262 1436h-215l-1024 -1438h434l225 317h926l223 -317h434zM1391 1958h491l195 -211q-34 -65 -74.5 -128t-99.5 -133.5t-120 -121t-136 -80t-148 -20.5l1057 -1516h-545l-207 199l-84 119h-809 q-218 -307 -225 -318h-547l-217 199l967 1358h-217l-215 198q32 63 73.5 128t98 134.5t114.5 123t126 88t130 34.5q46 0 97.5 -18t79 -34t77.5 -48q5 -3 14.5 -10t14 -10t12 -7.5t11.5 -6.5t9.5 -4.5t10 -3.5t8.5 -1q12 2 26.5 24.5t22.5 43.5z" />
<glyph unicode="&#xc4;" d="M1346 1651v116h129v-116h-129zM1589 1538v342h-358v-342h358zM850 1651v116h129v-116h-129zM1092 1538v342h-357v-342h357zM713 557h874l-432 612zM1151 975l215 -307h-434zM2046 113h-154l-221 317h-1046q-38 -52 -112 -158.5t-112 -158.5h-163q92 129 396.5 552 t467.5 656h98zM1262 1436h-215l-1024 -1438h434l225 317h926l223 -317h434zM139 -252l-217 199l963 1351l-201 189v444h459l37 -49v49h460l199 -211v-432h-360l12 -12l1065 -1528h-545l-207 199l-84 119h-809q-218 -307 -225 -318h-547z" />
<glyph unicode="&#xc5;" d="M1049 1743q0 -92 94 -92q49 0 73.5 21.5t24.5 70.5t-24.5 70.5t-73.5 21.5q-94 0 -94 -92zM981 1745q0 76 43 113.5t119 37.5q170 0 170 -151q0 -150 -164 -150q-168 0 -168 150zM866 1745q0 -260 277 -260q139 0 211.5 60.5t72.5 199.5q0 133 -73 197.5t-205 64.5 q-135 0 -209 -63.5t-74 -198.5zM713 557h874l-432 612zM1151 975l215 -307h-434zM2046 113h-154l-221 317h-1046q-38 -52 -112 -158.5t-112 -158.5h-163q92 129 396.5 552t467.5 656h98zM1262 1436h-215l-1024 -1438h434l225 317h926l223 -317h434zM815 1745q0 313 334 313 q41 0 63 -1.5t58 -8.5t64.5 -23t68.5 -43.5t85 -72.5t99 -107q37 -37 63.5 -112.5t26.5 -149.5q0 -227 -174 -285l1053 -1507h-545l-207 199l-84 119h-809q-218 -307 -225 -318h-547l-217 199l1059 1485l-43 45q-123 72 -123 268z" />
<glyph unicode="&#xc6;" horiz-adv-x="2959" d="M1038 557v549l-393 -549h393zM862 668l64 92v-92h-64zM1165 778h850v-123h-850v-417h1061v-125h-1188v317h-479q-26 -36 -71 -100.5t-83 -117.5t-73 -99h-158q143 201 430.5 603.5t429.5 604.5h1192v-125h-1061v-418zM1278 1081h1063v355h-1360l-1024 -1438h432l221 317 h316v-317h1415v354h-1063v191h850v348h-850v190zM74 -252l-217 199l1097 1540h1438l199 -211v-445h-314l101 -100v-328h14l199 -210v-445h-1506l-211 199v119h-36l-220 -318h-544z" />
<glyph unicode="&#xc7;" horiz-adv-x="2502" d="M1040 -113l58 2q211 0 211 -139q0 -42 -17.5 -73.5t-48.5 -49.5t-66.5 -30t-79.5 -16.5t-79.5 -6.5t-73.5 -2h-22v82q140 0 197 14q85 21 85 72q0 18 -11.5 31t-31.5 20t-43 11t-51.5 4t-50.5 -0.5t-46.5 -1.5t-33.5 -1v308q-95 4 -172 12.5t-156.5 28t-140 49t-115.5 76 t-90 107t-55.5 145t-20.5 188.5q0 161 52 280t148 188.5t219 102.5t278 33h223q104 0 184 -8.5t169.5 -32t163 -74.5t128.5 -127q-53 -30 -131 -82q-175 199 -514 199h-223q-124 0 -224 -26t-179 -81t-122 -149.5t-43 -222.5q0 -104 28.5 -185.5t79 -136t123 -90.5 t155.5 -51.5t182 -15.5h223q340 0 514 198l131 -82q-35 -49 -79.5 -87.5t-88 -63.5t-102 -42.5t-104 -27t-113 -14t-111 -5.5t-113.5 -1v-226zM834 -526q187 0 254 7q267 29 309 198q8 33 8 71q0 105 -55 171t-158 79q498 10 719 391l-326 193q-160 -232 -479 -232h-223 q-76 0 -141 11t-123.5 38t-99.5 68t-65 104t-24 144q0 80 24 143t65.5 104t100 67.5t123.5 38t140 11.5h223q320 0 479 -231l326 192q-55 94 -123 163.5t-141 113t-163 70.5t-179.5 37t-198.5 10h-223q-145 0 -266.5 -24.5t-223 -79.5t-172.5 -138t-110 -204t-39 -273 q0 -181 54 -317.5t155.5 -222.5t239.5 -129.5t313 -47.5v-526zM782 -578v359q-114 26 -221 77.5t-172 116.5q-114 97 -187 183.5t-113 177t-54.5 178t-14.5 203.5q0 163 41.5 292.5t116.5 218.5t183.5 147.5t238 85t283.5 26.5h223q89 0 154 -4.5t145 -18.5t148.5 -43 t145 -74.5t155.5 -116t161 -165.5q14 -14 29.5 -33.5t26.5 -35t29 -44.5t25.5 -41.5t27.5 -47.5l24 -42l-399 -235l-156 155q-139 90 -311 90h-224q-85 0 -155.5 -16.5t-128.5 -52.5t-90.5 -99.5t-32.5 -150.5q0 -49 8 -82q86 -27 195 -27h223q294 0 467 248l409 -241 l195 -207q-220 -374 -602 -439l4 -4q76 -76 76 -215q0 -67 -21.5 -119t-51 -85t-83.5 -56.5t-95.5 -35t-111.5 -17.5t-107.5 -7t-105.5 -1h-6h-80z" />
<glyph unicode="&#xc8;" horiz-adv-x="2254" d="M784 1800l258 -192h-141q-50 36 -140.5 103.5t-119.5 88.5h143zM414 1874l452 -340h416l-442 340h-426zM295 778h1042v-123h-1042v-417h1255v-125h-1382v1208h1380v-125h-1253v-418zM408 1081h1255v355h-1610v-1438h1612v354h-1257v191h1042v348h-1042v190zM231 1925h623 l569 -438h291l199 -211v-445h-314l101 -100v-328h16l199 -210v-445h-1702l-211 199v1540h786z" />
<glyph unicode="&#xc9;" horiz-adv-x="2254" d="M1090 1800q-22 -16 -116 -85.5t-145 -106.5h-141l258 192h144zM891 1874l-442 -340h415l453 340h-426zM295 778h1042v-123h-1042v-417h1255v-125h-1382v1208h1380v-125h-1253v-418zM408 1081h1255v355h-1610v-1438h1612v354h-1257v191h1042v348h-1042v190zM877 1925h593 l187 -211l-303 -227h360l199 -211v-445h-314l101 -100v-328h16l199 -210v-445h-1702l-211 199v1540h301z" />
<glyph unicode="&#xca;" horiz-adv-x="2254" d="M920 1845q57 -39 169.5 -117.5t170.5 -117.5h-115l-271 172l-272 -172h-113l340 235h91zM799 1944l-604 -406h467l212 143l211 -143h467l-602 406h-151zM295 778h1042v-123h-1042v-417h1255v-125h-1382v1208h1380v-125h-1253v-418zM408 1081h1255v355h-1610v-1438h1612 v354h-1257v191h1042v348h-1042v190zM784 1995h181l751 -508l197 -211v-445h-314l101 -100v-328h16l199 -210v-445h-1702l-211 199v1540z" />
<glyph unicode="&#xcb;" horiz-adv-x="2254" d="M1065 1651v116h129v-116h-129zM1309 1538v342h-359v-342h359zM569 1651v116h129v-116h-129zM811 1538v342h-356v-342h356zM295 778h1042v-123h-1042v-417h1255v-125h-1382v1208h1380v-125h-1253v-418zM408 1081h1255v355h-1610v-1438h1612v354h-1257v191h1042v348h-1042 v190zM1559 1720v-233h155l199 -211v-445h-314l101 -100v-328h16l199 -210v-445h-1702l-211 199v1540h401v444h459l37 -49v49h461z" />
<glyph unicode="&#xcc;" horiz-adv-x="937" d="M143 1800l258 -192h-141q-50 36 -140.5 103.5t-119.5 88.5h143zM-227 1874l452 -340h416l-442 340h-426zM152 113v1208h122v-1208h-122zM387 -2v1438h-348v-1438h348zM164 1487l-545 438h594l575 -442l189 -199h-348l8 -8v-1528h-438l-211 199v1540h176z" />
<glyph unicode="&#xcd;" horiz-adv-x="937" d="M410 1800q-29 -21 -119.5 -88.5t-140.5 -103.5h-142l258 192h144zM211 1874l-442 -340h415l453 340h-426zM152 113v1208h122v-1208h-122zM387 -2v1438h-348v-1438h348zM197 1925h594l186 -211l-445 -334l105 -104v-1528h-438l-211 199v1337h-146l-223 199z" />
<glyph unicode="&#xce;" horiz-adv-x="937" d="M260 1845q58 -39 170 -117.5t170 -117.5h-115l-270 172l-272 -172h-113l340 235h90zM139 1944l-604 -406h467l213 143l211 -143h467l-602 406h-152zM152 113v1208h122v-1208h-122zM387 -2v1438h-348v-1438h348zM125 1995h180l752 -508l186 -199h-606v-12v-1528h-438 l-211 199v1341h-394l-225 199z" />
<glyph unicode="&#xcf;" horiz-adv-x="937" d="M391 1651v116h129v-116h-129zM635 1538v342h-359v-342h359zM-104 1651v116h129v-116h-129zM137 1538v342h-356v-342h356zM152 113v1208h122v-1208h-122zM387 -2v1438h-348v-1438h348zM-59 1288l-211 199v444h458l37 -49v49h461l199 -211v-432h-248v-12v-1528h-438 l-211 199v1341h-47z" />
<glyph unicode="&#xd0;" horiz-adv-x="2621" d="M473 778h629v-123h-629v-417h733q99 0 182 15.5t155.5 51.5t123 90.5t79 136t28.5 185.5q0 128 -43 222.5t-122 149.5t-179 81t-224 26h-733v-418zM588 1081h618q75 0 140 -11.5t123.5 -38t100 -67.5t65.5 -104t24 -143q0 -81 -24 -144t-65 -104t-99.5 -68t-123.5 -38 t-141 -11h-618v191h626v348h-626v190zM90 778h260v543h856q155 0 278 -33t219 -102.5t148 -188.5t52 -280t-52 -280t-148 -188.5t-219 -102.5t-278 -33h-856v542h-260v123zM-23 543h261v-545h968q145 0 266 24.5t222.5 79.5t172 138t109.5 204t39 273t-39 273t-109.5 204 t-172 138t-222.5 79.5t-266 24.5h-968v-545h-261v-348zM-74 492v450h260v545h1020q101 0 183.5 -9t174.5 -35t173.5 -70.5t170 -117.5t175.5 -174q182 -182 182 -569q0 -202 -62.5 -351t-178 -238.5t-268 -132t-345.5 -42.5h-1014l-211 199v346h-49zM1464 731v-274 q144 79 144 260q0 43 -13 90q-85 24 -184 24h-47z" />
<glyph unicode="&#xd1;" horiz-adv-x="2160" d="M1294 1794q-56 -67 -133 -125.5t-139 -58.5q-58 0 -110 24t-84 52.5t-72.5 52.5t-77.5 24q-27 0 -53.5 -17t-40.5 -33.5t-35 -45.5h-141q59 66 136 123t138 57q51 0 94 -15t72 -36.5t55.5 -43.5t57.5 -37t65 -15q27 0 52.5 16t41 33.5t35.5 44.5h139zM1106 1907 q-46 -95 -80 -95q-27 0 -67 23t-77.5 51t-92.5 51t-107 23q-67 0 -139.5 -40.5t-132.5 -105t-107 -130.5t-80 -130h395q11 29 34 55.5t48 26.5q13 0 42 -19.5t61.5 -43t92 -43t126.5 -19.5t139 39t132 101.5t107 127t81 128.5h-375zM1389 113l-1104 1013v-1013h-121v1208 h104l1100 -1014v1014h123v-1208h-102zM1606 -2v1438h-351v-871l-948 871h-258v-1438h350v872l951 -872h256zM1073 1958h492l194 -211q-89 -161 -176 -260h74l198 -211v-1528h-319l-887 813v-813h-440l-211 199v1540h174l-33 16q32 63 74 128t98 134.5t114.5 123t126.5 88 t130 34.5q46 0 97.5 -18t79 -34t77.5 -48q52 -35 76 -35q19 -2 34.5 18.5t21.5 41.5zM852 1305h-328l680 -623v580q-143 6 -268 102l-31 22q-11 0 -26.5 -26t-26.5 -55z" />
<glyph unicode="&#xd2;" horiz-adv-x="2465" d="M918 1800l258 -192h-142q-50 36 -140.5 103.5t-119.5 88.5h144zM547 1874l452 -340h416l-442 340h-426zM1120 238q124 0 224 26t178 81t121 149.5t43 222.5t-43 222.5t-121.5 149.5t-178.5 81t-223 26h-225q-124 0 -224 -26t-178.5 -81t-121.5 -149.5t-43 -222.5 q0 -129 43 -223.5t121.5 -149.5t178.5 -80.5t224 -25.5h225zM1120 352h-225q-76 0 -141 11t-123.5 38t-99.5 68t-65 104t-24 144q0 80 24 143t65.5 104t100 67.5t123.5 38t140 11.5h225q75 0 140 -11.5t123 -38t99 -67.5t65 -104t24 -143q0 -99 -35.5 -172t-99.5 -114 t-142 -60t-174 -19zM199 717q0 161 52 280t147.5 188.5t218.5 102.5t278 33h225q122 0 225 -20.5t191 -66t149 -114.5t95.5 -171.5t34.5 -231.5t-34.5 -231.5t-95.5 -171.5t-149 -114.5t-191 -66t-225 -20.5h-225q-155 0 -278 33t-218.5 102.5t-147.5 188.5t-52 280zM84 717 q0 -152 39 -273t110 -204t172.5 -138t223 -79.5t266.5 -24.5h225q182 0 326.5 40.5t253.5 124t168 224t59 330.5t-59 330.5t-168 224t-253.5 124t-326.5 40.5h-225q-145 0 -266.5 -24.5t-223 -79.5t-172.5 -138t-110 -204t-39 -273zM360 1925h627l576 -442 q69 -66 144.5 -132.5t137.5 -125t144 -146.5q188 -188 188 -567q0 -202 -62 -351t-177.5 -238.5t-267.5 -132t-345 -42.5h-225q-458 0 -672 211q-225 198 -310 367.5t-85 390.5q0 163 41.5 292.5t116.5 218.5t183 147.5t237.5 85t283.5 26.5h23zM1120 403q67 0 124.5 10 t109 33t88 58.5t57.5 89.5t21 123q0 46 -13 90q-82 24 -182 24h-225q-85 0 -156 -16.5t-129 -52.5t-90.5 -99.5t-32.5 -150.5q0 -49 8 -82q86 -27 195 -27h225z" />
<glyph unicode="&#xd3;" horiz-adv-x="2465" d="M1188 1800q-29 -21 -119.5 -88.5t-140.5 -103.5h-142l258 192h144zM989 1874l-442 -340h416l452 340h-426zM1120 238q124 0 224 26t178 81t121 149.5t43 222.5t-43 222.5t-121.5 149.5t-178.5 81t-223 26h-225q-124 0 -224 -26t-178.5 -81t-121.5 -149.5t-43 -222.5 q0 -129 43 -223.5t121.5 -149.5t178.5 -80.5t224 -25.5h225zM1120 352h-225q-76 0 -141 11t-123.5 38t-99.5 68t-65 104t-24 144q0 80 24 143t65.5 104t100 67.5t123.5 38t140 11.5h225q75 0 140 -11.5t123 -38t99 -67.5t65 -104t24 -143q0 -99 -35.5 -172t-99.5 -114 t-142 -60t-174 -19zM199 717q0 161 52 280t147.5 188.5t218.5 102.5t278 33h225q122 0 225 -20.5t191 -66t149 -114.5t95.5 -171.5t34.5 -231.5t-34.5 -231.5t-95.5 -171.5t-149 -114.5t-191 -66t-225 -20.5h-225q-155 0 -278 33t-218.5 102.5t-147.5 188.5t-52 280zM84 717 q0 -152 39 -273t110 -204t172.5 -138t223 -79.5t266.5 -24.5h225q182 0 326.5 40.5t253.5 124t168 224t59 330.5t-59 330.5t-168 224t-253.5 124t-326.5 40.5h-225q-145 0 -266.5 -24.5t-223 -79.5t-172.5 -138t-110 -204t-39 -273zM975 1925h594l186 -211l-342 -256 q78 -18 134.5 -38t128 -59.5t147.5 -107.5t164 -168q92 -92 141 -240t49 -333q0 -202 -62 -351t-177.5 -238.5t-267.5 -132t-345 -42.5h-225q-480 0 -690 207q-114 101 -189 192.5t-116 185t-56.5 182.5t-15.5 202q0 544 448 706l-84 60zM1120 403q67 0 124.5 10t109 33 t88 58.5t57.5 89.5t21 123q0 46 -13 90q-82 24 -182 24h-225q-85 0 -156 -16.5t-129 -52.5t-90.5 -99.5t-32.5 -150.5q0 -49 8 -82q86 -27 195 -27h225z" />
<glyph unicode="&#xd4;" horiz-adv-x="2465" d="M1051 1845q58 -39 170 -117.5t170 -117.5h-115l-270 172l-273 -172h-112l340 235h90zM930 1944l-604 -406h467l213 143l211 -143h466l-602 406h-151zM1120 238q124 0 224 26t178 81t121 149.5t43 222.5t-43 222.5t-121.5 149.5t-178.5 81t-223 26h-225q-124 0 -224 -26 t-178.5 -81t-121.5 -149.5t-43 -222.5q0 -129 43 -223.5t121.5 -149.5t178.5 -80.5t224 -25.5h225zM1120 352h-225q-76 0 -141 11t-123.5 38t-99.5 68t-65 104t-24 144q0 80 24 143t65.5 104t100 67.5t123.5 38t140 11.5h225q75 0 140 -11.5t123 -38t99 -67.5t65 -104 t24 -143q0 -99 -35.5 -172t-99.5 -114t-142 -60t-174 -19zM199 717q0 161 52 280t147.5 188.5t218.5 102.5t278 33h225q122 0 225 -20.5t191 -66t149 -114.5t95.5 -171.5t34.5 -231.5t-34.5 -231.5t-95.5 -171.5t-149 -114.5t-191 -66t-225 -20.5h-225q-155 0 -278 33 t-218.5 102.5t-147.5 188.5t-52 280zM84 717q0 -152 39 -273t110 -204t172.5 -138t223 -79.5t266.5 -24.5h225q182 0 326.5 40.5t253.5 124t168 224t59 330.5t-59 330.5t-168 224t-253.5 124t-326.5 40.5h-225q-145 0 -266.5 -24.5t-223 -79.5t-172.5 -138t-110 -204 t-39 -273zM915 1995h181l751 -508l187 -199h-271q5 -5 26.5 -23.5t44 -38.5t69.5 -66.5t104 -106.5q90 -90 130 -221t40 -320q0 -202 -62 -351t-177.5 -238.5t-267.5 -132t-345 -42.5h-225q-472 0 -686 211q-152 134 -236.5 256.5t-114.5 236.5t-30 265q0 439 291 629 l-164 141zM1120 403q67 0 124.5 10t109 33t88 58.5t57.5 89.5t21 123q0 46 -13 90q-82 24 -182 24h-225q-85 0 -156 -16.5t-129 -52.5t-90.5 -99.5t-32.5 -150.5q0 -49 8 -82q86 -27 195 -27h225z" />
<glyph unicode="&#xd5;" horiz-adv-x="2465" d="M1419 1794q-56 -67 -133 -125.5t-139 -58.5q-58 0 -110 24t-84 52.5t-72.5 52.5t-77.5 24q-27 0 -53.5 -17t-40.5 -33.5t-35 -45.5h-142q59 66 136.5 123t138.5 57q51 0 94 -15t72 -36.5t55.5 -43.5t57.5 -37t65 -15q27 0 52.5 16t41 33.5t35.5 44.5h139zM1231 1907 q-46 -95 -80 -95q-27 0 -67 23t-77.5 51t-92.5 51t-107 23q-67 0 -139.5 -40.5t-132.5 -105t-107 -130.5t-80 -130h395q11 29 34 55.5t48 26.5q13 0 42 -19.5t61.5 -43t92 -43t126.5 -19.5t139 39t132 101.5t107 127t81 128.5h-375zM1120 238q124 0 224 26t178 81t121 149.5 t43 222.5t-43 222.5t-121.5 149.5t-178.5 81t-223 26h-225q-124 0 -224 -26t-178.5 -81t-121.5 -149.5t-43 -222.5q0 -129 43 -223.5t121.5 -149.5t178.5 -80.5t224 -25.5h225zM1120 352h-225q-76 0 -141 11t-123.5 38t-99.5 68t-65 104t-24 144q0 80 24 143t65.5 104 t100 67.5t123.5 38t140 11.5h225q75 0 140 -11.5t123 -38t99 -67.5t65 -104t24 -143q0 -99 -35.5 -172t-99.5 -114t-142 -60t-174 -19zM199 717q0 161 52 280t147.5 188.5t218.5 102.5t278 33h225q122 0 225 -20.5t191 -66t149 -114.5t95.5 -171.5t34.5 -231.5t-34.5 -231.5 t-95.5 -171.5t-149 -114.5t-191 -66t-225 -20.5h-225q-155 0 -278 33t-218.5 102.5t-147.5 188.5t-52 280zM84 717q0 -152 39 -273t110 -204t172.5 -138t223 -79.5t266.5 -24.5h225q182 0 326.5 40.5t253.5 124t168 224t59 330.5t-59 330.5t-168 224t-253.5 124t-326.5 40.5 h-225q-145 0 -266.5 -24.5t-223 -79.5t-172.5 -138t-110 -204t-39 -273zM1198 1958h492l194 -211q-120 -225 -270 -361q41 -20 70.5 -37t75.5 -51t103.5 -89.5t131.5 -135.5q182 -182 182 -561q0 -202 -62 -351t-177.5 -238.5t-267.5 -132t-345 -42.5h-225q-482 0 -682 197 q-151 133 -237 259.5t-117 244t-31 268.5q0 487 362 669l-131 117q32 63 74 128t98 134.5t114.5 123t126.5 88t130 34.5q46 0 97.5 -18t79 -34t77.5 -48q70 -47 90 -47zM1120 403q67 0 124.5 10t109 33t88 58.5t57.5 89.5t21 123q0 46 -13 90q-82 24 -182 24h-225 q-85 0 -156 -16.5t-129 -52.5t-90.5 -99.5t-32.5 -150.5q0 -49 8 -82q86 -27 195 -27h225z" />
<glyph unicode="&#xd6;" horiz-adv-x="2459" d="M1157 1651v116h129v-116h-129zM1401 1538v342h-359v-342h359zM662 1651v116h129v-116h-129zM903 1538v342h-356v-342h356zM1120 238q124 0 224 26t178 81t121 149.5t43 222.5t-43 222.5t-121.5 149.5t-178.5 81t-223 26h-225q-124 0 -224 -26t-178.5 -81t-121.5 -149.5 t-43 -222.5q0 -129 43 -223.5t121.5 -149.5t178.5 -80.5t224 -25.5h225zM1120 352h-225q-76 0 -141 11t-123.5 38t-99.5 68t-65 104t-24 144q0 80 24 143t65.5 104t100 67.5t123.5 38t140 11.5h225q75 0 140 -11.5t123 -38t99 -67.5t65 -104t24 -143q0 -99 -35.5 -172 t-99.5 -114t-142 -60t-174 -19zM199 717q0 161 52 280t147.5 188.5t218.5 102.5t278 33h225q122 0 225 -20.5t191 -66t149 -114.5t95.5 -171.5t34.5 -231.5t-34.5 -231.5t-95.5 -171.5t-149 -114.5t-191 -66t-225 -20.5h-225q-155 0 -278 33t-218.5 102.5t-147.5 188.5 t-52 280zM84 717q0 -152 39 -273t110 -204t172.5 -138t223 -79.5t266.5 -24.5h225q182 0 326.5 40.5t253.5 124t168 224t59 330.5t-59 330.5t-168 224t-253.5 124t-326.5 40.5h-225q-145 0 -266.5 -24.5t-223 -79.5t-172.5 -138t-110 -204t-39 -273zM1651 1720v-352 q39 -23 58.5 -35.5t61 -44.5t94 -83.5t122.5 -127.5q190 -190 190 -565q0 -202 -62 -351t-177.5 -238.5t-267.5 -132t-345 -42.5h-225q-220 0 -404.5 52t-294.5 161q-114 101 -187.5 191.5t-112.5 183t-53.5 179.5t-14.5 202q0 302 135 482t381 247l-53 41v444h458l37 -49 v49h461zM1120 403q67 0 124.5 10t109 33t88 58.5t57.5 89.5t21 123q0 46 -13 90q-82 24 -182 24h-225q-85 0 -156 -16.5t-129 -52.5t-90.5 -99.5t-32.5 -150.5q0 -49 8 -82q86 -27 195 -27h225z" />
<glyph unicode="&#xd8;" horiz-adv-x="2500" d="M1815 717q0 -129 -34.5 -231.5t-95.5 -171.5t-149 -114.5t-191 -66t-225 -20.5h-225q-123 0 -226.5 20.5t-191.5 66.5t-149 115.5t-95 171.5t-34 230q0 161 52 280t147.5 188.5t218.5 102.5t278 33h225q155 0 279 -34.5t218.5 -105t146 -188.5t51.5 -276zM1432 1141 l-723 -887q115 -16 135 -16h276q124 0 224 26t178 81t121 149.5t43 222.5q0 156 -59 254t-195 170zM1120 1196h-225q-124 0 -224 -26t-178.5 -81t-121.5 -149.5t-43 -222.5q0 -158 57.5 -254t194.5 -170q120 148 361.5 443.5t361.5 443.5q-16 2 -56.5 6.5t-70 7t-56.5 2.5z M442 717q0 80 24 143t65.5 104t100 67.5t123.5 38t140 11.5h178l-518 -635q-113 91 -113 271zM1120 352h-184l518 635q117 -94 117 -270q0 -99 -35.5 -172t-99.5 -114t-142 -60t-174 -19zM647 -2l15 18q117 -18 233 -18h225q182 0 326.5 40.5t253.5 124t168 224t59 330.5 q0 173 -56 319t-179 242l129 158h-457l-14 -19q-120 19 -230 19h-225q-145 0 -266.5 -24.5t-223 -79.5t-172.5 -138t-110 -204t-39 -273q0 -173 56 -319t179 -242l-129 -158h457zM299 -252l-217 199l166 205q-111 105 -163 252t-52 313q0 163 41.5 292.5t116.5 218.5 t183 147.5t237.5 85t283.5 26.5h225q94 0 209 -14l8 14h592l193 -211l-162 -199l16 -16q102 -104 151.5 -247.5t49.5 -301.5q0 -202 -62 -351t-177.5 -238.5t-267.5 -132t-345 -42.5h-225q-96 0 -215 14l-11 -14h-575z" />
<glyph unicode="&#xd9;" horiz-adv-x="2643" d="M887 1800l258 -192h-141q-51 37 -145 106.5t-116 85.5h144zM516 1874l453 -340h415l-442 340h-426zM190 1321h132v-604q0 -128 42.5 -222.5t121 -149.5t178 -81t223.5 -26h225q123 0 223 26t178.5 81t122 149.5t43.5 222.5v604h129v-604q0 -130 -34.5 -232.5t-96 -171.5 t-149.5 -114.5t-191 -65.5t-225 -20h-225q-155 0 -278 33t-219 102.5t-148 188.5t-52 280v604zM78 717q0 -152 39 -273t109.5 -204t172 -138t222.5 -79.5t266 -24.5h225q145 0 266 24.5t222.5 79.5t172 138t109.5 204t39 273v719h-356v-719q0 -81 -24 -144t-65 -104 t-99.5 -68t-123.5 -38t-141 -11h-225q-96 0 -174 19t-142 60t-99.5 114t-35.5 172v719h-358v-719zM334 1925h622l570 -438h446l199 -211v-764q0 -202 -62.5 -351t-178 -238.5t-268 -132t-345.5 -42.5h-225q-216 0 -396 54.5t-290 164.5q-115 99 -189.5 187.5t-116 180 t-57.5 180t-16 202.5v770h460l199 -211v-764q0 -57 6 -82q88 -27 195 -27h225q67 0 124.5 9.5t109.5 32.5t88 58.5t57.5 90t21.5 123.5v567h-356z" />
<glyph unicode="&#xda;" horiz-adv-x="2643" d="M1231 1800q-29 -21 -119.5 -88.5t-140.5 -103.5h-142l258 192h144zM1032 1874l-442 -340h416l452 340h-426zM190 1321h132v-604q0 -128 42.5 -222.5t121 -149.5t178 -81t223.5 -26h225q123 0 223 26t178.5 81t122 149.5t43.5 222.5v604h129v-604q0 -130 -34.5 -232.5 t-96 -171.5t-149.5 -114.5t-191 -65.5t-225 -20h-225q-155 0 -278 33t-219 102.5t-148 188.5t-52 280v604zM78 717q0 -152 39 -273t109.5 -204t172 -138t222.5 -79.5t266 -24.5h225q145 0 266 24.5t222.5 79.5t172 138t109.5 204t39 273v719h-356v-719q0 -81 -24 -144 t-65 -104t-99.5 -68t-123.5 -38t-141 -11h-225q-96 0 -174 19t-142 60t-99.5 114t-35.5 172v719h-358v-719zM1018 1925h594l186 -211l-571 -430h-549l8 -8v-764q0 -57 6 -82q88 -27 195 -27h225q67 0 124.5 9.5t109.5 32.5t88 58.5t57.5 90t21.5 123.5v770h459l199 -211 v-764q0 -202 -62.5 -351t-178 -238.5t-268 -132t-345.5 -42.5h-225q-479 0 -678 199q-115 99 -191 191t-119 186.5t-60 186.5t-17 206v770h417z" />
<glyph unicode="&#xdb;" horiz-adv-x="2643" d="M1038 1845q58 -39 170.5 -117.5t169.5 -117.5h-114l-271 172l-272 -172h-113l340 235h90zM918 1944l-605 -406h467l213 143l211 -143h467l-602 406h-151zM190 1321h132v-604q0 -128 42.5 -222.5t121 -149.5t178 -81t223.5 -26h225q123 0 223 26t178.5 81t122 149.5 t43.5 222.5v604h129v-604q0 -130 -34.5 -232.5t-96 -171.5t-149.5 -114.5t-191 -65.5t-225 -20h-225q-155 0 -278 33t-219 102.5t-148 188.5t-52 280v604zM78 717q0 -152 39 -273t109.5 -204t172 -138t222.5 -79.5t266 -24.5h225q145 0 266 24.5t222.5 79.5t172 138 t109.5 204t39 273v719h-356v-719q0 -81 -24 -144t-65 -104t-99.5 -68t-123.5 -38t-141 -11h-225q-96 0 -174 19t-142 60t-99.5 114t-35.5 172v719h-358v-719zM903 1995h180l752 -508h137v-12l199 -199v-764q0 -202 -62.5 -351t-178 -238.5t-268 -132t-345.5 -42.5h-225 q-445 0 -662 217l-145 144q-258 193 -258 608v770h120zM1513 717v571h-116l-199 135l-201 -135h-323l12 -12v-764q0 -57 6 -82q88 -27 195 -27h225q67 0 124.5 9.5t109.5 32.5t88 58.5t57.5 90t21.5 123.5zM494 246q24 -14 32 -17l-47 45z" />
<glyph unicode="&#xdc;" horiz-adv-x="2643" d="M1194 1651v116h129v-116h-129zM1438 1538v342h-359v-342h359zM698 1651v116h129v-116h-129zM940 1538v342h-356v-342h356zM190 1321h132v-604q0 -128 42.5 -222.5t121 -149.5t178 -81t223.5 -26h225q123 0 223 26t178.5 81t122 149.5t43.5 222.5v604h129v-604 q0 -130 -34.5 -232.5t-96 -171.5t-149.5 -114.5t-191 -65.5t-225 -20h-225q-155 0 -278 33t-219 102.5t-148 188.5t-52 280v604zM78 717q0 -152 39 -273t109.5 -204t172 -138t222.5 -79.5t266 -24.5h225q145 0 266 24.5t222.5 79.5t172 138t109.5 204t39 273v719h-356v-719 q0 -81 -24 -144t-65 -104t-99.5 -68t-123.5 -38t-141 -11h-225q-96 0 -174 19t-142 60t-99.5 114t-35.5 172v719h-358v-719zM27 717v770h460l199 -211v-764q0 -57 6 -82q88 -27 195 -27h225q67 0 124.5 9.5t109.5 32.5t88 58.5t57.5 90t21.5 123.5v571h-274l-49 49v-49h-447 l-211 199v444h459l37 -49v49h461l199 -211v-233h284l199 -211v-764q0 -202 -62.5 -351t-178 -238.5t-268 -132t-345.5 -42.5h-225q-479 0 -686 207q-114 99 -189 189.5t-116.5 184t-57.5 183.5t-16 205z" />
<glyph unicode="&#xdd;" horiz-adv-x="2299" d="M1192 1800q-29 -21 -119.5 -88.5t-140.5 -103.5h-141l258 192h143zM993 1874l-442 -340h416l452 340h-426zM915 621l-708 700h180l594 -584l584 584h178l-701 -698v-510h-127v508zM803 -2h354v577l858 861h-495l-541 -545l-549 545h-500l873 -865v-573zM979 1925h594 l186 -211l-571 -430h-535l324 -321l520 524h643l191 -211l-924 -924v-604h-444l-211 199v604q-117 117 -451 445.5t-496 490.5h601z" />
<glyph unicode="&#xde;" horiz-adv-x="2488" d="M299 1016v-576h852q155 0 250.5 69.5t95.5 219.5q0 77 -27 133.5t-75.5 89.5t-109 48.5t-134.5 15.5h-852zM1151 901q47 0 85.5 -8t73.5 -26.5t54.5 -53.5t19.5 -84t-19.5 -85t-53.5 -55t-73.5 -27.5t-86.5 -8.5h-739v348h739zM172 113v1208h127v-176h852 q106 0 191 -22.5t151 -70.5t101.5 -130t35.5 -193t-35.5 -193t-101.5 -130t-151 -70.5t-191 -22.5h-852v-200h-127zM412 -2v201h739q135 0 240.5 30t185 92t122 165t42.5 243t-42.5 243t-122.5 164.5t-185.5 91t-239.5 29.5h-739v179h-351v-1438h351zM221 -252l-211 199 v1540h453l166 -178h522q79 0 139.5 -6.5t132 -27.5t135.5 -58.5t138.5 -101.5t152.5 -154q69 -69 105.5 -183t36.5 -254q0 -152 -45.5 -264t-131 -179.5t-199.5 -99.5t-259 -32h-694v-201h-441zM662 651v-47h489q110 0 154 47h-643z" />
<glyph unicode="&#xdf;" horiz-adv-x="2146" d="M240 -252l-211 199v909q0 112 49 209.5t128.5 164.5t181 115.5t206.5 71.5t205 23q56 0 102 -2.5t111.5 -11.5t122.5 -25t126 -45t132 -69t132 -99.5t132 -134.5q53 -53 86 -138.5t33 -175.5q0 -122 -62 -200l62 -60q106 -106 106 -254q0 -85 -29 -156.5t-77.5 -121.5 t-116 -89.5t-139.5 -63.5t-153.5 -39t-152.5 -21t-141 -6q-188 0 -407 86v-66h-426zM80 -2h336v84q224 -105 452 -105q67 0 134 5.5t143.5 19.5t144.5 35.5t132 57.5t109.5 82t73 111t27.5 142q0 184 -194 301q88 85 88 213q0 74 -26 136.5t-70 107.5t-104.5 80.5 t-125.5 57.5t-137.5 36.5t-137 20.5t-126.5 6q-94 0 -192 -21t-192.5 -65t-169 -105.5t-120 -150.5t-45.5 -191v-858zM549 381l-133 -139v614q0 55 43.5 96t109.5 61.5t126 30t110 9.5q25 0 52 -1t75 -4t89 -10.5t80 -19t62 -30.5t23 -44l-92 -39l2 2q-79 -25 -134 -77 t-55 -125q0 -45 20 -82.5t54.5 -63.5t72.5 -43.5t81 -28.5h-5q99 -29 164 -57q-1 -38 -53.5 -64t-132 -36.5t-135.5 -14.5t-101 -4q-180 0 -323 70zM578 244q143 -47 294 -47q54 0 113 4.5t137.5 19.5t138.5 39t102 68t42 102q0 47 -39.5 80.5t-96.5 52t-113.5 35.5 t-96 43.5t-39.5 63.5q0 26 28.5 49t69.5 41.5t82 38.5t69.5 48.5t28.5 61.5q0 55 -38.5 97t-93.5 65t-126 37.5t-125.5 19t-103.5 4.5q-57 0 -122 -10t-134 -34.5t-124 -59t-90.5 -88.5t-35.5 -119v-745h-110v745q0 74 29.5 138t80.5 108t115.5 78.5t137 54t142 29.5 t134.5 10t136 -9t151.5 -32.5t143.5 -59t104.5 -95t41.5 -134.5q0 -109 -201 -237q49 -20 93.5 -43.5t97.5 -59.5t85 -81.5t32 -92.5q0 -70 -32.5 -126.5t-89 -92t-121.5 -60.5t-142.5 -37t-140 -17t-124.5 -5q-191 0 -368 74zM666 651v-258q97 -31 206 -31q131 0 226 11 q-146 134 -194 199.5t-48 132.5q0 43 16 83q-88 -14 -147 -48t-59 -89z" />
<glyph unicode="&#xe0;" d="M1081 1800l258 -192h-141q-50 36 -140.5 103.5t-119.5 88.5h143zM711 1874l452 -340h416l-442 340h-426zM713 557h874l-432 612zM1151 975l215 -307h-434zM2046 113h-154l-221 317h-1046q-38 -52 -112 -158.5t-112 -158.5h-163q92 129 396.5 552t467.5 656h98zM1262 1436 h-215l-1024 -1438h434l225 317h926l223 -317h434zM530 1925h621l575 -442l189 -199h-432l1073 -1536h-545l-207 199l-84 119h-809q-218 -307 -225 -318h-547l-217 199l1098 1540h61z" />
<glyph unicode="&#xe1;" d="M1352 1800q-29 -21 -119.5 -88.5t-140.5 -103.5h-142l258 192h144zM1153 1874l-442 -340h415l453 340h-426zM713 557h874l-432 612zM1151 975l215 -307h-434zM2046 113h-154l-221 317h-1046q-38 -52 -112 -158.5t-112 -158.5h-163q92 129 396.5 552t467.5 656h98z M1262 1436h-215l-1024 -1438h434l225 317h926l223 -317h434zM1139 1925h594l186 -211l-496 -373l68 -65l1065 -1528h-545l-207 199l-84 119h-809q-218 -307 -225 -318h-547l-217 199l952 1337h-90l-223 199z" />
<glyph unicode="&#xe2;" d="M1210 1845q57 -39 169.5 -117.5t170.5 -117.5h-114l-271 172l-272 -172h-113l340 235h90zM1090 1944l-605 -406h467l213 143l211 -143h467l-602 406h-151zM713 557h874l-432 612zM1151 975l215 -307h-434zM2046 113h-154l-221 317h-1046q-38 -52 -112 -158.5t-112 -158.5 h-163q92 129 396.5 552t467.5 656h98zM1262 1436h-215l-1024 -1438h434l225 317h926l223 -317h434zM1075 1995h180l752 -508l186 -199h-624h-86l1073 -1540h-545l-207 199l-84 119h-809q-218 -307 -225 -318h-547l-217 199l957 1341h-334l-226 199z" />
<glyph unicode="&#xe3;" d="M1612 1794q-55 -66 -133 -125t-140 -59q-58 0 -110 24t-84 52.5t-72.5 52.5t-77.5 24q-27 0 -53.5 -17t-40.5 -33.5t-35 -45.5h-141q59 66 136 123t138 57q51 0 94 -15t72 -36.5t55.5 -43.5t57.5 -37t65 -15q62 0 130 94h139zM1438 1907h-4q-46 -95 -91 -95q-27 0 -67 23 t-77.5 51t-92.5 51t-107 23q-67 0 -139 -40.5t-132 -105t-107 -130.5t-80 -130h395q11 29 34 55.5t48 26.5q13 0 42 -19.5t61 -43t91.5 -43t126.5 -19.5t139 39t132 101.5t107 127t81 128.5h-360zM713 557h874l-432 612zM1151 975l215 -307h-434zM2046 113h-154l-221 317 h-1046q-38 -52 -112 -158.5t-112 -158.5h-163q92 129 396.5 552t467.5 656h98zM1262 1436h-215l-1024 -1438h434l225 317h926l223 -317h434zM1391 1958h491l195 -211q-34 -65 -74.5 -128t-99.5 -133.5t-120 -121t-136 -80t-148 -20.5l1057 -1516h-545l-207 199l-84 119h-809 q-218 -307 -225 -318h-547l-217 199l967 1358h-217l-215 198q32 63 73.5 128t98 134.5t114.5 123t126 88t130 34.5q46 0 97.5 -18t79 -34t77.5 -48q5 -3 14.5 -10t14 -10t12 -7.5t11.5 -6.5t9.5 -4.5t10 -3.5t8.5 -1q12 2 26.5 24.5t22.5 43.5z" />
<glyph unicode="&#xe4;" d="M1346 1651v116h129v-116h-129zM1589 1538v342h-358v-342h358zM850 1651v116h129v-116h-129zM1092 1538v342h-357v-342h357zM713 557h874l-432 612zM1151 975l215 -307h-434zM2046 113h-154l-221 317h-1046q-38 -52 -112 -158.5t-112 -158.5h-163q92 129 396.5 552 t467.5 656h98zM1262 1436h-215l-1024 -1438h434l225 317h926l223 -317h434zM139 -252l-217 199l963 1351l-201 189v444h459l37 -49v49h460l199 -211v-432h-360l12 -12l1065 -1528h-545l-207 199l-84 119h-809q-218 -307 -225 -318h-547z" />
<glyph unicode="&#xe5;" d="M1049 1743q0 -92 94 -92q49 0 73.5 21.5t24.5 70.5t-24.5 70.5t-73.5 21.5q-94 0 -94 -92zM981 1745q0 76 43 113.5t119 37.5q170 0 170 -151q0 -150 -164 -150q-168 0 -168 150zM866 1745q0 -260 277 -260q139 0 211.5 60.5t72.5 199.5q0 133 -73 197.5t-205 64.5 q-135 0 -209 -63.5t-74 -198.5zM713 557h874l-432 612zM1151 975l215 -307h-434zM2046 113h-154l-221 317h-1046q-38 -52 -112 -158.5t-112 -158.5h-163q92 129 396.5 552t467.5 656h98zM1262 1436h-215l-1024 -1438h434l225 317h926l223 -317h434zM815 1745q0 313 334 313 q41 0 63 -1.5t58 -8.5t64.5 -23t68.5 -43.5t85 -72.5t99 -107q37 -37 63.5 -112.5t26.5 -149.5q0 -227 -174 -285l1053 -1507h-545l-207 199l-84 119h-809q-218 -307 -225 -318h-547l-217 199l1059 1485l-43 45q-123 72 -123 268z" />
<glyph unicode="&#xe6;" horiz-adv-x="2959" d="M1038 557v549l-393 -549h393zM862 668l64 92v-92h-64zM1165 778h850v-123h-850v-417h1061v-125h-1188v317h-479q-26 -36 -71 -100.5t-83 -117.5t-73 -99h-158q143 201 430.5 603.5t429.5 604.5h1192v-125h-1061v-418zM1278 1081h1063v355h-1360l-1024 -1438h432l221 317 h316v-317h1415v354h-1063v191h850v348h-850v190zM74 -252l-217 199l1097 1540h1438l199 -211v-445h-314l101 -100v-328h14l199 -210v-445h-1506l-211 199v119h-36l-220 -318h-544z" />
<glyph unicode="&#xe7;" horiz-adv-x="2449" d="M1040 -113l58 2q211 0 211 -139q0 -42 -17.5 -73.5t-48.5 -49.5t-66.5 -30t-79.5 -16.5t-79.5 -6.5t-73.5 -2h-22v82q140 0 197 14q85 21 85 72q0 18 -11.5 31t-31.5 20t-43 11t-51.5 4t-50.5 -0.5t-46.5 -1.5t-33.5 -1v308q-95 4 -172 12.5t-156.5 28t-140 49t-115.5 76 t-90 107t-55.5 145t-20.5 188.5q0 161 52 280t148 188.5t219 102.5t278 33h223q104 0 184 -8.5t169.5 -32t163 -74.5t128.5 -127q-53 -30 -131 -82q-175 199 -514 199h-223q-124 0 -224 -26t-179 -81t-122 -149.5t-43 -222.5q0 -104 28.5 -185.5t79 -136t123 -90.5 t155.5 -51.5t182 -15.5h223q340 0 514 198l131 -82q-35 -49 -79.5 -87.5t-88 -63.5t-102 -42.5t-104 -27t-113 -14t-111 -5.5t-113.5 -1v-226zM834 -526q187 0 254 7q267 29 309 198q8 33 8 71q0 105 -55 171t-158 79q498 10 719 391l-326 193q-160 -232 -479 -232h-223 q-76 0 -141 11t-123.5 38t-99.5 68t-65 104t-24 144q0 80 24 143t65.5 104t100 67.5t123.5 38t140 11.5h223q320 0 479 -231l326 192q-55 94 -123 163.5t-141 113t-163 70.5t-179.5 37t-198.5 10h-223q-145 0 -266.5 -24.5t-223 -79.5t-172.5 -138t-110 -204t-39 -273 q0 -181 54 -317.5t155.5 -222.5t239.5 -129.5t313 -47.5v-526zM782 -578v359q-114 26 -221 77.5t-172 116.5q-114 97 -187 183.5t-113 177t-54.5 178t-14.5 203.5q0 163 41.5 292.5t116.5 218.5t183.5 147.5t238 85t283.5 26.5h223q89 0 154 -4.5t145 -18.5t148.5 -43 t145 -74.5t155.5 -116t161 -165.5q14 -14 29.5 -33.5t26.5 -35t29 -44.5t25.5 -41.5t27.5 -47.5l24 -42l-399 -235l-156 155q-139 90 -311 90h-224q-85 0 -155.5 -16.5t-128.5 -52.5t-90.5 -99.5t-32.5 -150.5q0 -49 8 -82q86 -27 195 -27h223q294 0 467 248l409 -241 l195 -207q-220 -374 -602 -439l4 -4q76 -76 76 -215q0 -67 -21.5 -119t-51 -85t-83.5 -56.5t-95.5 -35t-111.5 -17.5t-107.5 -7t-105.5 -1h-6h-80z" />
<glyph unicode="&#xe8;" horiz-adv-x="2254" d="M784 1800l258 -192h-141q-50 36 -140.5 103.5t-119.5 88.5h143zM414 1874l452 -340h416l-442 340h-426zM295 778h1042v-123h-1042v-417h1255v-125h-1382v1208h1380v-125h-1253v-418zM408 1081h1255v355h-1610v-1438h1612v354h-1257v191h1042v348h-1042v190zM231 1925h623 l569 -438h291l199 -211v-445h-314l101 -100v-328h16l199 -210v-445h-1702l-211 199v1540h786z" />
<glyph unicode="&#xe9;" horiz-adv-x="2254" d="M1090 1800q-22 -16 -116 -85.5t-145 -106.5h-141l258 192h144zM891 1874l-442 -340h415l453 340h-426zM295 778h1042v-123h-1042v-417h1255v-125h-1382v1208h1380v-125h-1253v-418zM408 1081h1255v355h-1610v-1438h1612v354h-1257v191h1042v348h-1042v190zM877 1925h593 l187 -211l-303 -227h360l199 -211v-445h-314l101 -100v-328h16l199 -210v-445h-1702l-211 199v1540h301z" />
<glyph unicode="&#xea;" horiz-adv-x="2254" d="M920 1845q57 -39 169.5 -117.5t170.5 -117.5h-115l-271 172l-272 -172h-113l340 235h91zM799 1944l-604 -406h467l212 143l211 -143h467l-602 406h-151zM295 778h1042v-123h-1042v-417h1255v-125h-1382v1208h1380v-125h-1253v-418zM408 1081h1255v355h-1610v-1438h1612 v354h-1257v191h1042v348h-1042v190zM784 1995h181l751 -508l197 -211v-445h-314l101 -100v-328h16l199 -210v-445h-1702l-211 199v1540z" />
<glyph unicode="&#xeb;" horiz-adv-x="2254" d="M1065 1651v116h129v-116h-129zM1309 1538v342h-359v-342h359zM569 1651v116h129v-116h-129zM811 1538v342h-356v-342h356zM295 778h1042v-123h-1042v-417h1255v-125h-1382v1208h1380v-125h-1253v-418zM408 1081h1255v355h-1610v-1438h1612v354h-1257v191h1042v348h-1042 v190zM1559 1720v-233h155l199 -211v-445h-314l101 -100v-328h16l199 -210v-445h-1702l-211 199v1540h401v444h459l37 -49v49h461z" />
<glyph unicode="&#xec;" horiz-adv-x="937" d="M143 1800l258 -192h-141q-50 36 -140.5 103.5t-119.5 88.5h143zM-227 1874l452 -340h416l-442 340h-426zM152 113v1208h122v-1208h-122zM387 -2v1438h-348v-1438h348zM164 1487l-545 438h594l575 -442l189 -199h-348l8 -8v-1528h-438l-211 199v1540h176z" />
<glyph unicode="&#xed;" horiz-adv-x="937" d="M410 1800q-29 -21 -119.5 -88.5t-140.5 -103.5h-142l258 192h144zM211 1874l-442 -340h415l453 340h-426zM152 113v1208h122v-1208h-122zM387 -2v1438h-348v-1438h348zM197 1925h594l186 -211l-445 -334l105 -104v-1528h-438l-211 199v1337h-146l-223 199z" />
<glyph unicode="&#xee;" horiz-adv-x="937" d="M260 1845q58 -39 170 -117.5t170 -117.5h-115l-270 172l-272 -172h-113l340 235h90zM139 1944l-604 -406h467l213 143l211 -143h467l-602 406h-152zM152 113v1208h122v-1208h-122zM387 -2v1438h-348v-1438h348zM125 1995h180l752 -508l186 -199h-606v-12v-1528h-438 l-211 199v1341h-394l-225 199z" />
<glyph unicode="&#xef;" horiz-adv-x="937" d="M391 1651v116h129v-116h-129zM635 1538v342h-359v-342h359zM-104 1651v116h129v-116h-129zM137 1538v342h-356v-342h356zM152 113v1208h122v-1208h-122zM387 -2v1438h-348v-1438h348zM-59 1288l-211 199v444h458l37 -49v49h461l199 -211v-432h-248v-12v-1528h-438 l-211 199v1341h-47z" />
<glyph unicode="&#xf0;" horiz-adv-x="2621" d="M473 778h629v-123h-629v-417h733q99 0 182 15.5t155.5 51.5t123 90.5t79 136t28.5 185.5q0 128 -43 222.5t-122 149.5t-179 81t-224 26h-733v-418zM588 1081h618q75 0 140 -11.5t123.5 -38t100 -67.5t65.5 -104t24 -143q0 -81 -24 -144t-65 -104t-99.5 -68t-123.5 -38 t-141 -11h-618v191h626v348h-626v190zM90 778h260v543h856q155 0 278 -33t219 -102.5t148 -188.5t52 -280t-52 -280t-148 -188.5t-219 -102.5t-278 -33h-856v542h-260v123zM-23 543h261v-545h968q145 0 266 24.5t222.5 79.5t172 138t109.5 204t39 273t-39 273t-109.5 204 t-172 138t-222.5 79.5t-266 24.5h-968v-545h-261v-348zM-74 492v450h260v545h1020q101 0 183.5 -9t174.5 -35t173.5 -70.5t170 -117.5t175.5 -174q182 -182 182 -569q0 -202 -62.5 -351t-178 -238.5t-268 -132t-345.5 -42.5h-1014l-211 199v346h-49zM1464 731v-274 q144 79 144 260q0 43 -13 90q-85 24 -184 24h-47z" />
<glyph unicode="&#xf1;" horiz-adv-x="2160" d="M1294 1794q-56 -67 -133 -125.5t-139 -58.5q-58 0 -110 24t-84 52.5t-72.5 52.5t-77.5 24q-27 0 -53.5 -17t-40.5 -33.5t-35 -45.5h-141q59 66 136 123t138 57q51 0 94 -15t72 -36.5t55.5 -43.5t57.5 -37t65 -15q27 0 52.5 16t41 33.5t35.5 44.5h139zM1106 1907 q-46 -95 -80 -95q-27 0 -67 23t-77.5 51t-92.5 51t-107 23q-67 0 -139.5 -40.5t-132.5 -105t-107 -130.5t-80 -130h395q11 29 34 55.5t48 26.5q13 0 42 -19.5t61.5 -43t92 -43t126.5 -19.5t139 39t132 101.5t107 127t81 128.5h-375zM1389 113l-1104 1013v-1013h-121v1208 h104l1100 -1014v1014h123v-1208h-102zM1606 -2v1438h-351v-871l-948 871h-258v-1438h350v872l951 -872h256zM1073 1958h492l194 -211q-89 -161 -176 -260h74l198 -211v-1528h-319l-887 813v-813h-440l-211 199v1540h174l-33 16q32 63 74 128t98 134.5t114.5 123t126.5 88 t130 34.5q46 0 97.5 -18t79 -34t77.5 -48q52 -35 76 -35q19 -2 34.5 18.5t21.5 41.5zM852 1305h-328l680 -623v580q-143 6 -268 102l-31 22q-11 0 -26.5 -26t-26.5 -55z" />
<glyph unicode="&#xf2;" horiz-adv-x="2465" d="M918 1800l258 -192h-142q-50 36 -140.5 103.5t-119.5 88.5h144zM547 1874l452 -340h416l-442 340h-426zM1120 238q124 0 224 26t178 81t121 149.5t43 222.5t-43 222.5t-121.5 149.5t-178.5 81t-223 26h-225q-124 0 -224 -26t-178.5 -81t-121.5 -149.5t-43 -222.5 q0 -129 43 -223.5t121.5 -149.5t178.5 -80.5t224 -25.5h225zM1120 352h-225q-76 0 -141 11t-123.5 38t-99.5 68t-65 104t-24 144q0 80 24 143t65.5 104t100 67.5t123.5 38t140 11.5h225q75 0 140 -11.5t123 -38t99 -67.5t65 -104t24 -143q0 -99 -35.5 -172t-99.5 -114 t-142 -60t-174 -19zM199 717q0 161 52 280t147.5 188.5t218.5 102.5t278 33h225q122 0 225 -20.5t191 -66t149 -114.5t95.5 -171.5t34.5 -231.5t-34.5 -231.5t-95.5 -171.5t-149 -114.5t-191 -66t-225 -20.5h-225q-155 0 -278 33t-218.5 102.5t-147.5 188.5t-52 280zM84 717 q0 -152 39 -273t110 -204t172.5 -138t223 -79.5t266.5 -24.5h225q182 0 326.5 40.5t253.5 124t168 224t59 330.5t-59 330.5t-168 224t-253.5 124t-326.5 40.5h-225q-145 0 -266.5 -24.5t-223 -79.5t-172.5 -138t-110 -204t-39 -273zM360 1925h627l576 -442 q69 -66 144.5 -132.5t137.5 -125t144 -146.5q188 -188 188 -567q0 -202 -62 -351t-177.5 -238.5t-267.5 -132t-345 -42.5h-225q-458 0 -672 211q-225 198 -310 367.5t-85 390.5q0 163 41.5 292.5t116.5 218.5t183 147.5t237.5 85t283.5 26.5h23zM1120 403q67 0 124.5 10 t109 33t88 58.5t57.5 89.5t21 123q0 46 -13 90q-82 24 -182 24h-225q-85 0 -156 -16.5t-129 -52.5t-90.5 -99.5t-32.5 -150.5q0 -49 8 -82q86 -27 195 -27h225z" />
<glyph unicode="&#xf3;" horiz-adv-x="2465" d="M1188 1800q-29 -21 -119.5 -88.5t-140.5 -103.5h-142l258 192h144zM989 1874l-442 -340h416l452 340h-426zM1120 238q124 0 224 26t178 81t121 149.5t43 222.5t-43 222.5t-121.5 149.5t-178.5 81t-223 26h-225q-124 0 -224 -26t-178.5 -81t-121.5 -149.5t-43 -222.5 q0 -129 43 -223.5t121.5 -149.5t178.5 -80.5t224 -25.5h225zM1120 352h-225q-76 0 -141 11t-123.5 38t-99.5 68t-65 104t-24 144q0 80 24 143t65.5 104t100 67.5t123.5 38t140 11.5h225q75 0 140 -11.5t123 -38t99 -67.5t65 -104t24 -143q0 -99 -35.5 -172t-99.5 -114 t-142 -60t-174 -19zM199 717q0 161 52 280t147.5 188.5t218.5 102.5t278 33h225q122 0 225 -20.5t191 -66t149 -114.5t95.5 -171.5t34.5 -231.5t-34.5 -231.5t-95.5 -171.5t-149 -114.5t-191 -66t-225 -20.5h-225q-155 0 -278 33t-218.5 102.5t-147.5 188.5t-52 280zM84 717 q0 -152 39 -273t110 -204t172.5 -138t223 -79.5t266.5 -24.5h225q182 0 326.5 40.5t253.5 124t168 224t59 330.5t-59 330.5t-168 224t-253.5 124t-326.5 40.5h-225q-145 0 -266.5 -24.5t-223 -79.5t-172.5 -138t-110 -204t-39 -273zM975 1925h594l186 -211l-342 -256 q78 -18 134.5 -38t128 -59.5t147.5 -107.5t164 -168q92 -92 141 -240t49 -333q0 -202 -62 -351t-177.5 -238.5t-267.5 -132t-345 -42.5h-225q-480 0 -690 207q-114 101 -189 192.5t-116 185t-56.5 182.5t-15.5 202q0 544 448 706l-84 60zM1120 403q67 0 124.5 10t109 33 t88 58.5t57.5 89.5t21 123q0 46 -13 90q-82 24 -182 24h-225q-85 0 -156 -16.5t-129 -52.5t-90.5 -99.5t-32.5 -150.5q0 -49 8 -82q86 -27 195 -27h225z" />
<glyph unicode="&#xf4;" horiz-adv-x="2465" d="M1051 1845q58 -39 170 -117.5t170 -117.5h-115l-270 172l-273 -172h-112l340 235h90zM930 1944l-604 -406h467l213 143l211 -143h466l-602 406h-151zM1120 238q124 0 224 26t178 81t121 149.5t43 222.5t-43 222.5t-121.5 149.5t-178.5 81t-223 26h-225q-124 0 -224 -26 t-178.5 -81t-121.5 -149.5t-43 -222.5q0 -129 43 -223.5t121.5 -149.5t178.5 -80.5t224 -25.5h225zM1120 352h-225q-76 0 -141 11t-123.5 38t-99.5 68t-65 104t-24 144q0 80 24 143t65.5 104t100 67.5t123.5 38t140 11.5h225q75 0 140 -11.5t123 -38t99 -67.5t65 -104 t24 -143q0 -99 -35.5 -172t-99.5 -114t-142 -60t-174 -19zM199 717q0 161 52 280t147.5 188.5t218.5 102.5t278 33h225q122 0 225 -20.5t191 -66t149 -114.5t95.5 -171.5t34.5 -231.5t-34.5 -231.5t-95.5 -171.5t-149 -114.5t-191 -66t-225 -20.5h-225q-155 0 -278 33 t-218.5 102.5t-147.5 188.5t-52 280zM84 717q0 -152 39 -273t110 -204t172.5 -138t223 -79.5t266.5 -24.5h225q182 0 326.5 40.5t253.5 124t168 224t59 330.5t-59 330.5t-168 224t-253.5 124t-326.5 40.5h-225q-145 0 -266.5 -24.5t-223 -79.5t-172.5 -138t-110 -204 t-39 -273zM915 1995h181l751 -508l187 -199h-271q5 -5 26.5 -23.5t44 -38.5t69.5 -66.5t104 -106.5q90 -90 130 -221t40 -320q0 -202 -62 -351t-177.5 -238.5t-267.5 -132t-345 -42.5h-225q-472 0 -686 211q-152 134 -236.5 256.5t-114.5 236.5t-30 265q0 439 291 629 l-164 141zM1120 403q67 0 124.5 10t109 33t88 58.5t57.5 89.5t21 123q0 46 -13 90q-82 24 -182 24h-225q-85 0 -156 -16.5t-129 -52.5t-90.5 -99.5t-32.5 -150.5q0 -49 8 -82q86 -27 195 -27h225z" />
<glyph unicode="&#xf5;" horiz-adv-x="2465" d="M1419 1794q-56 -67 -133 -125.5t-139 -58.5q-58 0 -110 24t-84 52.5t-72.5 52.5t-77.5 24q-27 0 -53.5 -17t-40.5 -33.5t-35 -45.5h-142q59 66 136.5 123t138.5 57q51 0 94 -15t72 -36.5t55.5 -43.5t57.5 -37t65 -15q27 0 52.5 16t41 33.5t35.5 44.5h139zM1231 1907 q-46 -95 -80 -95q-27 0 -67 23t-77.5 51t-92.5 51t-107 23q-67 0 -139.5 -40.5t-132.5 -105t-107 -130.5t-80 -130h395q11 29 34 55.5t48 26.5q13 0 42 -19.5t61.5 -43t92 -43t126.5 -19.5t139 39t132 101.5t107 127t81 128.5h-375zM1120 238q124 0 224 26t178 81t121 149.5 t43 222.5t-43 222.5t-121.5 149.5t-178.5 81t-223 26h-225q-124 0 -224 -26t-178.5 -81t-121.5 -149.5t-43 -222.5q0 -129 43 -223.5t121.5 -149.5t178.5 -80.5t224 -25.5h225zM1120 352h-225q-76 0 -141 11t-123.5 38t-99.5 68t-65 104t-24 144q0 80 24 143t65.5 104 t100 67.5t123.5 38t140 11.5h225q75 0 140 -11.5t123 -38t99 -67.5t65 -104t24 -143q0 -99 -35.5 -172t-99.5 -114t-142 -60t-174 -19zM199 717q0 161 52 280t147.5 188.5t218.5 102.5t278 33h225q122 0 225 -20.5t191 -66t149 -114.5t95.5 -171.5t34.5 -231.5t-34.5 -231.5 t-95.5 -171.5t-149 -114.5t-191 -66t-225 -20.5h-225q-155 0 -278 33t-218.5 102.5t-147.5 188.5t-52 280zM84 717q0 -152 39 -273t110 -204t172.5 -138t223 -79.5t266.5 -24.5h225q182 0 326.5 40.5t253.5 124t168 224t59 330.5t-59 330.5t-168 224t-253.5 124t-326.5 40.5 h-225q-145 0 -266.5 -24.5t-223 -79.5t-172.5 -138t-110 -204t-39 -273zM1198 1958h492l194 -211q-120 -225 -270 -361q41 -20 70.5 -37t75.5 -51t103.5 -89.5t131.5 -135.5q182 -182 182 -561q0 -202 -62 -351t-177.5 -238.5t-267.5 -132t-345 -42.5h-225q-482 0 -682 197 q-151 133 -237 259.5t-117 244t-31 268.5q0 487 362 669l-131 117q32 63 74 128t98 134.5t114.5 123t126.5 88t130 34.5q46 0 97.5 -18t79 -34t77.5 -48q70 -47 90 -47zM1120 403q67 0 124.5 10t109 33t88 58.5t57.5 89.5t21 123q0 46 -13 90q-82 24 -182 24h-225 q-85 0 -156 -16.5t-129 -52.5t-90.5 -99.5t-32.5 -150.5q0 -49 8 -82q86 -27 195 -27h225z" />
<glyph unicode="&#xf6;" horiz-adv-x="2459" d="M1157 1651v116h129v-116h-129zM1401 1538v342h-359v-342h359zM662 1651v116h129v-116h-129zM903 1538v342h-356v-342h356zM1120 238q124 0 224 26t178 81t121 149.5t43 222.5t-43 222.5t-121.5 149.5t-178.5 81t-223 26h-225q-124 0 -224 -26t-178.5 -81t-121.5 -149.5 t-43 -222.5q0 -129 43 -223.5t121.5 -149.5t178.5 -80.5t224 -25.5h225zM1120 352h-225q-76 0 -141 11t-123.5 38t-99.5 68t-65 104t-24 144q0 80 24 143t65.5 104t100 67.5t123.5 38t140 11.5h225q75 0 140 -11.5t123 -38t99 -67.5t65 -104t24 -143q0 -99 -35.5 -172 t-99.5 -114t-142 -60t-174 -19zM199 717q0 161 52 280t147.5 188.5t218.5 102.5t278 33h225q122 0 225 -20.5t191 -66t149 -114.5t95.5 -171.5t34.5 -231.5t-34.5 -231.5t-95.5 -171.5t-149 -114.5t-191 -66t-225 -20.5h-225q-155 0 -278 33t-218.5 102.5t-147.5 188.5 t-52 280zM84 717q0 -152 39 -273t110 -204t172.5 -138t223 -79.5t266.5 -24.5h225q182 0 326.5 40.5t253.5 124t168 224t59 330.5t-59 330.5t-168 224t-253.5 124t-326.5 40.5h-225q-145 0 -266.5 -24.5t-223 -79.5t-172.5 -138t-110 -204t-39 -273zM1651 1720v-352 q39 -23 58.5 -35.5t61 -44.5t94 -83.5t122.5 -127.5q190 -190 190 -565q0 -202 -62 -351t-177.5 -238.5t-267.5 -132t-345 -42.5h-225q-220 0 -404.5 52t-294.5 161q-114 101 -187.5 191.5t-112.5 183t-53.5 179.5t-14.5 202q0 302 135 482t381 247l-53 41v444h458l37 -49 v49h461zM1120 403q67 0 124.5 10t109 33t88 58.5t57.5 89.5t21 123q0 46 -13 90q-82 24 -182 24h-225q-85 0 -156 -16.5t-129 -52.5t-90.5 -99.5t-32.5 -150.5q0 -49 8 -82q86 -27 195 -27h225z" />
<glyph unicode="&#xf8;" horiz-adv-x="2480" d="M1815 717q0 -129 -34.5 -231.5t-95.5 -171.5t-149 -114.5t-191 -66t-225 -20.5h-225q-123 0 -226.5 20.5t-191.5 66.5t-149 115.5t-95 171.5t-34 230q0 161 52 280t147.5 188.5t218.5 102.5t278 33h225q155 0 279 -34.5t218.5 -105t146 -188.5t51.5 -276zM1432 1141 l-723 -887q115 -16 135 -16h276q124 0 224 26t178 81t121 149.5t43 222.5q0 156 -59 254t-195 170zM1120 1196h-225q-124 0 -224 -26t-178.5 -81t-121.5 -149.5t-43 -222.5q0 -158 57.5 -254t194.5 -170q120 148 361.5 443.5t361.5 443.5q-16 2 -56.5 6.5t-70 7t-56.5 2.5z M442 717q0 80 24 143t65.5 104t100 67.5t123.5 38t140 11.5h178l-518 -635q-113 91 -113 271zM1120 352h-184l518 635q117 -94 117 -270q0 -99 -35.5 -172t-99.5 -114t-142 -60t-174 -19zM647 -2l15 18q117 -18 233 -18h225q182 0 326.5 40.5t253.5 124t168 224t59 330.5 q0 173 -56 319t-179 242l129 158h-457l-14 -19q-120 19 -230 19h-225q-145 0 -266.5 -24.5t-223 -79.5t-172.5 -138t-110 -204t-39 -273q0 -173 56 -319t179 -242l-129 -158h457zM299 -252l-217 199l166 205q-111 105 -163 252t-52 313q0 163 41.5 292.5t116.5 218.5 t183 147.5t237.5 85t283.5 26.5h225q94 0 209 -14l8 14h592l193 -211l-162 -199l16 -16q102 -104 151.5 -247.5t49.5 -301.5q0 -202 -62 -351t-177.5 -238.5t-267.5 -132t-345 -42.5h-225q-96 0 -215 14l-11 -14h-575z" />
<glyph unicode="&#xf9;" horiz-adv-x="2643" d="M887 1800l258 -192h-141q-51 37 -145 106.5t-116 85.5h144zM516 1874l453 -340h415l-442 340h-426zM190 1321h132v-604q0 -128 42.5 -222.5t121 -149.5t178 -81t223.5 -26h225q123 0 223 26t178.5 81t122 149.5t43.5 222.5v604h129v-604q0 -130 -34.5 -232.5t-96 -171.5 t-149.5 -114.5t-191 -65.5t-225 -20h-225q-155 0 -278 33t-219 102.5t-148 188.5t-52 280v604zM78 717q0 -152 39 -273t109.5 -204t172 -138t222.5 -79.5t266 -24.5h225q145 0 266 24.5t222.5 79.5t172 138t109.5 204t39 273v719h-356v-719q0 -81 -24 -144t-65 -104 t-99.5 -68t-123.5 -38t-141 -11h-225q-96 0 -174 19t-142 60t-99.5 114t-35.5 172v719h-358v-719zM334 1925h622l570 -438h446l199 -211v-764q0 -202 -62.5 -351t-178 -238.5t-268 -132t-345.5 -42.5h-225q-216 0 -396 54.5t-290 164.5q-115 99 -189.5 187.5t-116 180 t-57.5 180t-16 202.5v770h460l199 -211v-764q0 -57 6 -82q88 -27 195 -27h225q67 0 124.5 9.5t109.5 32.5t88 58.5t57.5 90t21.5 123.5v567h-356z" />
<glyph unicode="&#xfa;" horiz-adv-x="2643" d="M1231 1800q-29 -21 -119.5 -88.5t-140.5 -103.5h-142l258 192h144zM1032 1874l-442 -340h416l452 340h-426zM190 1321h132v-604q0 -128 42.5 -222.5t121 -149.5t178 -81t223.5 -26h225q123 0 223 26t178.5 81t122 149.5t43.5 222.5v604h129v-604q0 -130 -34.5 -232.5 t-96 -171.5t-149.5 -114.5t-191 -65.5t-225 -20h-225q-155 0 -278 33t-219 102.5t-148 188.5t-52 280v604zM78 717q0 -152 39 -273t109.5 -204t172 -138t222.5 -79.5t266 -24.5h225q145 0 266 24.5t222.5 79.5t172 138t109.5 204t39 273v719h-356v-719q0 -81 -24 -144 t-65 -104t-99.5 -68t-123.5 -38t-141 -11h-225q-96 0 -174 19t-142 60t-99.5 114t-35.5 172v719h-358v-719zM1018 1925h594l186 -211l-571 -430h-549l8 -8v-764q0 -57 6 -82q88 -27 195 -27h225q67 0 124.5 9.5t109.5 32.5t88 58.5t57.5 90t21.5 123.5v770h459l199 -211 v-764q0 -202 -62.5 -351t-178 -238.5t-268 -132t-345.5 -42.5h-225q-479 0 -678 199q-115 99 -191 191t-119 186.5t-60 186.5t-17 206v770h417z" />
<glyph unicode="&#xfb;" horiz-adv-x="2643" d="M1038 1845q58 -39 170.5 -117.5t169.5 -117.5h-114l-271 172l-272 -172h-113l340 235h90zM918 1944l-605 -406h467l213 143l211 -143h467l-602 406h-151zM190 1321h132v-604q0 -128 42.5 -222.5t121 -149.5t178 -81t223.5 -26h225q123 0 223 26t178.5 81t122 149.5 t43.5 222.5v604h129v-604q0 -130 -34.5 -232.5t-96 -171.5t-149.5 -114.5t-191 -65.5t-225 -20h-225q-155 0 -278 33t-219 102.5t-148 188.5t-52 280v604zM78 717q0 -152 39 -273t109.5 -204t172 -138t222.5 -79.5t266 -24.5h225q145 0 266 24.5t222.5 79.5t172 138 t109.5 204t39 273v719h-356v-719q0 -81 -24 -144t-65 -104t-99.5 -68t-123.5 -38t-141 -11h-225q-96 0 -174 19t-142 60t-99.5 114t-35.5 172v719h-358v-719zM903 1995h180l752 -508h137v-12l199 -199v-764q0 -202 -62.5 -351t-178 -238.5t-268 -132t-345.5 -42.5h-225 q-445 0 -662 217l-145 144q-258 193 -258 608v770h120zM1513 717v571h-116l-199 135l-201 -135h-323l12 -12v-764q0 -57 6 -82q88 -27 195 -27h225q67 0 124.5 9.5t109.5 32.5t88 58.5t57.5 90t21.5 123.5zM494 246q24 -14 32 -17l-47 45z" />
<glyph unicode="&#xfc;" horiz-adv-x="2643" d="M1194 1651v116h129v-116h-129zM1438 1538v342h-359v-342h359zM698 1651v116h129v-116h-129zM940 1538v342h-356v-342h356zM190 1321h132v-604q0 -128 42.5 -222.5t121 -149.5t178 -81t223.5 -26h225q123 0 223 26t178.5 81t122 149.5t43.5 222.5v604h129v-604 q0 -130 -34.5 -232.5t-96 -171.5t-149.5 -114.5t-191 -65.5t-225 -20h-225q-155 0 -278 33t-219 102.5t-148 188.5t-52 280v604zM78 717q0 -152 39 -273t109.5 -204t172 -138t222.5 -79.5t266 -24.5h225q145 0 266 24.5t222.5 79.5t172 138t109.5 204t39 273v719h-356v-719 q0 -81 -24 -144t-65 -104t-99.5 -68t-123.5 -38t-141 -11h-225q-96 0 -174 19t-142 60t-99.5 114t-35.5 172v719h-358v-719zM27 717v770h460l199 -211v-764q0 -57 6 -82q88 -27 195 -27h225q67 0 124.5 9.5t109.5 32.5t88 58.5t57.5 90t21.5 123.5v571h-274l-49 49v-49h-447 l-211 199v444h459l37 -49v49h461l199 -211v-233h284l199 -211v-764q0 -202 -62.5 -351t-178 -238.5t-268 -132t-345.5 -42.5h-225q-479 0 -686 207q-114 99 -189 189.5t-116.5 184t-57.5 183.5t-16 205z" />
<glyph unicode="&#xfd;" horiz-adv-x="2299" d="M1192 1800q-29 -21 -119.5 -88.5t-140.5 -103.5h-141l258 192h143zM993 1874l-442 -340h416l452 340h-426zM915 621l-708 700h180l594 -584l584 584h178l-701 -698v-510h-127v508zM803 -2h354v577l858 861h-495l-541 -545l-549 545h-500l873 -865v-573zM979 1925h594 l186 -211l-571 -430h-535l324 -321l520 524h643l191 -211l-924 -924v-604h-444l-211 199v604q-117 117 -451 445.5t-496 490.5h601z" />
<glyph unicode="&#xfe;" horiz-adv-x="2488" d="M299 1016v-576h852q155 0 250.5 69.5t95.5 219.5q0 77 -27 133.5t-75.5 89.5t-109 48.5t-134.5 15.5h-852zM1151 901q47 0 85.5 -8t73.5 -26.5t54.5 -53.5t19.5 -84t-19.5 -85t-53.5 -55t-73.5 -27.5t-86.5 -8.5h-739v348h739zM172 113v1208h127v-176h852 q106 0 191 -22.5t151 -70.5t101.5 -130t35.5 -193t-35.5 -193t-101.5 -130t-151 -70.5t-191 -22.5h-852v-200h-127zM412 -2v201h739q135 0 240.5 30t185 92t122 165t42.5 243t-42.5 243t-122.5 164.5t-185.5 91t-239.5 29.5h-739v179h-351v-1438h351zM221 -252l-211 199 v1540h453l166 -178h522q79 0 139.5 -6.5t132 -27.5t135.5 -58.5t138.5 -101.5t152.5 -154q69 -69 105.5 -183t36.5 -254q0 -152 -45.5 -264t-131 -179.5t-199.5 -99.5t-259 -32h-694v-201h-441zM662 651v-47h489q110 0 154 47h-643z" />
<glyph unicode="&#xff;" horiz-adv-x="2299" d="M1169 1651v116h129v-116h-129zM1413 1538v342h-358v-342h358zM674 1651v116h129v-116h-129zM915 1538v342h-356v-342h356zM915 621l-708 700h180l594 -584l584 584h178l-701 -698v-510h-127v508zM803 -2h354v577l858 861h-495l-541 -545l-549 545h-500l873 -865v-573z M752 -53v604q-117 117 -451 445.5t-496 490.5h646l526 -524l323 325h-86l-49 49v-49h-446l-211 199v444h459l37 -49v49h460l199 -211v-233h477l191 -211l-924 -924v-604h-444z" />
<glyph unicode="&#x152;" horiz-adv-x="3289" d="M383 717q0 -104 28.5 -185.5t78.5 -136t122 -90.5t154.5 -51.5t181.5 -15.5h328v958h-328q-124 0 -223.5 -26t-178 -81t-121 -149.5t-42.5 -222.5zM496 717q0 80 24 143t65 104t99.5 67.5t123.5 38t140 11.5h213v-729h-213q-76 0 -141 11t-123.5 38t-99 68t-64.5 104 t-24 144zM1401 778h850v-123h-850v-417h1065v-125h-1518q-122 0 -225 20t-191 65.5t-149.5 114.5t-96 171.5t-34.5 232.5t34.5 232.5t96 171.5t149.5 114.5t191 65.5t225 20h1516v-125h-1063v-418zM1511 1081h1065v355h-1628q-145 0 -266 -24.5t-222.5 -79.5t-172 -138 t-109.5 -204t-39 -273t39 -273t109.5 -204t172 -138t222.5 -79.5t266 -24.5h1630v354h-1067v191h854v348h-854v190zM467 -57q-113 99 -188 192t-116.5 188.5t-58 187t-16.5 206.5q0 163 41.5 292.5t116 218.5t182.5 147.5t237 85t283 26.5h1680l198 -211v-445h-311l100 -100 v-328h15l198 -210v-445h-1675q-491 0 -686 195zM745 512q0 -44 9 -82q85 -27 194 -27h162v426q-79 -4 -142.5 -23t-115 -55.5t-79.5 -97t-28 -141.5z" />
<glyph unicode="&#x153;" horiz-adv-x="3426" d="M383 717q0 -104 28.5 -185.5t78.5 -136t122 -90.5t154.5 -51.5t181.5 -15.5h328v958h-328q-124 0 -223.5 -26t-178 -81t-121 -149.5t-42.5 -222.5zM496 717q0 80 24 143t65 104t99.5 67.5t123.5 38t140 11.5h213v-729h-213q-76 0 -141 11t-123.5 38t-99 68t-64.5 104 t-24 144zM1401 778h850v-123h-850v-417h1065v-125h-1518q-122 0 -225 20t-191 65.5t-149.5 114.5t-96 171.5t-34.5 232.5t34.5 232.5t96 171.5t149.5 114.5t191 65.5t225 20h1516v-125h-1063v-418zM1511 1081h1065v355h-1628q-145 0 -266 -24.5t-222.5 -79.5t-172 -138 t-109.5 -204t-39 -273t39 -273t109.5 -204t172 -138t222.5 -79.5t266 -24.5h1630v354h-1067v191h854v348h-854v190zM467 -57q-113 99 -188 192t-116.5 188.5t-58 187t-16.5 206.5q0 163 41.5 292.5t116 218.5t182.5 147.5t237 85t283 26.5h1680l198 -211v-445h-311l100 -100 v-328h15l198 -210v-445h-1675q-491 0 -686 195zM745 512q0 -44 9 -82q85 -27 194 -27h162v426q-79 -4 -142.5 -23t-115 -55.5t-79.5 -97t-28 -141.5z" />
<glyph unicode="&#x178;" horiz-adv-x="2299" d="M1169 1651v116h129v-116h-129zM1413 1538v342h-358v-342h358zM674 1651v116h129v-116h-129zM915 1538v342h-356v-342h356zM915 621l-708 700h180l594 -584l584 584h178l-701 -698v-510h-127v508zM803 -2h354v577l858 861h-495l-541 -545l-549 545h-500l873 -865v-573z M752 -53v604q-117 117 -451 445.5t-496 490.5h646l526 -524l323 325h-86l-49 49v-49h-446l-211 199v444h459l37 -49v49h460l199 -211v-233h477l191 -211l-924 -924v-604h-444z" />
<glyph unicode="&#x2c6;" horiz-adv-x="1372" d="M592 1845q58 -39 170 -117.5t170 -117.5h-115l-270 172l-273 -172h-112l340 235h90zM471 1944l-604 -406h467l213 143l211 -143h467l-602 406h-152zM457 1995h180l752 -508l186 -199h-625l-198 135l-201 -135h-625l-225 199z" />
<glyph unicode="&#x2dc;" horiz-adv-x="1431" d="M989 1794q-56 -67 -133 -125.5t-139 -58.5q-58 0 -110 24t-84 52.5t-72.5 52.5t-77.5 24q-27 0 -53.5 -17t-40.5 -33.5t-35 -45.5h-142q59 66 136.5 123t138.5 57q51 0 94 -15t72 -36.5t55.5 -43.5t57.5 -37t65 -15q27 0 52.5 16t41 33.5t35.5 44.5h139zM825 1907h-8 q-12 -25 -43.5 -60t-52.5 -35q-27 0 -67 23t-77.5 51t-92.5 51t-107 23q-67 0 -139.5 -40.5t-132.5 -105t-107 -130.5t-80 -130h395q11 29 34 55.5t48 26.5q13 0 42 -19.5t61.5 -43t92 -43t126.5 -19.5t139 39t132 101.5t107 127t81 128.5h-351zM768 1958h492l194 -211 q-41 -78 -97 -157t-126 -155.5t-152 -124.5t-157 -48q-69 0 -131 19t-92 37t-68 46l-31 22q-11 0 -26.5 -26t-26.5 -55h-498l-215 198q32 63 74 128t98 134.5t114.5 123t126.5 88t130 34.5q46 0 97.5 -18t79 -34t77.5 -48q14 -10 21 -14t22.5 -11.5t26 -5.5t24 7.5 t24.5 23.5t19 47z" />
<glyph unicode="&#x2000;" horiz-adv-x="1029" />
<glyph unicode="&#x2001;" horiz-adv-x="2058" />
<glyph unicode="&#x2002;" horiz-adv-x="1029" />
<glyph unicode="&#x2003;" horiz-adv-x="2058" />
<glyph unicode="&#x2004;" horiz-adv-x="686" />
<glyph unicode="&#x2005;" horiz-adv-x="514" />
<glyph unicode="&#x2006;" horiz-adv-x="343" />
<glyph unicode="&#x2007;" horiz-adv-x="343" />
<glyph unicode="&#x2008;" horiz-adv-x="257" />
<glyph unicode="&#x2009;" horiz-adv-x="411" />
<glyph unicode="&#x200a;" horiz-adv-x="114" />
<glyph unicode="&#x2010;" horiz-adv-x="1804" d="M135 778h1012v-123h-1012v123zM20 543h1242v348h-1242v-348zM-31 492v450h1344l198 -211v-438h-1331z" />
<glyph unicode="&#x2011;" horiz-adv-x="1804" d="M135 778h1012v-123h-1012v123zM20 543h1242v348h-1242v-348zM-31 492v450h1344l198 -211v-438h-1331z" />
<glyph unicode="&#x2012;" horiz-adv-x="1804" d="M135 778h1012v-123h-1012v123zM20 543h1242v348h-1242v-348zM-31 492v450h1344l198 -211v-438h-1331z" />
<glyph unicode="&#x2013;" horiz-adv-x="1835" d="M135 778h1012v-123h-1012v123zM20 543h1242v348h-1242v-348zM-31 492v450h1344l198 -211v-438h-1331z" />
<glyph unicode="&#x2014;" horiz-adv-x="2312" d="M170 778h1397v-123h-1397v123zM55 543h1626v348h-1626v-348zM4 492v450h1729l198 -211v-438h-1716z" />
<glyph unicode="&#x2018;" horiz-adv-x="798" d="M340 1364l-29 -72v-188h-131v153l90 107h70zM219 1479l-151 -176v-314h356v279l88 211h-293zM197 1530h391l194 -211l-108 -262v-318h-447l-211 199v383z" />
<glyph unicode="&#x2019;" horiz-adv-x="792" d="M188 1104l29 72v188h131v-154l-90 -106h-70zM307 989l154 176v314h-357v-279l-88 -211h291zM156 739l-215 199l112 268v324h459l199 -211v-375l-179 -205h-376z" />
<glyph unicode="&#x201a;" horiz-adv-x="724" d="M131 -123q-2 7 -18.5 63t-16.5 68v150h131v-146q0 -5 -9 -33.5t-19.5 -60.5t-12.5 -41h-55zM270 -233q70 210 70 221v280h-356v-270q0 -3 14 -56t28.5 -110t16.5 -65h227zM211 -483l-211 198q-17 83 -35 150l-33 131v323h459l199 -210v-326q0 -7 -36.5 -124t-45.5 -142 h-297z" />
<glyph unicode="&#x201c;" horiz-adv-x="1372" d="M371 1364l-27 -72v-188h-131v153l90 107h68zM252 1479l-152 -176v-314h357v279l88 211h-293zM915 1364l-30 -72v-188h-131v153l90 107h71zM793 1479l-152 -176v-314h356v279l88 211h-292zM770 1530h391l195 -211l-109 -262v-318h-446l-94 95v-95h-447l-211 199v383 l180 209h392l71 -90z" />
<glyph unicode="&#x201d;" horiz-adv-x="1458" d="M754 1104l26 72v188h131v-154l-90 -106h-67zM872 989l152 176v314h-356v-279l-88 -211h292zM209 1104l31 72v188h131v-154l-90 -106h-72zM332 989l151 176v314h-356v-279l-88 -211h293zM178 739l-215 199l113 268v324h459l81 -94v94h459l199 -211v-375l-176 -205h-379 l-88 86l-74 -86h-379z" />
<glyph unicode="&#x201e;" horiz-adv-x="1255" d="M606 -123q-2 8 -10.5 40t-16.5 60t-8 31v150h131v-146q0 -15 -40 -135h-56zM745 -233q70 210 70 221v280h-356v-270q0 -3 14 -56t28.5 -110t16.5 -65h227zM147 -123q-34 113 -34 131v150h131v-146q0 -3 -9 -31.5t-19.5 -61.5t-12.5 -42h-56zM287 -233q69 207 69 221v280 h-356v-270q0 -3 14 -56t28.5 -110t16.5 -65h228zM227 -483l-211 198q-19 96 -34 150l-33 131v323h917l199 -210v-326q0 -7 -36.5 -124t-45.5 -142h-297l-123 123q-24 -85 -39 -123h-297z" />
<glyph unicode="&#x2022;" horiz-adv-x="806" d="M223 504q105 0 163 55t58 160q0 104 -58 157.5t-163 53.5q-107 0 -165 -53t-58 -158q0 -106 58.5 -160.5t164.5 -54.5zM221 618q-49 0 -78.5 26t-29.5 75t30 73.5t80 24.5q48 0 78.5 -25t30.5 -73q0 -49 -31 -75t-80 -26zM223 317q-88 76 -143 132.5t-83.5 103.5 t-38 83.5t-9.5 82.5q0 131 71 196.5t203 65.5q152 0 240 -98l166 -181q65 -65 65 -188q0 -126 -69.5 -193t-196.5 -67q-142 0 -205 63z" />
<glyph unicode="&#x2026;" horiz-adv-x="1710" d="M1044 68v116h130v-116h-130zM1286 -45v342h-352v-342h352zM590 68v116h127v-116h-127zM829 -45v342h-352v-342h352zM133 68v116h127v-116h-127zM373 -45v342h-353v-342h353zM180 -295l-211 199v444h1368l199 -211v-432h-1356z" />
<glyph unicode="&#x202f;" horiz-adv-x="411" />
<glyph unicode="&#x2039;" horiz-adv-x="1144" d="M473 1161h164l-365 -442l367 -447h-166l-360 445zM-31 717l453 -555h450q-114 148 -452 557l452 553h-450zM-96 717l493 606h582l192 -211l-489 -596q232 -279 485 -604h-563l-207 199z" />
<glyph unicode="&#x203a;" horiz-adv-x="1144" d="M670 717l-365 -445h-162l365 443l-365 446h162zM358 1272h-450l454 -559l-454 -551h450l455 555zM381 1323l203 -211l493 -600l-493 -600h-568l-217 199l496 602l-494 610h580z" />
<glyph unicode="&#x205f;" horiz-adv-x="514" />
<glyph unicode="&#x20ac;" horiz-adv-x="2109" d="M176 739v-2q-2 0 -2 2h2zM104 958h189q43 103 112.5 176t159 113t184 57t207.5 17h123q108 0 246 -43v-104q-156 40 -246 40h-123q-71 0 -141 -14.5t-135.5 -44t-117 -80.5t-77.5 -117h793v-106h-823q-29 -68 -29 -150q0 -62 18 -120h834v-107h-815q58 -122 201 -189 t292 -67h123q115 0 244 29v-109q-173 -26 -244 -26h-123q-113 0 -207.5 17t-184 56.5t-159 112.5t-112.5 176h-189v107h175q-23 86 -23 137t23 133h-175v106zM-10 739h184v4v-4l2 -14v-31h-186v-329h229q34 -73 82.5 -130.5t100 -95.5t120.5 -65t128 -41.5t141 -22.5 t142 -10t146 -2q127 0 320 51v1311q-103 44 -207 60t-236 16q-565 0 -737 -367h-229v-330zM-61 313v807h247q193 367 770 367q137 0 251 -19t243 -75l199 -209v-1374q-231 -62 -365 -62q-96 0 -170.5 3.5t-166 17t-164 36.5t-146 64.5t-131.5 99.5q-23 22 -42.5 41.5l-33 33 t-25 24.5t-19 18t-13 12t-8.5 8l-5 5l-2.5 2.5l-1.5 1.5h-206z" />
<glyph unicode="&#x2122;" horiz-adv-x="2461" d="M465 782v441h-285v125h697v-125h-287v-441h-125zM1231 772v576h100l240 -404l241 404h103v-576h-127v318l-197 -318h-37l-198 320v-320h-125zM705 668v442h286v350h-925v-350h284v-442h355zM2030 657v803h-281l-178 -291l-174 291h-279v-803h912zM225 860l-211 199v452 h1028l25 -36v36h360l175 -188l116 188h363l198 -211v-892h-1001l-211 198v254h-113v-442h-444l-211 198v244h-74z" />
<glyph unicode="&#xe000;" horiz-adv-x="1484" d="M0 1485h1485v-1485h-1485v1485z" />
<glyph unicode="&#xfb01;" horiz-adv-x="2420" d="M1790 1321v-1208h-123v1083h-1372v-418h1042v-123h-1042v-542h-127v1208h1622zM408 1081h1146v-1083h349v1438h-1850v-1438h355v545h1042v348h-1042v190zM213 -252l-211 199v1540h1952l198 -211v-1528h-438l-211 199v346h-846v-545h-444z" />
<glyph unicode="&#xfb02;" horiz-adv-x="2428" d="M1790 1321v-1208h-123v1083h-1372v-418h1042v-123h-1042v-542h-127v1208h1622zM408 1081h1146v-1083h349v1438h-1850v-1438h355v545h1042v348h-1042v190zM213 -252l-211 199v1540h1952l198 -211v-1528h-438l-211 199v346h-846v-545h-444z" />
</font>
</defs>
</svg>
